<svg width="20" height="20" viewBox="0 0 20 20" fill="none" xmlns="http://www.w3.org/2000/svg">
<path d="M10 14C10 14 10 14.061 10 14.0644M8.66667 7.45645C8.92337 7.15319 9.27512 6.94571 9.66472 6.86776C10.0543 6.78981 10.4588 6.84597 10.8124 7.02712C11.1686 7.20862 11.4533 7.50488 11.6204 7.86806C11.7875 8.23124 11.8273 8.64015 11.7334 9.02874C11.6395 9.41733 11.4173 9.76293 11.1028 10.0097C10.7883 10.2565 10 10.3889 10 10.3889V11.5M2 10C2 11.0506 2.20693 12.0909 2.60896 13.0615C3.011 14.0321 3.60028 14.914 4.34315 15.6569C5.08601 16.3997 5.96793 16.989 6.93853 17.391C7.90914 17.7931 8.94943 18 10 18C11.0506 18 12.0909 17.7931 13.0615 17.391C14.0321 16.989 14.914 16.3997 15.6569 15.6569C16.3997 14.914 16.989 14.0321 17.391 13.0615C17.7931 12.0909 18 11.0506 18 10C18 7.87827 17.1571 5.84344 15.6569 4.34315C14.1566 2.84285 12.1217 2 10 2C7.87827 2 5.84344 2.84285 4.34315 4.34315C2.84285 5.84344 2 7.87827 2 10Z" stroke="#CFCFCF" stroke-width="1.6" stroke-linecap="round" stroke-linejoin="round"/>
</svg>
