<svg width="20" height="21" viewBox="0 0 20 21" fill="none" xmlns="http://www.w3.org/2000/svg">
<path d="M16.6667 10.5002H8.75001M15 13.0002L17.5 10.5002L15 8.00016M10.8333 6.3335V5.50016C10.8333 5.05814 10.6577 4.63421 10.3452 4.32165C10.0326 4.00909 9.6087 3.8335 9.16668 3.8335H5.00001C4.55798 3.8335 4.13406 4.00909 3.8215 4.32165C3.50894 4.63421 3.33334 5.05814 3.33334 5.50016V15.5002C3.33334 15.9422 3.50894 16.3661 3.8215 16.6787C4.13406 16.9912 4.55798 17.1668 5.00001 17.1668H9.16668C9.6087 17.1668 10.0326 16.9912 10.3452 16.6787C10.6577 16.3661 10.8333 15.9422 10.8333 15.5002V14.6668"  stroke="currentColor" stroke-width="1.4" stroke-linecap="round" stroke-linejoin="round"/>
</svg>
