<svg width="20" height="20" viewBox="0 0 20 20" fill="none" xmlns="http://www.w3.org/2000/svg">
<path d="M6.94737 6.88889H13.2632M6.94737 10H11.6842M11.2895 15.0556L10.1053 16.2222L7.73684 13.8889H5.36842C4.74028 13.8889 4.13786 13.6431 3.69369 13.2055C3.24953 12.7679 3 12.1744 3 11.5556V5.33333C3 4.71449 3.24953 4.121 3.69369 3.68342C4.13786 3.24583 4.74028 3 5.36842 3H14.8421C15.4703 3 16.0727 3.24583 16.5168 3.68342C16.961 4.121 17.2105 4.71449 17.2105 5.33333V10M18 17L14.0526 13.1111M14.0526 17L18 13.1111" stroke="#A6ABAA" stroke-width="1.4" stroke-linecap="round" stroke-linejoin="round"/>
</svg>
