<svg width="20" height="21" viewBox="0 0 20 21" fill="none" xmlns="http://www.w3.org/2000/svg">
<path d="M5 18V16.3333C5 15.4493 5.35119 14.6014 5.97631 13.9763C6.60143 13.3512 7.44928 13 8.33333 13H11.25M18.3333 18.8333L14.1667 14.6667M14.1667 18.8333L18.3333 14.6667M6.66667 6.33333C6.66667 7.21739 7.01786 8.06524 7.64298 8.69036C8.2681 9.31548 9.11595 9.66667 10 9.66667C10.8841 9.66667 11.7319 9.31548 12.357 8.69036C12.9821 8.06524 13.3333 7.21739 13.3333 6.33333C13.3333 5.44928 12.9821 4.60143 12.357 3.97631C11.7319 3.35119 10.8841 3 10 3C9.11595 3 8.2681 3.35119 7.64298 3.97631C7.01786 4.60143 6.66667 5.44928 6.66667 6.33333Z"  stroke="currentColor" stroke-width="1.4" stroke-linecap="round" stroke-linejoin="round"/>
</svg>
