<svg width="64" height="64" viewBox="0 0 64 64" fill="none" xmlns="http://www.w3.org/2000/svg">
<path d="M6.1001 64H57.9001V15.24H54.8601V12.2H51.8201V9.14H48.7601V6.1H45.7201V3.04H42.6601V0H6.1001V64ZM9.1401 3.04H39.6201V18.28H54.8601V60.96H9.1401V3.04Z" fill="#54BDB4"/>
<path d="M15.24 39.6199V42.6599H36.58V48.7599H39.62V42.6599H45.72V48.7599H48.76V39.6199H15.24ZM45.72 24.3799H42.66V27.4199H39.62V30.4799H42.66V33.5199H45.72V30.4799H48.76V27.4199H45.72V24.3799ZM39.62 48.7599H45.72V51.7999H39.62V48.7599ZM18.28 33.5199H21.34V30.4799H24.38V27.4199H21.34V24.3799H18.28V27.4199H15.24V30.4799H18.28V33.5199Z" fill="#54BDB4"/>
</svg>
