<svg width="160" height="160" viewBox="0 0 160 160" fill="none" xmlns="http://www.w3.org/2000/svg">
<rect width="160" height="160" rx="32" fill="white"/>
<path d="M89.9767 51.901C89.0096 38.1985 96.4533 34.4163 100.296 34.238C101.007 34.2182 101.523 34.913 101.335 35.5991C100.106 40.0747 99.9823 44.7757 100.241 46.1272C100.648 48.2561 102.934 50.7635 104.978 52.4419C106.067 53.3357 106.572 56.0437 105.59 57.0537C103.091 59.6254 100.647 62.0684 99.3586 64.4722C98.7731 65.5648 97.2342 66.1353 96.375 65.2419C92.0706 60.7669 90.3203 54.6939 89.9767 51.901Z" fill="#9ADAD5"/>
<path d="M130.921 58.2798C136.8 45.8639 130.984 39.5411 127.341 37.9317C126.666 37.6476 125.912 38.1276 125.843 38.8572C125.407 43.4758 123.838 47.881 123.103 49.0404C121.941 50.8733 118.83 52.3538 116.251 53.151C114.893 53.571 113.43 55.945 114.008 57.2444C115.503 60.6073 116.988 63.8263 117.343 66.5638C117.501 67.7774 118.698 68.8573 119.82 68.3683C125.65 65.827 129.572 60.7715 130.921 58.2798Z" fill="#9ADAD5"/>
<path d="M31.3267 56.4272C25.1123 44.1766 30.502 37.7997 33.9737 36.1425C34.6214 35.8479 35.3669 36.2877 35.4598 36.9931C36.0662 41.5945 37.7783 45.9744 38.5416 47.1193C39.7441 48.9228 42.824 50.3454 45.3602 51.0976C46.7107 51.4981 48.228 53.7972 47.7157 55.1094C46.4114 58.4502 45.1085 61.6507 44.8555 64.3662C44.7404 65.6004 43.5441 66.7238 42.4052 66.2345C36.7004 63.7832 32.7283 58.8672 31.3267 56.4272Z" fill="#FF583E"/>
<path d="M69.695 54.0673C74.2637 41.1118 67.8272 35.4219 64.0379 34.1964C63.3367 33.9834 62.6366 34.5385 62.6432 35.2713C62.6852 39.9102 61.5781 44.4537 60.9666 45.6826C59.9999 47.6255 57.0579 49.4186 54.575 50.4773C53.267 51.035 52.057 53.5471 52.7654 54.78C54.599 57.971 56.4077 61.0199 57.043 63.7062C57.3247 64.8971 58.627 65.8479 59.6925 65.2459C65.2297 62.1174 68.6106 56.6847 69.695 54.0673Z" fill="#FF583E"/>
<path d="M107.871 48.3789C127.824 48.379 144 64.5544 144 84.5078C144 98.077 136.518 109.896 125.456 116.072C124.356 118.364 124.172 121.018 124.991 123.476L125.756 125.77C126.085 126.757 125.297 127.76 124.26 127.674L123.075 127.576C117.567 127.119 112.435 124.636 108.659 120.626C108.397 120.632 108.134 120.637 107.871 120.637C98.169 120.637 89.3605 116.811 82.8701 110.588C88.8061 103.575 92.3877 94.5055 92.3877 84.5977C92.3876 74.6438 88.7737 65.5346 82.7881 58.5078C89.2863 52.2375 98.1278 48.379 107.871 48.3789Z" fill="#9ADAD5"/>
<path d="M52.1289 48.168C72.0823 48.168 88.2576 64.3867 88.2578 84.3936C88.2578 103.967 72.7761 119.913 53.4209 120.595C49.6473 124.624 44.5106 127.119 38.9941 127.578L37.8096 127.676C36.7705 127.762 35.981 126.756 36.3105 125.765L37.0762 123.462C37.743 121.457 37.7429 119.321 37.126 117.356C24.6616 111.643 16 99.0333 16 84.3936C16.0002 64.3867 32.1756 48.1681 52.1289 48.168Z" fill="#FF583E"/>
<path d="M43.4307 94.7922C43.4307 91.1808 46.2245 88.134 49.8349 88.2219C50.7493 88.2442 51.6478 88.2936 52.4422 88.3841C52.799 88.4247 53.1936 88.4804 53.5974 88.5435C55.8823 88.901 57.9171 90.1919 60.152 90.7871C61.1344 91.0488 61.7729 91.0488 62.7553 90.7871C64.9902 90.1919 67.025 88.901 69.31 88.5435C69.7137 88.4804 70.1084 88.4247 70.4652 88.3841C71.2595 88.2936 72.158 88.2442 73.0724 88.2219C76.6828 88.134 79.4766 91.1808 79.4766 94.7922C79.4766 100.986 74.4558 106.007 68.2623 106.007H54.645C48.4515 106.007 43.4307 100.986 43.4307 94.7922Z" fill="#3C3C3C"/>
<path d="M67.4609 89.6094C67.4422 89.8495 67.4056 90.0883 67.3525 90.3232L67.1279 91.3184C67.0314 91.7461 66.8486 92.15 66.5898 92.5039L66.4277 92.7246C65.9263 93.4101 65.1276 93.8154 64.2783 93.8154C63.429 93.8153 62.6303 93.4102 62.1289 92.7246L61.9678 92.5039C61.7451 92.1994 61.5783 91.8578 61.4746 91.4961C61.3709 91.8577 61.205 92.1994 60.9824 92.5039L60.8203 92.7246C60.3189 93.4101 59.5202 93.8154 58.6709 93.8154C57.8215 93.8153 57.0229 93.4102 56.5215 92.7246L56.3604 92.5039C56.1015 92.15 55.9178 91.7461 55.8213 91.3184L55.5967 90.3232C55.5437 90.0883 55.508 89.8495 55.4893 89.6094L55.4463 89.0596C56.9844 89.6 58.464 90.3666 60.043 90.7871C61.0251 91.0486 61.6634 91.0486 62.6455 90.7871C64.3161 90.3422 65.8755 89.5096 67.5107 88.9678L67.4609 89.6094Z" fill="white"/>
<path d="M96 94.0499C96 90.8456 98.4789 88.1424 101.682 88.2202C102.495 88.2399 103.294 88.2837 104 88.3641C104.317 88.4002 104.667 88.4496 105.026 88.5057C107.054 88.8228 108.861 89.9682 110.844 90.4963C111.717 90.7284 112.283 90.7284 113.156 90.4963C115.139 89.9682 116.946 88.8228 118.974 88.5057C119.333 88.4496 119.683 88.4002 120 88.3641C120.706 88.2837 121.505 88.2399 122.318 88.2202C125.521 88.1424 128 90.8456 128 94.0499C128 99.5452 123.545 104 118.05 104H105.95C100.455 104 96 99.5452 96 94.0499Z" fill="#3C3C3C"/>
<path d="M117.331 89.4531C117.314 89.6663 117.282 89.8783 117.235 90.0869L117.036 90.9688C116.95 91.3485 116.787 91.7073 116.558 92.0215L116.414 92.2168C115.969 92.8252 115.26 93.1845 114.506 93.1846C113.752 93.1846 113.042 92.8255 112.597 92.2168L112.454 92.0215C112.253 91.7468 112.107 91.4372 112.016 91.1104C111.924 91.4372 111.778 91.7468 111.577 92.0215L111.434 92.2168C110.988 92.8252 110.279 93.1845 109.525 93.1846C108.771 93.1846 108.062 92.8255 107.616 92.2168L107.474 92.0215C107.244 91.7073 107.081 91.3485 106.995 90.9688L106.796 90.0869C106.749 89.8783 106.717 89.6663 106.7 89.4531L106.662 88.9619C108.029 89.4415 109.344 90.1226 110.747 90.4961C111.619 90.7282 112.186 90.7282 113.058 90.4961C114.54 90.1015 115.924 89.3626 117.375 88.8818L117.331 89.4531Z" fill="white"/>
</svg>
