<svg width="80" height="80" viewBox="0 0 80 80" fill="none" xmlns="http://www.w3.org/2000/svg">
<path d="M76.175 40.0129H80V55.2379H76.175V40.0129ZM72.375 55.2379H76.175V59.0629H72.375V55.2379ZM72.375 36.1879H76.175V40.0129H72.375V36.1879ZM68.575 59.0629H72.375V62.8629H68.575V59.0629ZM68.575 32.3879H72.375V36.1879H68.575V32.3879ZM7.625 62.8629H68.575V66.6629H7.625V62.8629ZM60.95 28.5879H68.575V32.3879H60.95V28.5879ZM57.125 24.7629H60.95V28.5879H57.125V24.7629ZM53.325 43.8129H57.125V47.6129H53.325V43.8129ZM53.325 36.1879H57.125V40.0129H53.325V36.1879ZM53.325 20.9629H57.125V24.7629H53.325V20.9629ZM49.525 40.0129H53.325V43.8129H49.525V40.0129ZM45.7 43.8129H49.525V47.6129H45.7V43.8129ZM45.7 36.1879H49.525V40.0129H45.7V36.1879ZM45.7 17.1379H53.325V20.9629H45.7V17.1379ZM34.275 55.2379H41.9V59.0629H49.525V51.4379H34.275V55.2379ZM34.275 13.3379H45.7V17.1379H34.275V13.3379ZM30.475 43.8129H34.275V47.6129H30.475V43.8129ZM30.475 36.1879H34.275V40.0129H30.475V36.1879ZM26.65 17.1379H34.275V20.9629H26.65V17.1379ZM26.65 40.0129H30.475V43.8129H26.65V40.0129ZM22.85 43.8129H26.65V47.6129H22.85V43.8129ZM22.85 36.1879H26.65V40.0129H22.85V36.1879ZM22.85 20.9629H26.65V24.7629H22.85V20.9629ZM19.05 24.7629H22.85V32.3879H19.05V24.7629ZM7.625 32.3879H19.05V36.1879H7.625V32.3879ZM3.8 59.0629H7.625V62.8629H3.8V59.0629ZM3.8 36.1879H7.625V40.0129H3.8V36.1879ZM0 40.0129H3.8V59.0629H0V40.0129Z" fill="#54BDB4"/>
</svg>
