<svg width="10" height="35" viewBox="0 0 10 35" fill="none" xmlns="http://www.w3.org/2000/svg">
<path d="M1.5 13.5L1.99732 13.5517L1.5 13.5ZM7.88572 34.4868C8.15455 34.5499 8.42365 34.3831 8.48676 34.1143L9.51527 29.7334C9.57839 29.4646 9.41162 29.1955 9.14279 29.1323C8.87396 29.0692 8.60486 29.236 8.54174 29.5048L7.62751 33.399L3.73339 32.4847C3.46456 32.4216 3.19546 32.5884 3.13235 32.8572C3.06923 33.126 3.236 33.3951 3.50483 33.4583L7.88572 34.4868ZM4.55647 1C4.08588 0.83104 4.08588 0.831054 4.08587 0.831071C4.08587 0.831079 4.08586 0.831098 4.08586 0.831115C4.08584 0.831148 4.08583 0.831191 4.08581 0.831242C4.08577 0.831345 4.08572 0.831483 4.08566 0.831655C4.08554 0.832 4.08537 0.832484 4.08514 0.833108C4.0847 0.834354 4.08405 0.836156 4.08321 0.838507C4.08153 0.843208 4.07907 0.850107 4.07586 0.859154C4.06943 0.877248 4.05999 0.903939 4.04773 0.938842C4.02321 1.00865 3.98744 1.11131 3.94206 1.24376C3.8513 1.50864 3.72206 1.89276 3.56748 2.37153L4.04329 2.52515L4.51911 2.67877C4.67168 2.20622 4.79903 1.82777 4.88807 1.5679C4.93258 1.43798 4.96752 1.33773 4.99123 1.27021C5.00309 1.23645 5.01214 1.21088 5.01818 1.19388C5.0212 1.18537 5.02346 1.17901 5.02495 1.17485C5.0257 1.17276 5.02625 1.17123 5.0266 1.17024C5.02677 1.16975 5.0269 1.1694 5.02698 1.16918C5.02702 1.16908 5.02704 1.169 5.02706 1.16897C5.02706 1.16895 5.02707 1.16894 5.02707 1.16894C5.02707 1.16894 5.02706 1.16894 5.02706 1.16894C5.02706 1.16895 5.02706 1.16896 4.55647 1ZM3.11491 5.61414L2.63323 5.48004C2.36253 6.45241 2.08579 7.52102 1.83449 8.62713L2.32207 8.7379L2.80964 8.84867C3.05673 7.76109 3.32933 6.70829 3.5966 5.74823L3.11491 5.61414ZM1.70911 11.9021L1.21504 11.8254C1.13012 12.3719 1.05808 12.9151 1.00268 13.4483L1.5 13.5L1.99732 13.5517C2.05075 13.0375 2.12049 12.5111 2.20318 11.9789L1.70911 11.9021ZM1.5 13.5L1.00268 13.4483C0.93896 14.0615 0.916299 14.6887 0.928754 15.3243L1.42866 15.3145L1.92856 15.3047C1.91682 14.7055 1.93831 14.1196 1.99732 13.5517L1.5 13.5ZM1.83378 18.9238L1.34283 19.0185C1.57455 20.2198 1.8899 21.4226 2.25557 22.5952L2.73289 22.4464L3.21022 22.2975C2.85354 21.1537 2.54817 19.9875 2.32473 18.8291L1.83378 18.9238ZM3.96055 25.8694L3.49672 26.0561C3.98234 27.2627 4.49053 28.3954 4.97656 29.4111L5.42757 29.1952L5.87859 28.9794C5.40022 27.9798 4.90088 26.8666 4.42439 25.6827L3.96055 25.8694ZM7.09148 32.427L6.65393 32.6689C6.93122 33.1704 7.16061 33.5676 7.32108 33.84C7.40132 33.9763 7.46435 34.0814 7.50754 34.1528C7.52913 34.1885 7.54577 34.2158 7.55712 34.2343C7.5628 34.2436 7.56715 34.2507 7.57015 34.2555C7.57164 34.258 7.5728 34.2598 7.57361 34.2611C7.57401 34.2618 7.57433 34.2623 7.57456 34.2627C7.57468 34.2629 7.57477 34.263 7.57485 34.2631C7.57488 34.2632 7.57491 34.2633 7.57494 34.2633C7.57495 34.2633 7.57496 34.2633 7.57497 34.2633C7.57498 34.2634 7.575 34.2634 8 34C8.425 33.7366 8.42501 33.7366 8.42502 33.7366C8.42502 33.7366 8.42503 33.7367 8.42503 33.7367C8.42503 33.7367 8.42503 33.7367 8.42502 33.7366C8.42501 33.7366 8.42497 33.7366 8.42491 33.7365C8.42479 33.7363 8.42459 33.7359 8.4243 33.7355C8.42372 33.7345 8.42279 33.733 8.42153 33.731C8.419 33.7269 8.41511 33.7206 8.4099 33.7121C8.39949 33.695 8.38381 33.6693 8.36318 33.6352C8.32194 33.5671 8.26092 33.4653 8.18276 33.3326C8.02643 33.0671 7.80156 32.6778 7.52903 32.185L7.09148 32.427ZM1.5 13.5L1.99732 13.5517L1.5 13.5ZM7.88572 34.4868C8.15455 34.5499 8.42365 34.3831 8.48676 34.1143L9.51527 29.7334C9.57839 29.4646 9.41162 29.1955 9.14279 29.1323C8.87396 29.0692 8.60486 29.236 8.54174 29.5048L7.62751 33.399L3.73339 32.4847C3.46456 32.4216 3.19546 32.5884 3.13235 32.8572C3.06923 33.126 3.236 33.3951 3.50483 33.4583L7.88572 34.4868ZM4.55647 1C4.08588 0.83104 4.08588 0.831054 4.08587 0.831071C4.08587 0.831079 4.08586 0.831098 4.08586 0.831115C4.08584 0.831148 4.08583 0.831191 4.08581 0.831242C4.08577 0.831345 4.08572 0.831483 4.08566 0.831655C4.08554 0.832 4.08537 0.832484 4.08514 0.833108C4.0847 0.834354 4.08405 0.836156 4.08321 0.838507C4.08153 0.843208 4.07907 0.850107 4.07586 0.859154C4.06943 0.877248 4.05999 0.903939 4.04773 0.938842C4.02321 1.00865 3.98744 1.11131 3.94206 1.24376C3.8513 1.50864 3.72206 1.89276 3.56748 2.37153L4.04329 2.52515L4.51911 2.67877C4.67168 2.20622 4.79903 1.82777 4.88807 1.5679C4.93258 1.43798 4.96752 1.33773 4.99123 1.27021C5.00309 1.23645 5.01214 1.21088 5.01818 1.19388C5.0212 1.18537 5.02346 1.17901 5.02495 1.17485C5.0257 1.17276 5.02625 1.17123 5.0266 1.17024C5.02677 1.16975 5.0269 1.1694 5.02698 1.16918C5.02702 1.16908 5.02704 1.169 5.02706 1.16897C5.02706 1.16895 5.02707 1.16894 5.02707 1.16894C5.02707 1.16894 5.02706 1.16894 5.02706 1.16894C5.02706 1.16895 5.02706 1.16896 4.55647 1ZM3.11491 5.61414L2.63323 5.48004C2.36253 6.45241 2.08579 7.52102 1.83449 8.62713L2.32207 8.7379L2.80964 8.84867C3.05673 7.76109 3.32933 6.70829 3.5966 5.74823L3.11491 5.61414ZM1.70911 11.9021L1.21504 11.8254C1.13012 12.3719 1.05808 12.9151 1.00268 13.4483L1.5 13.5L1.99732 13.5517C2.05075 13.0375 2.12049 12.5111 2.20318 11.9789L1.70911 11.9021ZM1.5 13.5L1.00268 13.4483C0.93896 14.0615 0.916299 14.6887 0.928754 15.3243L1.42866 15.3145L1.92856 15.3047C1.91682 14.7055 1.93831 14.1196 1.99732 13.5517L1.5 13.5ZM1.83378 18.9238L1.34283 19.0185C1.57455 20.2198 1.8899 21.4226 2.25557 22.5952L2.73289 22.4464L3.21022 22.2975C2.85354 21.1537 2.54817 19.9875 2.32473 18.8291L1.83378 18.9238ZM3.96055 25.8694L3.49672 26.0561C3.98234 27.2627 4.49053 28.3954 4.97656 29.4111L5.42757 29.1952L5.87859 28.9794C5.40022 27.9798 4.90088 26.8666 4.42439 25.6827L3.96055 25.8694ZM7.09148 32.427L6.65393 32.6689C6.93122 33.1704 7.16061 33.5676 7.32108 33.84C7.40132 33.9763 7.46435 34.0814 7.50754 34.1528C7.52913 34.1885 7.54577 34.2158 7.55712 34.2343C7.5628 34.2436 7.56715 34.2507 7.57015 34.2555C7.57164 34.258 7.5728 34.2598 7.57361 34.2611C7.57401 34.2618 7.57433 34.2623 7.57456 34.2627C7.57468 34.2629 7.57477 34.263 7.57485 34.2631C7.57488 34.2632 7.57491 34.2633 7.57494 34.2633C7.57495 34.2633 7.57496 34.2633 7.57497 34.2633C7.57498 34.2634 7.575 34.2634 8 34C8.425 33.7366 8.42501 33.7366 8.42502 33.7366C8.42502 33.7366 8.42503 33.7367 8.42503 33.7367C8.42503 33.7367 8.42503 33.7367 8.42502 33.7366C8.42501 33.7366 8.42497 33.7366 8.42491 33.7365C8.42479 33.7363 8.42459 33.7359 8.4243 33.7355C8.42372 33.7345 8.42279 33.733 8.42153 33.731C8.419 33.7269 8.41511 33.7206 8.4099 33.7121C8.39949 33.695 8.38381 33.6693 8.36318 33.6352C8.32194 33.5671 8.26092 33.4653 8.18276 33.3326C8.02643 33.0671 7.80156 32.6778 7.52903 32.185L7.09148 32.427Z" fill="white"/>
</svg>
