<svg width="38" height="20" viewBox="0 0 38 20" fill="none" xmlns="http://www.w3.org/2000/svg">
<path d="M32.2192 6.07853L31.8771 5.71381L32.2192 6.07853ZM37.9866 1.15459C37.9955 0.878592 37.7789 0.647666 37.5029 0.638805L33.0052 0.494395C32.7292 0.485532 32.4983 0.70209 32.4895 0.97809C32.4806 1.25409 32.6972 1.48502 32.9732 1.49388L36.9711 1.62224L36.8427 5.62018C36.8339 5.89618 37.0504 6.12711 37.3264 6.13597C37.6024 6.14483 37.8334 5.92827 37.8422 5.65227L37.9866 1.15459ZM0.614746 19.3745L0.636312 19.874C1.37402 19.8422 2.1095 19.794 2.84228 19.7297L2.79858 19.2317L2.75488 18.7336C2.03682 18.7966 1.31609 18.8438 0.59318 18.875L0.614746 19.3745ZM7.13647 18.6562L7.22416 19.1484C8.67826 18.8894 10.1173 18.5663 11.5372 18.1808L11.4062 17.6983L11.2752 17.2157C9.88381 17.5935 8.47368 17.9101 7.04878 18.1639L7.13647 18.6562ZM15.5742 16.3656L15.7475 16.8346C17.1303 16.3238 18.4898 15.7519 19.8219 15.1205L19.6077 14.6687L19.3936 14.2169C18.0882 14.8355 16.756 15.396 15.401 15.8966L15.5742 16.3656ZM23.4749 12.621L23.7282 13.052C24.9967 12.3065 26.2339 11.5037 27.4359 10.6453L27.1453 10.2384L26.8547 9.83154C25.6769 10.6727 24.4645 11.4593 23.2215 12.1899L23.4749 12.621ZM30.59 7.5398L30.9155 7.91933C31.4739 7.44044 32.0226 6.94834 32.5612 6.44324L32.2192 6.07853L31.8771 5.71381C31.3493 6.20877 30.8116 6.691 30.2645 7.16028L30.59 7.5398ZM32.2192 6.07853L32.5612 6.44324L33.8781 5.20825L33.5361 4.84353L33.1941 4.47881L31.8771 5.71381L32.2192 6.07853ZM36.17 2.37354L36.512 2.73826L37.8289 1.50326L37.4869 1.13855L37.1449 0.773831L35.8279 2.00882L36.17 2.37354ZM32.2192 6.07853L31.8771 5.71381L32.2192 6.07853ZM37.9866 1.15459C37.9955 0.878592 37.7789 0.647666 37.5029 0.638805L33.0052 0.494395C32.7292 0.485532 32.4983 0.70209 32.4895 0.97809C32.4806 1.25409 32.6972 1.48502 32.9732 1.49388L36.9711 1.62224L36.8427 5.62018C36.8339 5.89618 37.0504 6.12711 37.3264 6.13597C37.6024 6.14483 37.8334 5.92827 37.8422 5.65227L37.9866 1.15459ZM0.614746 19.3745L0.636312 19.874C1.37402 19.8422 2.1095 19.794 2.84228 19.7297L2.79858 19.2317L2.75488 18.7336C2.03682 18.7966 1.31609 18.8438 0.59318 18.875L0.614746 19.3745ZM7.13647 18.6562L7.22416 19.1484C8.67826 18.8894 10.1173 18.5663 11.5372 18.1808L11.4062 17.6983L11.2752 17.2157C9.88381 17.5935 8.47368 17.9101 7.04878 18.1639L7.13647 18.6562ZM15.5742 16.3656L15.7475 16.8346C17.1303 16.3238 18.4898 15.7519 19.8219 15.1205L19.6077 14.6687L19.3936 14.2169C18.0882 14.8355 16.756 15.396 15.401 15.8966L15.5742 16.3656ZM23.4749 12.621L23.7282 13.052C24.9967 12.3065 26.2339 11.5037 27.4359 10.6453L27.1453 10.2384L26.8547 9.83154C25.6769 10.6727 24.4645 11.4593 23.2215 12.1899L23.4749 12.621ZM30.59 7.5398L30.9155 7.91933C31.4739 7.44044 32.0226 6.94834 32.5612 6.44324L32.2192 6.07853L31.8771 5.71381C31.3493 6.20877 30.8116 6.691 30.2645 7.16028L30.59 7.5398ZM32.2192 6.07853L32.5612 6.44324L33.8781 5.20825L33.5361 4.84353L33.1941 4.47881L31.8771 5.71381L32.2192 6.07853ZM36.17 2.37354L36.512 2.73826L37.8289 1.50326L37.4869 1.13855L37.1449 0.773831L35.8279 2.00882L36.17 2.37354Z" fill="white"/>
</svg>
