<svg width="15" height="121" viewBox="0 0 15 121" fill="none" xmlns="http://www.w3.org/2000/svg">
<path d="M10.4126 30.1536L9.92476 30.2633L10.4126 30.1536ZM4.12217 0.577524C3.88882 0.429872 3.57995 0.499348 3.4323 0.732704L1.02619 4.53542C0.87854 4.76877 0.948016 5.07763 1.18137 5.22528C1.41472 5.37294 1.72359 5.30346 1.87124 5.07011L4.01 1.68992L7.39019 3.82868C7.62355 3.97633 7.93241 3.90686 8.08006 3.6735C8.22771 3.44015 8.15824 3.13129 7.92488 2.98363L4.12217 0.577524ZM0.484008 120.415L0.936305 120.628C1.2113 120.045 1.4821 119.46 1.74872 118.873L1.29353 118.666L0.838341 118.459C0.573623 119.042 0.304744 119.623 0.0317107 120.202L0.484008 120.415ZM2.83925 115.137L3.29997 115.331C3.80136 114.142 4.28583 112.947 4.75335 111.747L4.28745 111.566L3.82155 111.384C3.35737 112.576 2.87635 113.762 2.37853 114.943L2.83925 115.137ZM5.63651 107.956L6.10724 108.125C6.54215 106.91 6.95996 105.691 7.36063 104.467L6.88544 104.311L6.41024 104.156C6.01244 105.371 5.5976 106.582 5.16579 107.788L5.63651 107.956ZM8.03357 100.633L8.51287 100.775C8.88014 99.5386 9.23014 98.2978 9.56282 97.0532L9.07977 96.924L8.59673 96.7949C8.26642 98.0308 7.91892 99.2627 7.55427 100.49L8.03357 100.633ZM10.0233 93.1882L10.5097 93.304C10.8082 92.0494 11.0893 90.7912 11.353 89.5297L10.8635 89.4274L10.3741 89.3252C10.1124 90.5776 9.83326 91.8268 9.53687 93.0725L10.0233 93.1882ZM11.5998 85.6451L12.0918 85.7339C12.3207 84.465 12.532 83.1933 12.7258 81.9191L12.2315 81.844L11.7372 81.7688C11.5448 83.0339 11.335 84.2965 11.1077 85.5563L11.5998 85.6451ZM12.7582 78.0268L13.2544 78.0883C13.413 76.809 13.554 75.5275 13.6772 74.2443L13.1795 74.1965L12.6818 74.1487C12.5594 75.4228 12.4195 76.6951 12.262 77.9652L12.7582 78.0268ZM13.4951 70.3561L13.994 70.3902C14.0818 69.1043 14.1519 67.8171 14.2043 66.5288L13.7048 66.5085L13.2052 66.4882C13.1531 67.7673 13.0835 69.0453 12.9963 70.322L13.4951 70.3561ZM13.8083 62.6566L14.3082 62.6631C14.3251 61.3745 14.3242 60.0853 14.3055 58.7958L13.8056 58.8031L13.3056 58.8103C13.3242 60.0906 13.3251 61.3706 13.3083 62.65L13.8083 62.6566ZM13.6967 54.9515L14.1962 54.9305C14.142 53.6432 14.0701 52.3561 13.9804 51.0694L13.4816 51.1041L12.9828 51.1389C13.0719 52.4165 13.1433 53.6944 13.1971 54.9725L13.6967 54.9515ZM13.1605 47.2639L13.6581 47.2154C13.5331 45.9335 13.3904 44.6524 13.2298 43.3724L12.7337 43.4346L12.2376 43.4969C12.397 44.7677 12.5387 46.0397 12.6629 47.3125L13.1605 47.2639ZM12.2015 39.6182L12.6957 39.5423C12.5002 38.2693 12.2871 36.9977 12.0561 35.728L11.5642 35.8175L11.0723 35.907C11.3016 37.1676 11.5132 38.4301 11.7073 39.6941L12.2015 39.6182ZM10.8226 32.0367L11.3118 31.9337C11.1791 31.3032 11.042 30.6732 10.9004 30.0438L10.4126 30.1536L9.92476 30.2633C10.0653 30.8882 10.2015 31.5137 10.3333 32.1397L10.8226 32.0367ZM10.4126 30.1536L10.9004 30.0438L10.4905 28.2217L10.0027 28.3315L9.5149 28.4412L9.92476 30.2633L10.4126 30.1536ZM9.183 24.6873L9.67081 24.5776L8.85109 20.9334L8.36328 21.0431L7.87547 21.1528L8.69519 24.797L9.183 24.6873ZM7.54356 17.3989L8.03137 17.2892L7.21165 13.645L6.72384 13.7547L6.23603 13.8644L7.05575 17.5086L7.54356 17.3989ZM5.90412 10.1105L6.39193 10.0008L5.57221 6.3566L5.0844 6.46633L4.59659 6.57606L5.41631 10.2203L5.90412 10.1105ZM4.26468 2.82214L4.7525 2.71242L4.34264 0.89032L3.85482 1.00005L3.36701 1.10978L3.77687 2.93187L4.26468 2.82214ZM10.4126 30.1536L9.92476 30.2633L10.4126 30.1536ZM4.12217 0.577524C3.88882 0.429872 3.57995 0.499348 3.4323 0.732704L1.02619 4.53542C0.87854 4.76877 0.948016 5.07763 1.18137 5.22528C1.41472 5.37294 1.72359 5.30346 1.87124 5.07011L4.01 1.68992L7.39019 3.82868C7.62355 3.97633 7.93241 3.90686 8.08006 3.6735C8.22771 3.44015 8.15824 3.13129 7.92488 2.98363L4.12217 0.577524ZM0.484008 120.415L0.936305 120.628C1.2113 120.045 1.4821 119.46 1.74872 118.873L1.29353 118.666L0.838341 118.459C0.573623 119.042 0.304744 119.623 0.0317107 120.202L0.484008 120.415ZM2.83925 115.137L3.29997 115.331C3.80136 114.142 4.28583 112.947 4.75335 111.747L4.28745 111.566L3.82155 111.384C3.35737 112.576 2.87635 113.762 2.37853 114.943L2.83925 115.137ZM5.63651 107.956L6.10724 108.125C6.54215 106.91 6.95996 105.691 7.36063 104.467L6.88544 104.311L6.41024 104.156C6.01244 105.371 5.5976 106.582 5.16579 107.788L5.63651 107.956ZM8.03357 100.633L8.51287 100.775C8.88014 99.5386 9.23014 98.2978 9.56282 97.0532L9.07977 96.924L8.59673 96.7949C8.26642 98.0308 7.91892 99.2627 7.55427 100.49L8.03357 100.633ZM10.0233 93.1882L10.5097 93.304C10.8082 92.0494 11.0893 90.7912 11.353 89.5297L10.8635 89.4274L10.3741 89.3252C10.1124 90.5776 9.83326 91.8268 9.53687 93.0725L10.0233 93.1882ZM11.5998 85.6451L12.0918 85.7339C12.3207 84.465 12.532 83.1933 12.7258 81.9191L12.2315 81.844L11.7372 81.7688C11.5448 83.0339 11.335 84.2965 11.1077 85.5563L11.5998 85.6451ZM12.7582 78.0268L13.2544 78.0883C13.413 76.809 13.554 75.5275 13.6772 74.2443L13.1795 74.1965L12.6818 74.1487C12.5594 75.4228 12.4195 76.6951 12.262 77.9652L12.7582 78.0268ZM13.4951 70.3561L13.994 70.3902C14.0818 69.1043 14.1519 67.8171 14.2043 66.5288L13.7048 66.5085L13.2052 66.4882C13.1531 67.7673 13.0835 69.0453 12.9963 70.322L13.4951 70.3561ZM13.8083 62.6566L14.3082 62.6631C14.3251 61.3745 14.3242 60.0853 14.3055 58.7958L13.8056 58.8031L13.3056 58.8103C13.3242 60.0906 13.3251 61.3706 13.3083 62.65L13.8083 62.6566ZM13.6967 54.9515L14.1962 54.9305C14.142 53.6432 14.0701 52.3561 13.9804 51.0694L13.4816 51.1041L12.9828 51.1389C13.0719 52.4165 13.1433 53.6944 13.1971 54.9725L13.6967 54.9515ZM13.1605 47.2639L13.6581 47.2154C13.5331 45.9335 13.3904 44.6524 13.2298 43.3724L12.7337 43.4346L12.2376 43.4969C12.397 44.7677 12.5387 46.0397 12.6629 47.3125L13.1605 47.2639ZM12.2015 39.6182L12.6957 39.5423C12.5002 38.2693 12.2871 36.9977 12.0561 35.728L11.5642 35.8175L11.0723 35.907C11.3016 37.1676 11.5132 38.4301 11.7073 39.6941L12.2015 39.6182ZM10.8226 32.0367L11.3118 31.9337C11.1791 31.3032 11.042 30.6732 10.9004 30.0438L10.4126 30.1536L9.92476 30.2633C10.0653 30.8882 10.2015 31.5137 10.3333 32.1397L10.8226 32.0367ZM10.4126 30.1536L10.9004 30.0438L10.4905 28.2217L10.0027 28.3315L9.5149 28.4412L9.92476 30.2633L10.4126 30.1536ZM9.183 24.6873L9.67081 24.5776L8.85109 20.9334L8.36328 21.0431L7.87547 21.1528L8.69519 24.797L9.183 24.6873ZM7.54356 17.3989L8.03137 17.2892L7.21165 13.645L6.72384 13.7547L6.23603 13.8644L7.05575 17.5086L7.54356 17.3989ZM5.90412 10.1105L6.39193 10.0008L5.57221 6.3566L5.0844 6.46633L4.59659 6.57606L5.41631 10.2203L5.90412 10.1105ZM4.26468 2.82214L4.7525 2.71242L4.34264 0.89032L3.85482 1.00005L3.36701 1.10978L3.77687 2.93187L4.26468 2.82214Z" fill="white"/>
</svg>
