<svg viewBox="0 0 11 103" fill="none" xmlns="http://www.w3.org/2000/svg">
<path d="M9.92065 63.7424L9.42097 63.7244L9.92065 63.7424ZM3.27111 0.57988C3.03908 0.430153 2.72961 0.496872 2.57988 0.728897L0.139964 4.51001C-0.00976137 4.74203 0.0569579 5.05151 0.288986 5.20123C0.521013 5.35096 0.830486 5.28424 0.980211 5.05222L3.14903 1.69122L6.51001 3.86004C6.74204 4.00977 7.05151 3.94305 7.20124 3.71102C7.35097 3.47899 7.28425 3.16952 7.05222 3.01979L3.27111 0.57988ZM6.66638 102C7.16252 102.062 7.16252 102.062 7.16252 102.062C7.16252 102.062 7.16253 102.062 7.16253 102.062C7.16253 102.062 7.16253 102.062 7.16254 102.062C7.16255 102.062 7.16257 102.062 7.16259 102.061C7.16263 102.061 7.1627 102.061 7.16278 102.06C7.16295 102.059 7.1632 102.057 7.16354 102.054C7.1642 102.048 7.16519 102.041 7.1665 102.03C7.16913 102.009 7.17302 101.977 7.17815 101.936C7.18839 101.853 7.20352 101.729 7.22313 101.568C7.26235 101.245 7.31946 100.77 7.3911 100.161L6.89452 100.103L6.39794 100.044C6.32647 100.652 6.26951 101.126 6.23043 101.447C6.21089 101.608 6.19583 101.731 6.18565 101.813C6.18057 101.855 6.1767 101.886 6.17411 101.907C6.17282 101.917 6.17185 101.925 6.1712 101.93C6.17087 101.933 6.17063 101.935 6.17047 101.936C6.17039 101.937 6.17033 101.937 6.17029 101.938C6.17027 101.938 6.17025 101.938 6.17024 101.938C6.17024 101.938 6.17024 101.938 6.17023 101.938C6.17023 101.938 6.17023 101.938 6.17023 101.938C6.17023 101.938 6.17023 101.938 6.66638 102ZM7.32939 96.2854L7.82636 96.3403C7.95264 95.1979 8.09123 93.9145 8.23691 92.518L7.73961 92.4662L7.2423 92.4143C7.09685 93.8085 6.95848 95.0899 6.83241 96.2305L7.32939 96.2854ZM8.12656 88.6439L8.62417 88.6927C8.74459 87.4655 8.8666 86.1839 8.98772 84.8613L8.4898 84.8157L7.99188 84.7701C7.87098 86.0904 7.74917 87.3698 7.62895 88.595L8.12656 88.6439ZM8.82663 80.9918L9.32485 81.0339C9.43113 79.7758 9.53475 78.4943 9.63384 77.1995L9.1353 77.1614L8.63676 77.1232C8.53788 78.4152 8.43448 79.694 8.3284 80.9497L8.82663 80.9918ZM9.41152 73.3302L9.91038 73.3638C9.99667 72.0842 10.0769 70.8013 10.1494 69.5242L9.65019 69.4959L9.15099 69.4676C9.07874 70.7408 8.99872 72.0202 8.91265 73.2965L9.41152 73.3302ZM9.84387 65.6599L10.3434 65.6818C10.3716 65.0369 10.3973 64.3961 10.4203 63.7605L9.92065 63.7424L9.42097 63.7244C9.3981 64.3573 9.37248 64.9956 9.34434 65.638L9.84387 65.6599ZM9.92065 63.7424L10.4203 63.7605C10.444 63.1065 10.4621 62.4464 10.4751 61.7807L9.97522 61.771L9.47532 61.7612C9.46244 62.4216 9.4444 63.0762 9.42097 63.7244L9.92065 63.7424ZM9.99362 57.818L10.4936 57.8133C10.4814 56.5044 10.4521 55.1804 10.4074 53.8463L9.90771 53.863L9.40799 53.8797C9.45241 55.2064 9.48154 56.5223 9.49364 57.8226L9.99362 57.818ZM9.73362 49.9137L10.2329 49.8866C10.1616 48.5716 10.0775 47.2515 9.98207 45.931L9.48337 45.967L8.98467 46.0031C9.07967 47.3179 9.16344 48.632 9.23435 49.9407L9.73362 49.9137ZM9.16645 42.0251L9.66452 41.9812C9.54803 40.6611 9.4219 39.3453 9.28779 38.0383L8.79041 38.0893L8.29302 38.1404C8.42666 39.4429 8.55234 40.754 8.66839 42.0691L9.16645 42.0251ZM8.36092 34.1574L8.85761 34.0999C8.70425 32.7739 8.54418 31.4624 8.37925 30.1704L7.88327 30.2337L7.3873 30.297C7.55176 31.5853 7.71135 32.8929 7.86423 34.2148L8.36092 34.1574ZM7.36031 26.3109L7.85556 26.2421C7.67024 24.9074 7.4815 23.6011 7.2916 22.3297L6.79709 22.4035L6.30257 22.4774C6.49199 23.7456 6.68024 25.0485 6.86506 26.3796L7.36031 26.3109ZM6.19292 18.4914L6.68668 18.4127C6.46973 17.0521 6.25436 15.7456 6.04395 14.5026L5.55096 14.5861L5.05798 14.6695C5.26789 15.9095 5.48273 17.2128 5.69915 18.5701L6.19292 18.4914ZM4.8726 10.6918L5.36476 10.6036C5.10807 9.17071 4.86637 7.86562 4.6473 6.70972L4.15605 6.80283L3.66479 6.89594C3.88328 8.04874 4.12437 9.35054 4.38043 10.78L4.8726 10.6918ZM3.39623 2.91544L3.88633 2.8164C3.76106 2.19649 3.66177 1.71652 3.59375 1.3913C3.55974 1.22868 3.53355 1.10476 3.51583 1.02136C3.50698 0.979668 3.50024 0.948097 3.4957 0.926903C3.49343 0.916298 3.49171 0.908295 3.49055 0.902901C3.48998 0.900208 3.48954 0.89817 3.48924 0.89679C3.48909 0.896095 3.48898 0.895569 3.4889 0.89521C3.48886 0.895035 3.48883 0.89489 3.48881 0.894798C3.4888 0.894745 3.48879 0.894707 3.48879 0.894676C3.48878 0.894669 3.48878 0.894653 3.48878 0.894646C3.48878 0.89463 3.48877 0.894623 3 1C2.51123 1.10538 2.51123 1.10537 2.51123 1.10537C2.51123 1.10538 2.51123 1.10538 2.51124 1.10538C2.51124 1.10539 2.51124 1.10542 2.51125 1.10545C2.51127 1.10552 2.51129 1.10563 2.51132 1.10578C2.51139 1.10608 2.51149 1.10654 2.51162 1.10718C2.51189 1.10844 2.51231 1.11035 2.51286 1.11293C2.51396 1.11807 2.51563 1.12584 2.51785 1.13619C2.52228 1.1569 2.52891 1.18797 2.53766 1.22916C2.55517 1.31155 2.58114 1.43446 2.61493 1.59601C2.68251 1.91913 2.78134 2.39688 2.90614 3.01447L3.39623 2.91544ZM9.92065 63.7424L9.42097 63.7244L9.92065 63.7424ZM3.27111 0.57988C3.03908 0.430153 2.72961 0.496872 2.57988 0.728897L0.139964 4.51001C-0.00976137 4.74203 0.0569579 5.05151 0.288986 5.20123C0.521013 5.35096 0.830486 5.28424 0.980211 5.05222L3.14903 1.69122L6.51001 3.86004C6.74204 4.00977 7.05151 3.94305 7.20124 3.71102C7.35097 3.47899 7.28425 3.16952 7.05222 3.01979L3.27111 0.57988ZM6.66638 102C7.16252 102.062 7.16252 102.062 7.16252 102.062C7.16252 102.062 7.16253 102.062 7.16253 102.062C7.16253 102.062 7.16253 102.062 7.16254 102.062C7.16255 102.062 7.16257 102.062 7.16259 102.061C7.16263 102.061 7.1627 102.061 7.16278 102.06C7.16295 102.059 7.1632 102.057 7.16354 102.054C7.1642 102.048 7.16519 102.041 7.1665 102.03C7.16913 102.009 7.17302 101.977 7.17815 101.936C7.18839 101.853 7.20352 101.729 7.22313 101.568C7.26235 101.245 7.31946 100.77 7.3911 100.161L6.89452 100.103L6.39794 100.044C6.32647 100.652 6.26951 101.126 6.23043 101.447C6.21089 101.608 6.19583 101.731 6.18565 101.813C6.18057 101.855 6.1767 101.886 6.17411 101.907C6.17282 101.917 6.17185 101.925 6.1712 101.93C6.17087 101.933 6.17063 101.935 6.17047 101.936C6.17039 101.937 6.17033 101.937 6.17029 101.938C6.17027 101.938 6.17025 101.938 6.17024 101.938C6.17024 101.938 6.17024 101.938 6.17023 101.938C6.17023 101.938 6.17023 101.938 6.17023 101.938C6.17023 101.938 6.17023 101.938 6.66638 102ZM7.32939 96.2854L7.82636 96.3403C7.95264 95.1979 8.09123 93.9145 8.23691 92.518L7.73961 92.4662L7.2423 92.4143C7.09685 93.8085 6.95848 95.0899 6.83241 96.2305L7.32939 96.2854ZM8.12656 88.6439L8.62417 88.6927C8.74459 87.4655 8.8666 86.1839 8.98772 84.8613L8.4898 84.8157L7.99188 84.7701C7.87098 86.0904 7.74917 87.3698 7.62895 88.595L8.12656 88.6439ZM8.82663 80.9918L9.32485 81.0339C9.43113 79.7758 9.53475 78.4943 9.63384 77.1995L9.1353 77.1614L8.63676 77.1232C8.53788 78.4152 8.43448 79.694 8.3284 80.9497L8.82663 80.9918ZM9.41152 73.3302L9.91038 73.3638C9.99667 72.0842 10.0769 70.8013 10.1494 69.5242L9.65019 69.4959L9.15099 69.4676C9.07874 70.7408 8.99872 72.0202 8.91265 73.2965L9.41152 73.3302ZM9.84387 65.6599L10.3434 65.6818C10.3716 65.0369 10.3973 64.3961 10.4203 63.7605L9.92065 63.7424L9.42097 63.7244C9.3981 64.3573 9.37248 64.9956 9.34434 65.638L9.84387 65.6599ZM9.92065 63.7424L10.4203 63.7605C10.444 63.1065 10.4621 62.4464 10.4751 61.7807L9.97522 61.771L9.47532 61.7612C9.46244 62.4216 9.4444 63.0762 9.42097 63.7244L9.92065 63.7424ZM9.99362 57.818L10.4936 57.8133C10.4814 56.5044 10.4521 55.1804 10.4074 53.8463L9.90771 53.863L9.40799 53.8797C9.45241 55.2064 9.48154 56.5223 9.49364 57.8226L9.99362 57.818ZM9.73362 49.9137L10.2329 49.8866C10.1616 48.5716 10.0775 47.2515 9.98207 45.931L9.48337 45.967L8.98467 46.0031C9.07967 47.3179 9.16344 48.632 9.23435 49.9407L9.73362 49.9137ZM9.16645 42.0251L9.66452 41.9812C9.54803 40.6611 9.4219 39.3453 9.28779 38.0383L8.79041 38.0893L8.29302 38.1404C8.42666 39.4429 8.55234 40.754 8.66839 42.0691L9.16645 42.0251ZM8.36092 34.1574L8.85761 34.0999C8.70425 32.7739 8.54418 31.4624 8.37925 30.1704L7.88327 30.2337L7.3873 30.297C7.55176 31.5853 7.71135 32.8929 7.86423 34.2148L8.36092 34.1574ZM7.36031 26.3109L7.85556 26.2421C7.67024 24.9074 7.4815 23.6011 7.2916 22.3297L6.79709 22.4035L6.30257 22.4774C6.49199 23.7456 6.68024 25.0485 6.86506 26.3796L7.36031 26.3109ZM6.19292 18.4914L6.68668 18.4127C6.46973 17.0521 6.25436 15.7456 6.04395 14.5026L5.55096 14.5861L5.05798 14.6695C5.26789 15.9095 5.48273 17.2128 5.69915 18.5701L6.19292 18.4914ZM4.8726 10.6918L5.36476 10.6036C5.10807 9.17071 4.86637 7.86562 4.6473 6.70972L4.15605 6.80283L3.66479 6.89594C3.88328 8.04874 4.12437 9.35054 4.38043 10.78L4.8726 10.6918ZM3.39623 2.91544L3.88633 2.8164C3.76106 2.19649 3.66177 1.71652 3.59375 1.3913C3.55974 1.22868 3.53355 1.10476 3.51583 1.02136C3.50698 0.979668 3.50024 0.948097 3.4957 0.926903C3.49343 0.916298 3.49171 0.908295 3.49055 0.902901C3.48998 0.900208 3.48954 0.89817 3.48924 0.89679C3.48909 0.896095 3.48898 0.895569 3.4889 0.89521C3.48886 0.895035 3.48883 0.89489 3.48881 0.894798C3.4888 0.894745 3.48879 0.894707 3.48879 0.894676C3.48878 0.894669 3.48878 0.894653 3.48878 0.894646C3.48878 0.89463 3.48877 0.894623 3 1C2.51123 1.10538 2.51123 1.10537 2.51123 1.10537C2.51123 1.10538 2.51123 1.10538 2.51124 1.10538C2.51124 1.10539 2.51124 1.10542 2.51125 1.10545C2.51127 1.10552 2.51129 1.10563 2.51132 1.10578C2.51139 1.10608 2.51149 1.10654 2.51162 1.10718C2.51189 1.10844 2.51231 1.11035 2.51286 1.11293C2.51396 1.11807 2.51563 1.12584 2.51785 1.13619C2.52228 1.1569 2.52891 1.18797 2.53766 1.22916C2.55517 1.31155 2.58114 1.43446 2.61493 1.59601C2.68251 1.91913 2.78134 2.39688 2.90614 3.01447L3.39623 2.91544Z" fill="white"/>
</svg>
