<svg viewBox="0 0 12 123" fill="none" xmlns="http://www.w3.org/2000/svg">
<path d="M1.07935 46.8333L0.57958 46.8183L1.07935 46.8333ZM7.71465 122.411C7.94141 122.568 8.25298 122.512 8.41058 122.285L10.9787 118.59C11.1363 118.363 11.0802 118.052 10.8535 117.894C10.6267 117.737 10.3151 117.793 10.1575 118.019L7.87476 121.304L4.5901 119.021C4.36334 118.864 4.05177 118.92 3.89417 119.147C3.73658 119.373 3.79265 119.685 4.01941 119.842L7.71465 122.411ZM4.33362 1C3.83632 0.948152 3.83632 0.948157 3.83632 0.948165C3.83632 0.948171 3.83632 0.948181 3.83632 0.948193C3.83631 0.948216 3.83631 0.94825 3.8363 0.948295C3.8363 0.948383 3.83628 0.948513 3.83626 0.948684C3.83623 0.949026 3.83618 0.949532 3.83611 0.950202C3.83597 0.951543 3.83576 0.953538 3.83548 0.956185C3.83493 0.961479 3.83411 0.969379 3.83303 0.979853C3.83086 1.0008 3.82763 1.03204 3.82337 1.07333C3.81487 1.15589 3.80228 1.27862 3.78593 1.43946C3.75323 1.76115 3.70546 2.2353 3.64517 2.84555L4.14275 2.89471L4.64033 2.94387C4.70052 2.3346 4.74819 1.8614 4.7808 1.54061C4.79711 1.38021 4.80965 1.25792 4.81811 1.17578C4.82234 1.13471 4.82555 1.10367 4.8277 1.08293C4.82877 1.07256 4.82958 1.06477 4.83012 1.05958C4.83039 1.05698 4.8306 1.05503 4.83073 1.05375C4.8308 1.0531 4.83085 1.05262 4.83088 1.0523C4.8309 1.05215 4.83091 1.05203 4.83092 1.05195C4.83092 1.05191 4.83092 1.05189 4.83093 1.05187C4.83093 1.05186 4.83093 1.05185 4.83093 1.05185C4.83093 1.05185 4.83093 1.05185 4.33362 1ZM3.77651 6.70672L3.27869 6.66012C3.17223 7.79725 3.05467 9.07805 2.92976 10.4782L3.42779 10.5227L3.92581 10.5671C4.05058 9.16845 4.16801 7.88911 4.27433 6.75333L3.77651 6.70672ZM3.0952 14.3426L2.59699 14.3003C2.4935 15.5188 2.38757 16.7957 2.2809 18.1198L2.77929 18.16L3.27768 18.2001C3.38422 16.8775 3.49003 15.6021 3.5934 14.3849L3.0952 14.3426ZM2.48048 21.9772L1.98191 21.9393C1.88715 23.1869 1.79306 24.4637 1.70086 25.7621L2.1996 25.7976L2.69835 25.833C2.79043 24.5363 2.88439 23.2611 2.97904 22.0151L2.48048 21.9772ZM1.93835 29.6197L1.43942 29.587C1.35643 30.852 1.27618 32.1297 1.1997 33.4135L1.69881 33.4432L2.19793 33.473C2.27428 32.1913 2.35441 30.9156 2.43728 29.6524L1.93835 29.6197ZM1.48373 37.2678L0.98442 37.2415C0.916953 38.5206 0.854195 39.7992 0.79715 41.0709L1.29665 41.0933L1.79615 41.1157C1.85306 39.8468 1.91569 38.5708 1.98303 37.2942L1.48373 37.2678ZM1.14231 44.9197L0.642626 44.9019C0.61979 45.5445 0.59873 46.1836 0.57958 46.8183L1.07935 46.8333L1.57912 46.8484C1.59822 46.2156 1.61922 45.5783 1.64199 44.9374L1.14231 44.9197ZM1.07935 46.8333L0.57958 46.8183C0.558644 47.5121 0.541993 48.2118 0.529447 48.9169L1.02937 48.9258L1.52929 48.9346C1.54176 48.2336 1.55832 47.538 1.57912 46.8484L1.07935 46.8333ZM1.00167 53.13L0.50167 53.132C0.507226 54.5202 0.526588 55.9235 0.55849 57.3378L1.05836 57.3266L1.55824 57.3153C1.52646 55.9067 1.50719 54.5096 1.50166 53.128L1.00167 53.13ZM1.1877 61.5264L0.688074 61.5457C0.742075 62.9419 0.806814 64.3446 0.881124 65.7499L1.38043 65.7235L1.87973 65.6971C1.80565 64.2962 1.74113 62.8982 1.68733 61.5071L1.1877 61.5264ZM1.62915 69.9164L1.13022 69.9491C1.22205 71.3501 1.32222 72.75 1.42958 74.1448L1.9281 74.1064L2.42663 74.068C2.31955 72.6768 2.21965 71.2807 2.12808 69.8837L1.62915 69.9164ZM2.27228 78.2908L1.77418 78.3344C1.89719 79.7421 2.02648 81.1405 2.16081 82.5255L2.65847 82.4772L3.15614 82.429C3.0221 81.0469 2.89311 79.6517 2.77039 78.2473L2.27228 78.2908ZM3.08255 86.6557L2.58534 86.7084C2.73496 88.1214 2.88874 89.5153 3.04529 90.8854L3.54206 90.8287L4.03882 90.7719C3.88258 89.4044 3.7291 88.0132 3.57977 86.6031L3.08255 86.6557ZM4.03597 95.0056L3.53966 95.0663C3.71356 96.4896 3.88901 97.8795 4.06426 99.2301L4.5601 99.1657L5.05595 99.1014C4.88101 97.7531 4.70587 96.3657 4.53228 94.945L4.03597 95.0056ZM5.11677 103.337L4.62141 103.405C4.82056 104.857 5.01696 106.249 5.20792 107.571L5.70279 107.5L6.19765 107.428C6.00701 106.108 5.81094 104.719 5.61213 103.269L5.11677 103.337ZM6.31826 111.656L5.82392 111.731C6.05641 113.262 6.27409 114.654 6.47074 115.885L6.96448 115.806L7.45823 115.728C7.26196 114.499 7.04467 113.109 6.81259 111.581L6.31826 111.656ZM7.64383 119.942L7.15085 120.026C7.26378 120.693 7.35297 121.208 7.41397 121.557C7.44447 121.731 7.46791 121.864 7.48375 121.953C7.49168 121.998 7.49769 122.032 7.50174 122.054C7.50376 122.066 7.5053 122.074 7.50632 122.08C7.50684 122.083 7.50723 122.085 7.50749 122.086C7.50762 122.087 7.50772 122.088 7.50779 122.088C7.50782 122.088 7.50785 122.088 7.50787 122.088C7.50788 122.088 7.50788 122.088 7.50789 122.089C7.50789 122.089 7.50789 122.089 7.5079 122.089C7.5079 122.089 7.5079 122.089 7.99999 122C8.49209 121.911 8.49209 121.911 8.49209 121.911C8.49209 121.911 8.49209 121.911 8.49209 121.911C8.49208 121.911 8.49208 121.911 8.49207 121.911C8.49206 121.911 8.49204 121.911 8.49201 121.911C8.49195 121.911 8.49186 121.91 8.49173 121.909C8.49149 121.908 8.49112 121.906 8.49062 121.903C8.48963 121.898 8.48813 121.889 8.48614 121.878C8.48217 121.856 8.47622 121.823 8.46837 121.778C8.45267 121.69 8.42937 121.558 8.39902 121.384C8.33832 121.037 8.24943 120.524 8.13681 119.859L7.64383 119.942ZM1.07935 46.8333L0.57958 46.8183L1.07935 46.8333ZM7.71465 122.411C7.94141 122.568 8.25298 122.512 8.41058 122.285L10.9787 118.59C11.1363 118.363 11.0802 118.052 10.8535 117.894C10.6267 117.737 10.3151 117.793 10.1575 118.019L7.87476 121.304L4.5901 119.021C4.36334 118.864 4.05177 118.92 3.89417 119.147C3.73658 119.373 3.79265 119.685 4.01941 119.842L7.71465 122.411ZM4.33362 1C3.83632 0.948152 3.83632 0.948157 3.83632 0.948165C3.83632 0.948171 3.83632 0.948181 3.83632 0.948193C3.83631 0.948216 3.83631 0.94825 3.8363 0.948295C3.8363 0.948383 3.83628 0.948513 3.83626 0.948684C3.83623 0.949026 3.83618 0.949532 3.83611 0.950202C3.83597 0.951543 3.83576 0.953538 3.83548 0.956185C3.83493 0.961479 3.83411 0.969379 3.83303 0.979853C3.83086 1.0008 3.82763 1.03204 3.82337 1.07333C3.81487 1.15589 3.80228 1.27862 3.78593 1.43946C3.75323 1.76115 3.70546 2.2353 3.64517 2.84555L4.14275 2.89471L4.64033 2.94387C4.70052 2.3346 4.74819 1.8614 4.7808 1.54061C4.79711 1.38021 4.80965 1.25792 4.81811 1.17578C4.82234 1.13471 4.82555 1.10367 4.8277 1.08293C4.82877 1.07256 4.82958 1.06477 4.83012 1.05958C4.83039 1.05698 4.8306 1.05503 4.83073 1.05375C4.8308 1.0531 4.83085 1.05262 4.83088 1.0523C4.8309 1.05215 4.83091 1.05203 4.83092 1.05195C4.83092 1.05191 4.83092 1.05189 4.83093 1.05187C4.83093 1.05186 4.83093 1.05185 4.83093 1.05185C4.83093 1.05185 4.83093 1.05185 4.33362 1ZM3.77651 6.70672L3.27869 6.66012C3.17223 7.79725 3.05467 9.07805 2.92976 10.4782L3.42779 10.5227L3.92581 10.5671C4.05058 9.16845 4.16801 7.88911 4.27433 6.75333L3.77651 6.70672ZM3.0952 14.3426L2.59699 14.3003C2.4935 15.5188 2.38757 16.7957 2.2809 18.1198L2.77929 18.16L3.27768 18.2001C3.38422 16.8775 3.49003 15.6021 3.5934 14.3849L3.0952 14.3426ZM2.48048 21.9772L1.98191 21.9393C1.88715 23.1869 1.79306 24.4637 1.70086 25.7621L2.1996 25.7976L2.69835 25.833C2.79043 24.5363 2.88439 23.2611 2.97904 22.0151L2.48048 21.9772ZM1.93835 29.6197L1.43942 29.587C1.35643 30.852 1.27618 32.1297 1.1997 33.4135L1.69881 33.4432L2.19793 33.473C2.27428 32.1913 2.35441 30.9156 2.43728 29.6524L1.93835 29.6197ZM1.48373 37.2678L0.98442 37.2415C0.916953 38.5206 0.854195 39.7992 0.79715 41.0709L1.29665 41.0933L1.79615 41.1157C1.85306 39.8468 1.91569 38.5708 1.98303 37.2942L1.48373 37.2678ZM1.14231 44.9197L0.642626 44.9019C0.61979 45.5445 0.59873 46.1836 0.57958 46.8183L1.07935 46.8333L1.57912 46.8484C1.59822 46.2156 1.61922 45.5783 1.64199 44.9374L1.14231 44.9197ZM1.07935 46.8333L0.57958 46.8183C0.558644 47.5121 0.541993 48.2118 0.529447 48.9169L1.02937 48.9258L1.52929 48.9346C1.54176 48.2336 1.55832 47.538 1.57912 46.8484L1.07935 46.8333ZM1.00167 53.13L0.50167 53.132C0.507226 54.5202 0.526588 55.9235 0.55849 57.3378L1.05836 57.3266L1.55824 57.3153C1.52646 55.9067 1.50719 54.5096 1.50166 53.128L1.00167 53.13ZM1.1877 61.5264L0.688074 61.5457C0.742075 62.9419 0.806814 64.3446 0.881124 65.7499L1.38043 65.7235L1.87973 65.6971C1.80565 64.2962 1.74113 62.8982 1.68733 61.5071L1.1877 61.5264ZM1.62915 69.9164L1.13022 69.9491C1.22205 71.3501 1.32222 72.75 1.42958 74.1448L1.9281 74.1064L2.42663 74.068C2.31955 72.6768 2.21965 71.2807 2.12808 69.8837L1.62915 69.9164ZM2.27228 78.2908L1.77418 78.3344C1.89719 79.7421 2.02648 81.1405 2.16081 82.5255L2.65847 82.4772L3.15614 82.429C3.0221 81.0469 2.89311 79.6517 2.77039 78.2473L2.27228 78.2908ZM3.08255 86.6557L2.58534 86.7084C2.73496 88.1214 2.88874 89.5153 3.04529 90.8854L3.54206 90.8287L4.03882 90.7719C3.88258 89.4044 3.7291 88.0132 3.57977 86.6031L3.08255 86.6557ZM4.03597 95.0056L3.53966 95.0663C3.71356 96.4896 3.88901 97.8795 4.06426 99.2301L4.5601 99.1657L5.05595 99.1014C4.88101 97.7531 4.70587 96.3657 4.53228 94.945L4.03597 95.0056ZM5.11677 103.337L4.62141 103.405C4.82056 104.857 5.01696 106.249 5.20792 107.571L5.70279 107.5L6.19765 107.428C6.00701 106.108 5.81094 104.719 5.61213 103.269L5.11677 103.337ZM6.31826 111.656L5.82392 111.731C6.05641 113.262 6.27409 114.654 6.47074 115.885L6.96448 115.806L7.45823 115.728C7.26196 114.499 7.04467 113.109 6.81259 111.581L6.31826 111.656ZM7.64383 119.942L7.15085 120.026C7.26378 120.693 7.35297 121.208 7.41397 121.557C7.44447 121.731 7.46791 121.864 7.48375 121.953C7.49168 121.998 7.49769 122.032 7.50174 122.054C7.50376 122.066 7.5053 122.074 7.50632 122.08C7.50684 122.083 7.50723 122.085 7.50749 122.086C7.50762 122.087 7.50772 122.088 7.50779 122.088C7.50782 122.088 7.50785 122.088 7.50787 122.088C7.50788 122.088 7.50788 122.088 7.50789 122.089C7.50789 122.089 7.50789 122.089 7.5079 122.089C7.5079 122.089 7.5079 122.089 7.99999 122C8.49209 121.911 8.49209 121.911 8.49209 121.911C8.49209 121.911 8.49209 121.911 8.49209 121.911C8.49208 121.911 8.49208 121.911 8.49207 121.911C8.49206 121.911 8.49204 121.911 8.49201 121.911C8.49195 121.911 8.49186 121.91 8.49173 121.909C8.49149 121.908 8.49112 121.906 8.49062 121.903C8.48963 121.898 8.48813 121.889 8.48614 121.878C8.48217 121.856 8.47622 121.823 8.46837 121.778C8.45267 121.69 8.42937 121.558 8.39902 121.384C8.33832 121.037 8.24943 120.524 8.13681 119.859L7.64383 119.942Z" fill="white"/>
</svg>
