<svg width="38" height="68" viewBox="0 0 38 68" fill="none" xmlns="http://www.w3.org/2000/svg">
<path d="M32.4291 18.8334L32.9258 18.8911L32.4291 18.8334ZM34.892 0.689592C34.7205 0.473107 34.4061 0.436589 34.1896 0.608026L30.6618 3.40172C30.4453 3.57316 30.4088 3.88763 30.5802 4.10412C30.7517 4.3206 31.0662 4.35711 31.2826 4.18568L34.4184 1.70239L36.9017 4.83819C37.0732 5.05467 37.3876 5.09119 37.6041 4.91975C37.8206 4.74832 37.8571 4.43385 37.6857 4.21737L34.892 0.689592ZM0.615234 67.5381L0.867639 67.9697C1.41503 67.6496 1.95683 67.3221 2.49291 66.9875L2.22815 66.5634L1.96339 66.1392C1.43546 66.4688 0.901908 66.7912 0.36283 67.1065L0.615234 67.5381ZM5.36608 64.4761L5.65492 64.8843C6.69104 64.151 7.703 63.3897 8.68994 62.6017L8.37796 62.2109L8.06597 61.8202C7.09409 62.5962 6.09756 63.3459 5.07724 64.068L5.36608 64.4761ZM11.2536 59.7751L11.5877 60.1471C12.5312 59.2998 13.4485 58.4267 14.3385 57.529L13.9834 57.177L13.6284 56.8249C12.7519 57.7089 11.8487 58.5687 10.9195 59.4031L11.2536 59.7751ZM16.5583 54.4251L16.9331 54.7561C17.7717 53.8062 18.582 52.8329 19.363 51.8377L18.9697 51.529L18.5763 51.2203C17.8072 52.2004 17.0093 53.1588 16.1835 54.0942L16.5583 54.4251ZM21.2096 48.4982L21.6201 48.7837C22.3428 47.7441 23.0354 46.6839 23.6968 45.6043L23.2705 45.3431L22.8442 45.0819C22.1928 46.145 21.5108 47.1891 20.799 48.2128L21.2096 48.4982ZM25.1456 42.0741L25.5863 42.3102C26.1838 41.1951 26.7494 40.062 27.2822 38.9124L26.8286 38.7021L26.3749 38.4919C25.8502 39.624 25.2933 40.7398 24.7049 41.8379L25.1456 42.0741ZM28.3137 35.2385L28.7787 35.4221C29.243 34.2464 29.674 33.0556 30.0707 31.8511L29.5958 31.6947L29.1209 31.5382C28.7302 32.7244 28.3058 33.897 27.8486 35.0548L28.3137 35.2385ZM30.6706 28.0826L31.1538 28.2112C31.4787 26.9908 31.7692 25.7582 32.0243 24.5148L31.5345 24.4143L31.0447 24.3138C30.7935 25.5383 30.5075 26.7521 30.1874 27.9539L30.6706 28.0826ZM32.1847 20.7021L32.6795 20.7741C32.7705 20.1487 32.8526 19.521 32.9258 18.8911L32.4291 18.8334L31.9324 18.7758C31.8604 19.3961 31.7795 20.0143 31.6899 20.6301L32.1847 20.7021ZM32.4291 18.8334L32.9258 18.8911L33.1846 16.6619L32.688 16.6043L32.1913 16.5466L31.9324 18.7758L32.4291 18.8334ZM33.2057 12.1459L33.7024 12.2036L34.2201 7.74522L33.7234 7.68754L33.2268 7.62987L32.709 12.0882L33.2057 12.1459ZM34.2411 3.22918L34.7378 3.28686L34.9967 1.05768L34.5 1L34.0033 0.942326L33.7445 3.17151L34.2411 3.22918ZM32.4291 18.8334L32.9258 18.8911L32.4291 18.8334ZM34.892 0.689592C34.7205 0.473107 34.4061 0.436589 34.1896 0.608026L30.6618 3.40172C30.4453 3.57316 30.4088 3.88763 30.5802 4.10412C30.7517 4.3206 31.0662 4.35711 31.2826 4.18568L34.4184 1.70239L36.9017 4.83819C37.0732 5.05467 37.3876 5.09119 37.6041 4.91975C37.8206 4.74832 37.8571 4.43385 37.6857 4.21737L34.892 0.689592ZM0.615234 67.5381L0.867639 67.9697C1.41503 67.6496 1.95683 67.3221 2.49291 66.9875L2.22815 66.5634L1.96339 66.1392C1.43546 66.4688 0.901908 66.7912 0.36283 67.1065L0.615234 67.5381ZM5.36608 64.4761L5.65492 64.8843C6.69104 64.151 7.703 63.3897 8.68994 62.6017L8.37796 62.2109L8.06597 61.8202C7.09409 62.5962 6.09756 63.3459 5.07724 64.068L5.36608 64.4761ZM11.2536 59.7751L11.5877 60.1471C12.5312 59.2998 13.4485 58.4267 14.3385 57.529L13.9834 57.177L13.6284 56.8249C12.7519 57.7089 11.8487 58.5687 10.9195 59.4031L11.2536 59.7751ZM16.5583 54.4251L16.9331 54.7561C17.7717 53.8062 18.582 52.8329 19.363 51.8377L18.9697 51.529L18.5763 51.2203C17.8072 52.2004 17.0093 53.1588 16.1835 54.0942L16.5583 54.4251ZM21.2096 48.4982L21.6201 48.7837C22.3428 47.7441 23.0354 46.6839 23.6968 45.6043L23.2705 45.3431L22.8442 45.0819C22.1928 46.145 21.5108 47.1891 20.799 48.2128L21.2096 48.4982ZM25.1456 42.0741L25.5863 42.3102C26.1838 41.1951 26.7494 40.062 27.2822 38.9124L26.8286 38.7021L26.3749 38.4919C25.8502 39.624 25.2933 40.7398 24.7049 41.8379L25.1456 42.0741ZM28.3137 35.2385L28.7787 35.4221C29.243 34.2464 29.674 33.0556 30.0707 31.8511L29.5958 31.6947L29.1209 31.5382C28.7302 32.7244 28.3058 33.897 27.8486 35.0548L28.3137 35.2385ZM30.6706 28.0826L31.1538 28.2112C31.4787 26.9908 31.7692 25.7582 32.0243 24.5148L31.5345 24.4143L31.0447 24.3138C30.7935 25.5383 30.5075 26.7521 30.1874 27.9539L30.6706 28.0826ZM32.1847 20.7021L32.6795 20.7741C32.7705 20.1487 32.8526 19.521 32.9258 18.8911L32.4291 18.8334L31.9324 18.7758C31.8604 19.3961 31.7795 20.0143 31.6899 20.6301L32.1847 20.7021ZM32.4291 18.8334L32.9258 18.8911L33.1846 16.6619L32.688 16.6043L32.1913 16.5466L31.9324 18.7758L32.4291 18.8334ZM33.2057 12.1459L33.7024 12.2036L34.2201 7.74522L33.7234 7.68754L33.2268 7.62987L32.709 12.0882L33.2057 12.1459ZM34.2411 3.22918L34.7378 3.28686L34.9967 1.05768L34.5 1L34.0033 0.942326L33.7445 3.17151L34.2411 3.22918Z" fill="white"/>
</svg>
