<svg width="9" height="42" viewBox="0 0 9 42" fill="none" xmlns="http://www.w3.org/2000/svg">
<path d="M6.54964 11.8479L6.06939 11.987L6.54964 11.8479ZM3.55153 0.230966C3.30964 0.0977632 3.00557 0.185875 2.87236 0.427766L0.701711 4.36963C0.568509 4.61152 0.65662 4.91559 0.898512 5.0488C1.1404 5.182 1.44448 5.09389 1.57768 4.85199L3.50715 1.34812L7.01103 3.27759C7.25292 3.41079 7.55699 3.32268 7.69019 3.08078C7.8234 2.83889 7.73529 2.53482 7.49339 2.40162L3.55153 0.230966ZM2.484 41.2715L2.90851 41.5357C3.2508 40.9856 3.57767 40.4282 3.88903 39.864L3.45128 39.6224L3.01352 39.3808C2.71057 39.9298 2.39253 40.4721 2.05948 41.0073L2.484 41.2715ZM5.12022 36.1838L5.58087 36.3782C6.08481 35.1843 6.52424 33.968 6.89843 32.7345L6.41996 32.5893L5.94149 32.4442C5.57743 33.6443 5.14989 34.8278 4.65958 35.9893L5.12022 36.1838ZM7.33633 28.8785L7.82736 28.9728C8.07107 27.7036 8.2481 26.4224 8.35771 25.1347L7.85951 25.0923L7.36131 25.0499C7.25466 26.3028 7.08242 27.5494 6.8453 28.7843L7.33633 28.8785ZM7.98373 21.2721L8.48363 21.2621C8.45797 19.9733 8.36485 18.6834 8.20354 17.3976L7.70743 17.4598L7.21132 17.5221C7.36826 18.7731 7.45886 20.0281 7.48383 21.282L7.98373 21.2721ZM7.03349 13.6974L7.52036 13.5836C7.37365 12.9561 7.21019 12.331 7.02988 11.7087L6.54964 11.8479L6.06939 11.987C6.24483 12.5925 6.40388 13.2008 6.54662 13.8113L7.03349 13.6974ZM6.54964 11.8479L7.02988 11.7087L6.22006 8.91398L5.73981 9.05314L5.25957 9.19229L6.06939 11.987L6.54964 11.8479ZM4.12017 3.46368L4.60041 3.32452L3.79059 0.52979L3.31035 0.668949L2.8301 0.808108L3.63993 3.60284L4.12017 3.46368ZM6.54964 11.8479L6.06939 11.987L6.54964 11.8479ZM3.55153 0.230966C3.30964 0.0977632 3.00557 0.185875 2.87236 0.427766L0.701711 4.36963C0.568509 4.61152 0.65662 4.91559 0.898512 5.0488C1.1404 5.182 1.44448 5.09389 1.57768 4.85199L3.50715 1.34812L7.01103 3.27759C7.25292 3.41079 7.55699 3.32268 7.69019 3.08078C7.8234 2.83889 7.73529 2.53482 7.49339 2.40162L3.55153 0.230966ZM2.484 41.2715L2.90851 41.5357C3.2508 40.9856 3.57767 40.4282 3.88903 39.864L3.45128 39.6224L3.01352 39.3808C2.71057 39.9298 2.39253 40.4721 2.05948 41.0073L2.484 41.2715ZM5.12022 36.1838L5.58087 36.3782C6.08481 35.1843 6.52424 33.968 6.89843 32.7345L6.41996 32.5893L5.94149 32.4442C5.57743 33.6443 5.14989 34.8278 4.65958 35.9893L5.12022 36.1838ZM7.33633 28.8785L7.82736 28.9728C8.07107 27.7036 8.2481 26.4224 8.35771 25.1347L7.85951 25.0923L7.36131 25.0499C7.25466 26.3028 7.08242 27.5494 6.8453 28.7843L7.33633 28.8785ZM7.98373 21.2721L8.48363 21.2621C8.45797 19.9733 8.36485 18.6834 8.20354 17.3976L7.70743 17.4598L7.21132 17.5221C7.36826 18.7731 7.45886 20.0281 7.48383 21.282L7.98373 21.2721ZM7.03349 13.6974L7.52036 13.5836C7.37365 12.9561 7.21019 12.331 7.02988 11.7087L6.54964 11.8479L6.06939 11.987C6.24483 12.5925 6.40388 13.2008 6.54662 13.8113L7.03349 13.6974ZM6.54964 11.8479L7.02988 11.7087L6.22006 8.91398L5.73981 9.05314L5.25957 9.19229L6.06939 11.987L6.54964 11.8479ZM4.12017 3.46368L4.60041 3.32452L3.79059 0.52979L3.31035 0.668949L2.8301 0.808108L3.63993 3.60284L4.12017 3.46368Z" fill="white"/>
</svg>
