<svg width="18" height="18" viewBox="0 0 18 18" fill="none" xmlns="http://www.w3.org/2000/svg">
<path d="M11.25 7.50039L8.25001 10.5004L6.75001 9.00039M9.93451 2.59464L10.8503 3.37464C11.0813 3.57114 11.3678 3.68964 11.6693 3.71439L12.8693 3.81039C13.2103 3.83762 13.5306 3.98542 13.7726 4.2273C14.0146 4.46918 14.1626 4.78933 14.19 5.13039L14.2853 6.33039C14.31 6.63264 14.4293 6.91989 14.6258 7.15014L15.4058 8.06514C15.6281 8.32576 15.7502 8.65709 15.7502 8.99964C15.7502 9.34219 15.6281 9.67352 15.4058 9.93414L14.6258 10.8499C14.4293 11.0809 14.31 11.3674 14.286 11.6696L14.19 12.8696C14.1628 13.2107 14.015 13.531 13.7731 13.773C13.5312 14.015 13.2111 14.163 12.87 14.1904L11.67 14.2864C11.3679 14.3103 11.081 14.4289 10.8503 14.6254L9.93451 15.4054C9.67389 15.6277 9.34256 15.7498 9.00001 15.7498C8.65746 15.7498 8.32613 15.6277 8.06551 15.4054L7.15051 14.6254C6.91954 14.4288 6.63239 14.3102 6.33001 14.2864L5.13001 14.1904C4.78883 14.1629 4.46859 14.0149 4.22669 13.7727C3.9848 13.5305 3.83708 13.2101 3.81001 12.8689L3.71401 11.6696C3.68972 11.3677 3.57084 11.0811 3.37426 10.8506L2.59426 9.93414C2.37236 9.67363 2.25049 9.3426 2.25049 9.00039C2.25049 8.65818 2.37236 8.32715 2.59426 8.06664L3.37426 7.15014C3.57151 6.91914 3.68926 6.63264 3.71326 6.33039L3.80926 5.13114C3.83657 4.78971 3.98469 4.46919 4.22702 4.22712C4.46936 3.98506 4.79005 3.83731 5.13151 3.81039L6.33001 3.71514C6.63221 3.691 6.91909 3.57211 7.14976 3.37539L8.06551 2.59539C8.32613 2.37309 8.65746 2.25098 9.00001 2.25098C9.34256 2.25098 9.67389 2.37234 9.93451 2.59464Z" stroke="#54BDB4" stroke-width="1.4" stroke-linecap="round" stroke-linejoin="round"/>
</svg>
