<svg width="170" height="61" viewBox="0 0 170 61" fill="none" xmlns="http://www.w3.org/2000/svg">
<path d="M162 0.5C166.142 0.5 169.5 3.85786 169.5 8V53C169.5 57.1421 166.142 60.5 162 60.5H8C3.85786 60.5 0.5 57.1421 0.5 53V0.5H162Z" fill="white"/>
<path d="M162 0.5C166.142 0.5 169.5 3.85786 169.5 8V53C169.5 57.1421 166.142 60.5 162 60.5H8C3.85786 60.5 0.5 57.1421 0.5 53V0.5H162Z" stroke="#DADCDC"/>
<path d="M9.148 11.626H10.254V14.706H12.914V11.626H13.992V19.928H9.148V11.626ZM10.254 15.644V18.976H12.914V15.644H10.254ZM18.346 10.422H19.466V23.092H18.346V10.422ZM16.316 15.434H18.752V16.4H16.316V15.434ZM15.532 10.688H16.638V22.448H15.532V10.688ZM22.7969 11.696H30.9449V12.648H22.7969V11.696ZM21.5789 20.348H33.0169V21.314H21.5789V20.348ZM26.0309 15.826H27.1789V20.838H26.0309V15.826ZM30.4969 11.696H31.6589V12.942C31.6589 13.4647 31.6496 14.0153 31.6309 14.594C31.6216 15.1727 31.5842 15.8073 31.5189 16.498C31.4629 17.1887 31.3556 17.9587 31.1969 18.808L30.0209 18.668C30.2636 17.4547 30.4036 16.3907 30.4409 15.476C30.4782 14.552 30.4969 13.7073 30.4969 12.942V11.696ZM34.6118 11.78H41.6678V12.732H34.6118V11.78ZM34.4438 19.956L34.3038 18.976C35.0598 18.976 35.8858 18.9713 36.7818 18.962C37.6778 18.9433 38.5971 18.9107 39.5398 18.864C40.4825 18.808 41.3831 18.7287 42.2418 18.626L42.3118 19.494C41.4345 19.634 40.5291 19.7367 39.5958 19.802C38.6625 19.8673 37.7525 19.9093 36.8658 19.928C35.9885 19.9467 35.1811 19.956 34.4438 19.956ZM35.9698 12.508H37.1038V19.242H35.9698V12.508ZM39.1758 12.508H40.2958V19.242H39.1758V12.508ZM43.0258 10.422H44.1878V23.092H43.0258V10.422ZM43.9218 15.49H46.2598V16.456H43.9218V15.49ZM50.4027 17.534C50.0667 17.3847 49.7867 17.2867 49.5627 17.24C49.3481 17.184 49.1381 17.156 48.9327 17.156C48.6714 17.156 48.3961 17.2353 48.1067 17.394C47.8174 17.5527 47.5607 17.7487 47.3367 17.982V16.89C47.5607 16.6473 47.8127 16.4653 48.0927 16.344C48.3727 16.2133 48.6807 16.148 49.0167 16.148C49.2874 16.148 49.5534 16.176 49.8147 16.232C50.0854 16.288 50.4354 16.4093 50.8647 16.596C51.2007 16.7453 51.4761 16.848 51.6907 16.904C51.9147 16.9507 52.1247 16.974 52.3207 16.974C52.5914 16.974 52.8714 16.8947 53.1607 16.736C53.4501 16.5773 53.7067 16.3813 53.9307 16.148V17.226C53.7067 17.4687 53.4547 17.6553 53.1747 17.786C52.8947 17.9167 52.5867 17.982 52.2507 17.982C51.9894 17.982 51.7187 17.954 51.4387 17.898C51.1681 17.8327 50.8227 17.7113 50.4027 17.534ZM68.1832 10.422H69.3592V23.092H68.1832V10.422ZM62.4992 13.432H63.4372V14.524C63.4372 15.196 63.3485 15.8493 63.1712 16.484C62.9938 17.1093 62.7418 17.6927 62.4152 18.234C62.0978 18.7753 61.7198 19.2513 61.2812 19.662C60.8518 20.0727 60.3805 20.3993 59.8672 20.642L59.2232 19.746C59.6898 19.5313 60.1192 19.242 60.5112 18.878C60.9125 18.514 61.2578 18.1033 61.5472 17.646C61.8458 17.1793 62.0792 16.68 62.2472 16.148C62.4152 15.616 62.4992 15.0747 62.4992 14.524V13.432ZM62.7092 13.432H63.6472V14.524C63.6472 15.0467 63.7312 15.5647 63.8992 16.078C64.0672 16.582 64.3005 17.058 64.5992 17.506C64.8978 17.9447 65.2478 18.3367 65.6492 18.682C66.0505 19.0273 66.4892 19.3073 66.9652 19.522L66.3212 20.418C65.8078 20.1847 65.3318 19.872 64.8932 19.48C64.4545 19.0787 64.0718 18.6213 63.7452 18.108C63.4185 17.5853 63.1618 17.0207 62.9752 16.414C62.7978 15.8073 62.7092 15.1773 62.7092 14.524V13.432ZM59.5592 12.62H66.5312V13.558H59.5592V12.62ZM62.4852 10.66H63.6472V13.138H62.4852V10.66ZM81.4261 10.436H82.5321V17.968H81.4261V10.436ZM79.3821 13.684H81.7621V14.65H79.3821V13.684ZM78.7101 10.674H79.8021V17.884H78.7101V10.674ZM74.0481 18.668H82.5321V23.092H81.3841V19.62H74.0481V18.668ZM72.4241 11.514H77.3101V17.016H72.4241V11.514ZM76.2181 12.424H73.5161V16.106H76.2181V12.424ZM90.3397 18.598H98.7957V23.106H97.6337V19.536H90.3397V18.598ZM97.6337 10.422H98.7957V17.884H97.6337V10.422ZM94.5117 13.6H97.9697V14.552H94.5117V13.6ZM88.9677 11.374H94.7357V17.044H88.9677V11.374ZM93.6017 12.312H90.1017V16.106H93.6017V12.312ZM106.971 11.234C107.857 11.234 108.646 11.3787 109.337 11.668C110.027 11.9573 110.573 12.3633 110.975 12.886C111.376 13.4087 111.577 14.02 111.577 14.72C111.577 15.4293 111.376 16.0453 110.975 16.568C110.573 17.0907 110.027 17.4967 109.337 17.786C108.646 18.0753 107.857 18.22 106.971 18.22C106.103 18.22 105.319 18.0753 104.619 17.786C103.928 17.4967 103.382 17.0907 102.981 16.568C102.579 16.0453 102.379 15.4293 102.379 14.72C102.379 14.02 102.579 13.4087 102.981 12.886C103.382 12.3633 103.928 11.9573 104.619 11.668C105.319 11.3787 106.103 11.234 106.971 11.234ZM106.971 12.172C106.308 12.172 105.715 12.2793 105.193 12.494C104.67 12.7087 104.255 13.0073 103.947 13.39C103.639 13.7633 103.485 14.2067 103.485 14.72C103.485 15.224 103.639 15.6673 103.947 16.05C104.255 16.4327 104.67 16.7313 105.193 16.946C105.715 17.1607 106.308 17.268 106.971 17.268C107.643 17.268 108.24 17.1607 108.763 16.946C109.285 16.7313 109.696 16.4327 109.995 16.05C110.303 15.6673 110.457 15.224 110.457 14.72C110.457 14.2067 110.303 13.7633 109.995 13.39C109.696 13.0073 109.285 12.7087 108.763 12.494C108.24 12.2793 107.643 12.172 106.971 12.172ZM101.259 20.446H112.739V21.412H101.259V20.446ZM123.392 10.422H124.54V23.106H123.392V10.422ZM120.984 15.28H123.672V16.246H120.984V15.28ZM114.614 19.088H115.58C116.326 19.088 117.012 19.0787 117.638 19.06C118.263 19.0413 118.87 19.004 119.458 18.948C120.046 18.892 120.648 18.8033 121.264 18.682L121.362 19.648C120.727 19.76 120.111 19.8487 119.514 19.914C118.926 19.97 118.31 20.012 117.666 20.04C117.031 20.0587 116.336 20.068 115.58 20.068H114.614V19.088ZM114.572 11.598H120.228V16.036H115.762V19.396H114.614V15.084H119.094V12.55H114.572V11.598ZM139.319 10.422H140.481V16.862H139.319V10.422ZM140.159 13.25H142.343V14.23H140.159V13.25ZM135.791 11.038H137.065C137.065 12.102 136.822 13.0447 136.337 13.866C135.861 14.678 135.175 15.3593 134.279 15.91C133.392 16.4607 132.338 16.8853 131.115 17.184L130.667 16.218C131.768 15.9753 132.697 15.63 133.453 15.182C134.218 14.734 134.797 14.2113 135.189 13.614C135.59 13.0167 135.791 12.3633 135.791 11.654V11.038ZM131.227 11.038H136.477V11.99H131.227V11.038ZM132.431 17.436H140.481V20.586H133.607V22.546H132.473V19.69H139.333V18.374H132.431V17.436ZM132.473 22.028H140.929V22.966H132.473V22.028ZM143.952 19.088H144.778C145.553 19.088 146.309 19.0693 147.046 19.032C147.783 18.9853 148.577 18.892 149.426 18.752L149.538 19.704C148.661 19.8627 147.844 19.9653 147.088 20.012C146.341 20.0493 145.571 20.068 144.778 20.068H143.952V19.088ZM143.924 11.794H148.656V16.246H145.072V19.452H143.952V15.294H147.536V12.76H143.924V11.794ZM153.164 10.422H154.27V23.092H153.164V10.422ZM151.022 15.42H153.458V16.372H151.022V15.42ZM150.294 10.702H151.372V22.434H150.294V10.702ZM157.671 18.808C157.671 18.4533 157.704 18.15 157.769 17.898C157.844 17.6367 157.965 17.3893 158.133 17.156C158.31 16.9227 158.548 16.68 158.847 16.428C159.211 16.12 159.491 15.8633 159.687 15.658C159.892 15.4527 160.037 15.252 160.121 15.056C160.205 14.86 160.247 14.622 160.247 14.342C160.247 13.894 160.102 13.5487 159.813 13.306C159.524 13.0633 159.104 12.942 158.553 12.942C158.096 12.942 157.69 13.0027 157.335 13.124C156.98 13.236 156.64 13.3713 156.313 13.53L155.879 12.55C156.252 12.354 156.663 12.1907 157.111 12.06C157.568 11.9293 158.077 11.864 158.637 11.864C159.524 11.864 160.21 12.0833 160.695 12.522C161.18 12.9607 161.423 13.558 161.423 14.314C161.423 14.734 161.353 15.0933 161.213 15.392C161.082 15.6813 160.891 15.952 160.639 16.204C160.396 16.4467 160.107 16.708 159.771 16.988C159.463 17.2493 159.225 17.478 159.057 17.674C158.898 17.87 158.791 18.066 158.735 18.262C158.679 18.4487 158.651 18.6773 158.651 18.948V19.186H157.671V18.808ZM157.349 21.244C157.349 20.8987 157.428 20.656 157.587 20.516C157.755 20.376 157.965 20.306 158.217 20.306C158.45 20.306 158.651 20.376 158.819 20.516C158.987 20.656 159.071 20.8987 159.071 21.244C159.071 21.58 158.987 21.8227 158.819 21.972C158.651 22.1213 158.45 22.196 158.217 22.196C157.965 22.196 157.755 22.1213 157.587 21.972C157.428 21.8227 157.349 21.58 157.349 21.244Z" fill="#404444"/>
<line x1="8" y1="30.5" x2="162" y2="30.5" stroke="#EAEBEB"/>
<path d="M20.5 41.6668C21.0175 42.055 21.4375 42.5582 21.7268 43.1368C22.0161 43.7154 22.1667 44.3533 22.1667 45.0002C22.1667 45.647 22.0161 46.285 21.7268 46.8636C21.4375 47.4421 21.0175 47.9454 20.5 48.3335M22.75 39.1668C23.62 39.8699 24.3217 40.7586 24.8037 41.7679C25.2858 42.7773 25.536 43.8816 25.536 45.0002C25.536 46.1187 25.2858 47.2231 24.8037 48.2324C24.3217 49.2417 23.62 50.1305 22.75 50.8335M13 47.5002H11.3333C11.1123 47.5002 10.9004 47.4124 10.7441 47.2561C10.5878 47.0998 10.5 46.8879 10.5 46.6668V43.3335C10.5 43.1125 10.5878 42.9005 10.7441 42.7443C10.9004 42.588 11.1123 42.5002 11.3333 42.5002H13L15.9167 38.7502C15.9895 38.6087 16.1105 38.4979 16.2579 38.4379C16.4053 38.3779 16.5693 38.3726 16.7202 38.4229C16.8712 38.4732 16.9991 38.5759 17.081 38.7123C17.1629 38.8487 17.1933 39.01 17.1667 39.1668V50.8335C17.1933 50.9904 17.1629 51.1516 17.081 51.2881C16.9991 51.4245 16.8712 51.5272 16.7202 51.5775C16.5693 51.6278 16.4053 51.6225 16.2579 51.5624C16.1105 51.5024 15.9895 51.3917 15.9167 51.2502L13 47.5002Z" stroke="#8B9292" stroke-width="1.4" stroke-linecap="round" stroke-linejoin="round"/>
<path d="M148.867 39H154.467C154.962 39 155.437 39.169 155.787 39.4698C156.137 39.7707 156.333 40.1787 156.333 40.6042V51.8333L151.667 49.4271L147 51.8333V40.6042C147 40.1787 147.197 39.7707 147.547 39.4698C147.897 39.169 148.372 39 148.867 39Z" fill="#54BDB4" stroke="#54BDB4" stroke-width="1.4" stroke-linecap="round" stroke-linejoin="round"/>
</svg>
