<svg width="151" height="61" viewBox="0 0 151 61" fill="none" xmlns="http://www.w3.org/2000/svg">
<path d="M143 0.5C147.142 0.5 150.5 3.85786 150.5 8V53C150.5 57.1421 147.142 60.5 143 60.5H8C3.85786 60.5 0.5 57.1421 0.5 53V0.5H143Z" fill="white"/>
<path d="M143 0.5C147.142 0.5 150.5 3.85786 150.5 8V53C150.5 57.1421 147.142 60.5 143 60.5H8C3.85786 60.5 0.5 57.1421 0.5 53V0.5H143Z" stroke="#DADCDC"/>
<path d="M13.67 11.43H14.692V11.822C14.692 12.2233 14.6033 12.606 14.426 12.97C14.258 13.3247 14.02 13.6513 13.712 13.95C13.404 14.2393 13.04 14.496 12.62 14.72C12.2093 14.9347 11.7613 15.1167 11.276 15.266C10.7907 15.4153 10.2867 15.5227 9.764 15.588L9.33 14.664C9.78733 14.6173 10.226 14.5333 10.646 14.412C11.0753 14.2907 11.472 14.146 11.836 13.978C12.2093 13.8007 12.5313 13.6 12.802 13.376C13.0727 13.152 13.2827 12.9093 13.432 12.648C13.5907 12.3867 13.67 12.1113 13.67 11.822V11.43ZM14.146 11.43H15.168V11.822C15.168 12.102 15.2427 12.3773 15.392 12.648C15.5507 12.9093 15.7653 13.152 16.036 13.376C16.316 13.5907 16.638 13.7867 17.002 13.964C17.366 14.1413 17.758 14.2907 18.178 14.412C18.6073 14.5333 19.0507 14.6173 19.508 14.664L19.074 15.588C18.5513 15.5227 18.0473 15.4153 17.562 15.266C17.0767 15.1167 16.624 14.93 16.204 14.706C15.7933 14.482 15.434 14.2253 15.126 13.936C14.818 13.6373 14.5753 13.3107 14.398 12.956C14.23 12.6013 14.146 12.2233 14.146 11.822V11.43ZM9.75 10.94H19.102V11.878H9.75V10.94ZM8.7 16.778H20.166V17.73H8.7V16.778ZM13.838 14.874H14.986V17.24H13.838V14.874ZM9.974 18.976H18.724V23.092H17.562V19.914H9.974V18.976ZM21.5789 20.516H33.0589V21.482H21.5789V20.516ZM26.7169 17.478H27.8649V20.796H26.7169V17.478ZM22.9229 11.318H24.0849V13.572H30.5249V11.318H31.6729V17.8H22.9229V11.318ZM24.0849 14.524V16.848H30.5249V14.524H24.0849ZM47.3205 10.422H48.4825V16.988H47.3205V10.422ZM40.2365 17.604H48.4825V20.642H41.4125V22.546H40.2645V19.788H47.3345V18.528H40.2365V17.604ZM40.2645 22.014H48.9445V22.952H40.2645V22.014ZM38.6545 11.29H45.4585V12.2H38.6545V11.29ZM38.4445 16.554L38.3045 15.602C39.0605 15.5927 39.8819 15.5787 40.7685 15.56C41.6552 15.5413 42.5512 15.5087 43.4565 15.462C44.3712 15.406 45.2392 15.3313 46.0605 15.238L46.1165 16.078C45.2859 16.2087 44.4179 16.3067 43.5125 16.372C42.6072 16.4373 41.7205 16.484 40.8525 16.512C39.9939 16.54 39.1912 16.554 38.4445 16.554ZM39.9005 11.71H41.0205V16.008H39.9005V11.71ZM43.0785 11.71H44.2125V16.008H43.0785V11.71ZM53.7874 16.946H54.9354V20.726H53.7874V16.946ZM58.4634 16.946H59.6254V20.726H58.4634V16.946ZM50.9734 20.502H62.4534V21.468H50.9734V20.502ZM56.6854 11.22C57.5814 11.22 58.3748 11.3553 59.0654 11.626C59.7561 11.8967 60.2974 12.2747 60.6894 12.76C61.0908 13.2453 61.2914 13.8193 61.2914 14.482C61.2914 15.1353 61.0908 15.7093 60.6894 16.204C60.2974 16.6893 59.7561 17.0673 59.0654 17.338C58.3748 17.5993 57.5814 17.73 56.6854 17.73C55.7988 17.73 55.0054 17.5993 54.3054 17.338C53.6148 17.0673 53.0734 16.6893 52.6814 16.204C52.2894 15.7093 52.0934 15.1353 52.0934 14.482C52.0934 13.8193 52.2894 13.2453 52.6814 12.76C53.0734 12.2747 53.6148 11.8967 54.3054 11.626C55.0054 11.3553 55.7988 11.22 56.6854 11.22ZM56.6854 12.144C56.0134 12.144 55.4161 12.242 54.8934 12.438C54.3708 12.634 53.9601 12.9093 53.6614 13.264C53.3628 13.6093 53.2134 14.0153 53.2134 14.482C53.2134 14.9487 53.3628 15.3593 53.6614 15.714C53.9601 16.0593 54.3708 16.33 54.8934 16.526C55.4161 16.722 56.0134 16.82 56.6854 16.82C57.3668 16.82 57.9688 16.722 58.4914 16.526C59.0141 16.33 59.4248 16.0593 59.7234 15.714C60.0221 15.3593 60.1714 14.9487 60.1714 14.482C60.1714 14.0153 60.0221 13.6093 59.7234 13.264C59.4248 12.9093 59.0141 12.634 58.4914 12.438C57.9688 12.242 57.3668 12.144 56.6854 12.144ZM72.4343 10.422H73.5823V23.092H72.4343V10.422ZM73.3163 15.63H75.6543V16.61H73.3163V15.63ZM63.7823 12.452H71.2443V13.404H63.7823V12.452ZM67.5763 14.44C68.1737 14.44 68.701 14.566 69.1583 14.818C69.625 15.07 69.989 15.4153 70.2503 15.854C70.521 16.2833 70.6563 16.7827 70.6563 17.352C70.6563 17.9213 70.521 18.4253 70.2503 18.864C69.989 19.3027 69.625 19.648 69.1583 19.9C68.701 20.1427 68.1737 20.264 67.5763 20.264C66.979 20.264 66.447 20.1427 65.9803 19.9C65.523 19.648 65.159 19.3027 64.8883 18.864C64.6177 18.4253 64.4823 17.9213 64.4823 17.352C64.4823 16.7827 64.6177 16.2833 64.8883 15.854C65.159 15.4153 65.523 15.07 65.9803 14.818C66.447 14.566 66.979 14.44 67.5763 14.44ZM67.5763 15.406C67.1937 15.406 66.853 15.49 66.5543 15.658C66.2557 15.826 66.0177 16.0547 65.8403 16.344C65.6723 16.6333 65.5883 16.9693 65.5883 17.352C65.5883 17.7347 65.6723 18.0753 65.8403 18.374C66.0177 18.6633 66.2557 18.892 66.5543 19.06C66.853 19.2187 67.1937 19.298 67.5763 19.298C67.9497 19.298 68.2857 19.2187 68.5843 19.06C68.883 18.892 69.1163 18.6633 69.2843 18.374C69.4617 18.0753 69.5503 17.7347 69.5503 17.352C69.5503 16.9693 69.4617 16.6333 69.2843 16.344C69.1163 16.0547 68.883 15.826 68.5843 15.658C68.2857 15.49 67.9497 15.406 67.5763 15.406ZM66.9743 10.576H68.1363V12.872H66.9743V10.576ZM82.8073 12.648H86.3353V13.614H82.8073V12.648ZM82.8073 15.364H86.3633V16.316H82.8073V15.364ZM77.3193 11.528H83.0873V17.45H77.3193V11.528ZM81.9533 12.466H78.4533V16.526H81.9533V12.466ZM85.9853 10.436H87.1473V19.676H85.9853V10.436ZM79.0133 21.86H87.4413V22.812H79.0133V21.86ZM79.0133 18.85H80.1753V22.294H79.0133V18.85ZM99.0989 12.41H102.907V13.362H99.0989V12.41ZM99.0989 15.434H102.907V16.386H99.0989V15.434ZM102.501 10.436H103.663V19.788H102.501V10.436ZM95.5849 21.86H104.013V22.812H95.5849V21.86ZM95.5849 18.822H96.7329V22.266H95.5849V18.822ZM96.7049 11.234C97.3209 11.234 97.8715 11.3693 98.3569 11.64C98.8515 11.9107 99.2389 12.284 99.5189 12.76C99.8082 13.236 99.9529 13.782 99.9529 14.398C99.9529 15.0233 99.8082 15.574 99.5189 16.05C99.2389 16.526 98.8515 16.8993 98.3569 17.17C97.8715 17.4407 97.3209 17.576 96.7049 17.576C96.0795 17.576 95.5195 17.4407 95.0249 17.17C94.5395 16.8993 94.1522 16.526 93.8629 16.05C93.5829 15.574 93.4429 15.0233 93.4429 14.398C93.4429 13.782 93.5829 13.236 93.8629 12.76C94.1522 12.284 94.5395 11.9107 95.0249 11.64C95.5195 11.3693 96.0795 11.234 96.7049 11.234ZM96.7049 12.27C96.2942 12.27 95.9255 12.3633 95.5989 12.55C95.2722 12.7273 95.0155 12.9793 94.8289 13.306C94.6422 13.6233 94.5489 13.992 94.5489 14.412C94.5489 14.8227 94.6422 15.1913 94.8289 15.518C95.0155 15.8447 95.2722 16.1013 95.5989 16.288C95.9255 16.4653 96.2942 16.554 96.7049 16.554C97.1062 16.554 97.4702 16.4653 97.7969 16.288C98.1235 16.1013 98.3802 15.8447 98.5669 15.518C98.7535 15.1913 98.8469 14.8227 98.8469 14.412C98.8469 13.992 98.7535 13.6233 98.5669 13.306C98.3802 12.9793 98.1235 12.7273 97.7969 12.55C97.4702 12.3633 97.1062 12.27 96.7049 12.27ZM106.672 16.498H107.666C108.431 16.498 109.136 16.4887 109.78 16.47C110.433 16.442 111.063 16.4 111.67 16.344C112.286 16.2787 112.92 16.19 113.574 16.078L113.686 17.044C113.014 17.156 112.365 17.2447 111.74 17.31C111.124 17.366 110.484 17.408 109.822 17.436C109.168 17.4547 108.45 17.464 107.666 17.464H106.672V16.498ZM106.644 11.178H112.342V14.692H107.82V16.974H106.672V13.782H111.208V12.13H106.644V11.178ZM114.792 10.436H115.954V18.122H114.792V10.436ZM115.59 13.67H117.83V14.636H115.59V13.67ZM107.722 18.794H115.954V23.078H114.792V19.746H107.722V18.794ZM118.977 12.592H125.263V13.544H118.977V12.592ZM122.127 14.384C122.659 14.384 123.125 14.5053 123.527 14.748C123.937 14.9907 124.259 15.3313 124.493 15.77C124.726 16.1993 124.843 16.6987 124.843 17.268C124.843 17.8373 124.726 18.3413 124.493 18.78C124.259 19.2093 123.937 19.55 123.527 19.802C123.125 20.0447 122.659 20.166 122.127 20.166C121.604 20.166 121.137 20.0447 120.727 19.802C120.316 19.55 119.994 19.2093 119.761 18.78C119.527 18.3413 119.411 17.8373 119.411 17.268C119.411 16.6987 119.527 16.1993 119.761 15.77C119.994 15.3407 120.316 15.0047 120.727 14.762C121.137 14.51 121.604 14.384 122.127 14.384ZM122.127 15.364C121.809 15.364 121.52 15.448 121.259 15.616C121.007 15.7747 120.806 15.9987 120.657 16.288C120.517 16.568 120.447 16.8947 120.447 17.268C120.447 17.6413 120.517 17.9727 120.657 18.262C120.806 18.5513 121.007 18.7753 121.259 18.934C121.52 19.0927 121.809 19.172 122.127 19.172C122.453 19.172 122.743 19.0927 122.995 18.934C123.247 18.7753 123.443 18.5513 123.583 18.262C123.732 17.9727 123.807 17.6413 123.807 17.268C123.807 16.8947 123.732 16.568 123.583 16.288C123.443 15.9987 123.247 15.7747 122.995 15.616C122.743 15.448 122.453 15.364 122.127 15.364ZM128.609 10.422H129.715V23.092H128.609V10.422ZM126.579 15.756H128.973V16.708H126.579V15.756ZM125.893 10.716H126.985V22.476H125.893V10.716ZM121.553 10.8H122.701V13.166H121.553V10.8ZM134.95 17.534C134.614 17.3847 134.334 17.2867 134.11 17.24C133.895 17.184 133.685 17.156 133.48 17.156C133.218 17.156 132.943 17.2353 132.654 17.394C132.364 17.5527 132.108 17.7487 131.884 17.982V16.89C132.108 16.6473 132.36 16.4653 132.64 16.344C132.92 16.2133 133.228 16.148 133.564 16.148C133.834 16.148 134.1 16.176 134.362 16.232C134.632 16.288 134.982 16.4093 135.412 16.596C135.748 16.7453 136.023 16.848 136.238 16.904C136.462 16.9507 136.672 16.974 136.868 16.974C137.138 16.974 137.418 16.8947 137.708 16.736C137.997 16.5773 138.254 16.3813 138.478 16.148V17.226C138.254 17.4687 138.002 17.6553 137.722 17.786C137.442 17.9167 137.134 17.982 136.798 17.982C136.536 17.982 136.266 17.954 135.986 17.898C135.715 17.8327 135.37 17.7113 134.95 17.534ZM141.477 19.186H140.679L140.329 12.004H141.827L141.477 19.186ZM140.203 21.244C140.203 20.8987 140.287 20.656 140.455 20.516C140.623 20.376 140.829 20.306 141.071 20.306C141.305 20.306 141.505 20.376 141.673 20.516C141.851 20.656 141.939 20.8987 141.939 21.244C141.939 21.58 141.851 21.8227 141.673 21.972C141.505 22.1213 141.305 22.196 141.071 22.196C140.829 22.196 140.623 22.1213 140.455 21.972C140.287 21.8227 140.203 21.58 140.203 21.244Z" fill="#404444"/>
<line x1="8" y1="30.5" x2="143" y2="30.5" stroke="#EAEBEB"/>
<path d="M20.5 41.6667C21.0175 42.0548 21.4375 42.558 21.7268 43.1366C22.0161 43.7152 22.1667 44.3531 22.1667 45C22.1667 45.6468 22.0161 46.2848 21.7268 46.8634C21.4375 47.4419 21.0175 47.9452 20.5 48.3333M22.75 39.1667C23.62 39.8697 24.3217 40.7584 24.8037 41.7678C25.2858 42.7771 25.536 43.8815 25.536 45C25.536 46.1185 25.2858 47.2229 24.8037 48.2322C24.3217 49.2416 23.62 50.1303 22.75 50.8333M13 47.5H11.3333C11.1123 47.5 10.9004 47.4122 10.7441 47.2559C10.5878 47.0996 10.5 46.8877 10.5 46.6667V43.3333C10.5 43.1123 10.5878 42.9004 10.7441 42.7441C10.9004 42.5878 11.1123 42.5 11.3333 42.5H13L15.9167 38.75C15.9895 38.6085 16.1105 38.4978 16.2579 38.4377C16.4053 38.3777 16.5693 38.3724 16.7202 38.4227C16.8712 38.473 16.9991 38.5757 17.081 38.7121C17.1629 38.8486 17.1933 39.0098 17.1667 39.1667V50.8333C17.1933 50.9902 17.1629 51.1514 17.081 51.2879C16.9991 51.4243 16.8712 51.527 16.7202 51.5773C16.5693 51.6276 16.4053 51.6223 16.2579 51.5623C16.1105 51.5022 15.9895 51.3915 15.9167 51.25L13 47.5Z" stroke="#8B9292" stroke-width="1.4" stroke-linecap="round" stroke-linejoin="round"/>
<path d="M129.867 39H135.467C135.962 39 136.437 39.169 136.787 39.4698C137.137 39.7707 137.333 40.1787 137.333 40.6042V51.8333L132.667 49.4271L128 51.8333V40.6042C128 40.1787 128.197 39.7707 128.547 39.4698C128.897 39.169 129.372 39 129.867 39Z" fill="#54BDB4" stroke="#54BDB4" stroke-width="1.4" stroke-linecap="round" stroke-linejoin="round"/>
</svg>
