<svg width="265" height="82" viewBox="0 0 265 82" fill="none" xmlns="http://www.w3.org/2000/svg">
<rect width="124" height="37" rx="18" fill="#E9F6F5"/>
<path d="M14.686 19.674H26.166V20.64H14.686V19.674ZM19.824 20.262H20.972V25.092H19.824V20.262ZM20.398 12.926C21.2847 12.926 22.0593 13.0427 22.722 13.276C23.3847 13.5 23.9027 13.822 24.276 14.242C24.6493 14.6527 24.836 15.1427 24.836 15.712C24.836 16.272 24.6493 16.762 24.276 17.182C23.9027 17.602 23.3847 17.924 22.722 18.148C22.0593 18.372 21.2847 18.484 20.398 18.484C19.53 18.484 18.76 18.372 18.088 18.148C17.4253 17.924 16.9073 17.602 16.534 17.182C16.1607 16.762 15.974 16.272 15.974 15.712C15.974 15.1427 16.1607 14.6527 16.534 14.242C16.9073 13.822 17.4253 13.5 18.088 13.276C18.76 13.0427 19.53 12.926 20.398 12.926ZM20.398 13.864C19.7633 13.864 19.1987 13.9387 18.704 14.088C18.2187 14.2373 17.8407 14.452 17.57 14.732C17.2993 15.0027 17.164 15.3247 17.164 15.698C17.164 16.0807 17.2993 16.412 17.57 16.692C17.8407 16.9627 18.2187 17.1727 18.704 17.322C19.1987 17.4713 19.7633 17.546 20.398 17.546C21.0513 17.546 21.6207 17.4713 22.106 17.322C22.5913 17.1727 22.9693 16.9627 23.24 16.692C23.5107 16.412 23.646 16.0807 23.646 15.698C23.646 15.3247 23.5107 15.0027 23.24 14.732C22.9693 14.452 22.5913 14.2373 22.106 14.088C21.6207 13.9387 21.0513 13.864 20.398 13.864ZM36.2309 12.436H37.3929V20.514H36.2309V12.436ZM36.9029 15.964H39.2409V16.944H36.9029V15.964ZM33.3329 20.64C34.1916 20.64 34.9289 20.7287 35.5449 20.906C36.1702 21.074 36.6462 21.326 36.9729 21.662C37.3089 21.9887 37.4769 22.3853 37.4769 22.852C37.4769 23.3093 37.3089 23.706 36.9729 24.042C36.6462 24.378 36.1702 24.63 35.5449 24.798C34.9289 24.9753 34.1916 25.064 33.3329 25.064C32.4742 25.064 31.7322 24.9753 31.1069 24.798C30.4909 24.63 30.0149 24.378 29.6789 24.042C29.3522 23.706 29.1889 23.3093 29.1889 22.852C29.1889 22.3853 29.3522 21.9887 29.6789 21.662C30.0149 21.326 30.4909 21.074 31.1069 20.906C31.7322 20.7287 32.4742 20.64 33.3329 20.64ZM33.3329 21.55C32.3996 21.55 31.6622 21.6667 31.1209 21.9C30.5889 22.124 30.3229 22.4413 30.3229 22.852C30.3229 23.2627 30.5889 23.5847 31.1209 23.818C31.6622 24.042 32.3996 24.154 33.3329 24.154C34.2662 24.154 34.9989 24.042 35.5309 23.818C36.0629 23.5847 36.3289 23.2627 36.3289 22.852C36.3289 22.4413 36.0629 22.124 35.5309 21.9C34.9989 21.6667 34.2662 21.55 33.3329 21.55ZM30.8549 17.168H32.0169V19.17H30.8549V17.168ZM27.7049 19.674L27.5649 18.736C28.3022 18.736 29.1189 18.7313 30.0149 18.722C30.9109 18.7033 31.8256 18.666 32.7589 18.61C33.6922 18.5447 34.5836 18.4513 35.4329 18.33L35.5309 19.156C34.6442 19.3147 33.7342 19.4313 32.8009 19.506C31.8769 19.5807 30.9762 19.6273 30.0989 19.646C29.2309 19.6647 28.4329 19.674 27.7049 19.674ZM31.4009 12.898C32.0169 12.898 32.5582 12.996 33.0249 13.192C33.4916 13.388 33.8556 13.6587 34.1169 14.004C34.3876 14.3493 34.5229 14.7553 34.5229 15.222C34.5229 15.6887 34.3876 16.0993 34.1169 16.454C33.8556 16.7993 33.4916 17.07 33.0249 17.266C32.5582 17.462 32.0169 17.56 31.4009 17.56C30.7849 17.56 30.2436 17.462 29.7769 17.266C29.3102 17.07 28.9416 16.7993 28.6709 16.454C28.4096 16.0993 28.2789 15.6887 28.2789 15.222C28.2789 14.7553 28.4096 14.3493 28.6709 14.004C28.9416 13.6587 29.3102 13.388 29.7769 13.192C30.2436 12.996 30.7849 12.898 31.4009 12.898ZM31.4009 13.78C30.8036 13.78 30.3136 13.9107 29.9309 14.172C29.5576 14.4333 29.3709 14.7833 29.3709 15.222C29.3709 15.5113 29.4549 15.768 29.6229 15.992C29.7909 16.216 30.0289 16.3887 30.3369 16.51C30.6449 16.6313 30.9996 16.692 31.4009 16.692C31.8022 16.692 32.1569 16.6313 32.4649 16.51C32.7729 16.3887 33.0109 16.216 33.1789 15.992C33.3469 15.768 33.4309 15.5113 33.4309 15.222C33.4309 14.7833 33.2396 14.4333 32.8569 14.172C32.4836 13.9107 31.9982 13.78 31.4009 13.78ZM42.0398 21.186H41.2418L40.8918 14.004H42.3898L42.0398 21.186ZM40.7658 23.244C40.7658 22.8987 40.8498 22.656 41.0178 22.516C41.1858 22.376 41.3911 22.306 41.6338 22.306C41.8671 22.306 42.0678 22.376 42.2358 22.516C42.4131 22.656 42.5018 22.8987 42.5018 23.244C42.5018 23.58 42.4131 23.8227 42.2358 23.972C42.0678 24.1213 41.8671 24.196 41.6338 24.196C41.3911 24.196 41.1858 24.1213 41.0178 23.972C40.8498 23.8227 40.7658 23.58 40.7658 23.244ZM45.7996 21.186H45.0016L44.6516 14.004H46.1496L45.7996 21.186ZM44.5256 23.244C44.5256 22.8987 44.6096 22.656 44.7776 22.516C44.9456 22.376 45.1509 22.306 45.3936 22.306C45.6269 22.306 45.8276 22.376 45.9956 22.516C46.1729 22.656 46.2616 22.8987 46.2616 23.244C46.2616 23.58 46.1729 23.8227 45.9956 23.972C45.8276 24.1213 45.6269 24.196 45.3936 24.196C45.1509 24.196 44.9456 24.1213 44.7776 23.972C44.6096 23.8227 44.5256 23.58 44.5256 23.244ZM60.8821 12.422H62.0441V25.106H60.8821V12.422ZM57.0041 16.594H61.2601V17.546H57.0041V16.594ZM52.3001 13.836H53.4621V21.69H52.3001V13.836ZM52.3001 21.06H53.2801C53.9334 21.06 54.5681 21.046 55.1841 21.018C55.8094 20.99 56.4301 20.9387 57.0461 20.864C57.6621 20.7893 58.2921 20.6867 58.9361 20.556L59.0761 21.522C58.4041 21.6527 57.7507 21.7553 57.1161 21.83C56.4907 21.9047 55.8607 21.9607 55.2261 21.998C54.6007 22.026 53.9521 22.04 53.2801 22.04H52.3001V21.06ZM64.479 19.772H75.959V20.724H64.479V19.772ZM69.617 20.36H70.765V25.078H69.617V20.36ZM65.949 13.122H74.489V18.064H65.949V13.122ZM73.341 14.06H67.083V17.14H73.341V14.06ZM86.1466 16.188H87.2946V18.12H86.1466V16.188ZM85.9786 13.206H86.9866V13.584C86.9866 13.9667 86.8979 14.3213 86.7206 14.648C86.5526 14.9747 86.3099 15.2687 85.9926 15.53C85.6753 15.7913 85.3066 16.02 84.8866 16.216C84.4759 16.412 84.0233 16.5753 83.5286 16.706C83.0339 16.8273 82.5206 16.9113 81.9886 16.958L81.6106 16.076C82.0679 16.0387 82.5066 15.9733 82.9266 15.88C83.3559 15.7773 83.7573 15.6513 84.1306 15.502C84.5039 15.3527 84.8259 15.18 85.0966 14.984C85.3766 14.788 85.5913 14.5733 85.7406 14.34C85.8993 14.1067 85.9786 13.8547 85.9786 13.584V13.206ZM86.4826 13.206H87.4766V13.584C87.4766 13.8547 87.5559 14.1067 87.7146 14.34C87.8733 14.5733 88.0879 14.788 88.3586 14.984C88.6293 15.18 88.9513 15.3527 89.3246 15.502C89.6979 15.6513 90.0946 15.7773 90.5146 15.88C90.9439 15.9733 91.3873 16.0387 91.8446 16.076L91.4666 16.958C90.9439 16.9113 90.4353 16.8273 89.9406 16.706C89.4459 16.5753 88.9886 16.412 88.5686 16.216C88.1486 16.02 87.7799 15.7913 87.4626 15.53C87.1546 15.2687 86.9119 14.9793 86.7346 14.662C86.5666 14.3353 86.4826 13.976 86.4826 13.584V13.206ZM82.0586 12.814H91.4106V13.738H82.0586V12.814ZM82.0726 20.29H91.3826V21.2H82.0726V20.29ZM80.9946 17.672H92.4746V18.624H80.9946V17.672ZM86.7206 21.816C87.9433 21.816 88.8813 21.956 89.5346 22.236C90.1973 22.516 90.5286 22.9313 90.5286 23.482C90.5286 24.0327 90.1973 24.448 89.5346 24.728C88.8813 25.0173 87.9433 25.162 86.7206 25.162C85.5073 25.162 84.5693 25.0173 83.9066 24.728C83.2533 24.448 82.9266 24.0327 82.9266 23.482C82.9266 22.9313 83.2533 22.516 83.9066 22.236C84.5693 21.956 85.5073 21.816 86.7206 21.816ZM86.7206 22.628C85.8899 22.628 85.2459 22.7027 84.7886 22.852C84.3313 22.992 84.1026 23.202 84.1026 23.482C84.1026 23.7713 84.3313 23.9907 84.7886 24.14C85.2459 24.2893 85.8899 24.364 86.7206 24.364C87.5606 24.364 88.2046 24.2893 88.6526 24.14C89.1099 23.9907 89.3386 23.7713 89.3386 23.482C89.3386 23.202 89.1099 22.992 88.6526 22.852C88.2046 22.7027 87.5606 22.628 86.7206 22.628ZM86.1466 19.114H87.3086V20.878H86.1466V19.114ZM97.2335 14.242H98.1855V16.286C98.1855 16.958 98.0922 17.6207 97.9055 18.274C97.7188 18.918 97.4575 19.5293 97.1215 20.108C96.7948 20.6773 96.4122 21.1813 95.9735 21.62C95.5348 22.0587 95.0635 22.404 94.5595 22.656L93.8875 21.732C94.3448 21.508 94.7742 21.2047 95.1755 20.822C95.5862 20.4393 95.9455 20.0007 96.2535 19.506C96.5615 19.0113 96.7995 18.4887 96.9675 17.938C97.1448 17.3873 97.2335 16.8367 97.2335 16.286V14.242ZM97.4715 14.242H98.4095V16.286C98.4095 16.818 98.4935 17.35 98.6615 17.882C98.8388 18.4047 99.0815 18.8993 99.3895 19.366C99.7068 19.8233 100.066 20.2293 100.468 20.584C100.878 20.9387 101.317 21.2187 101.784 21.424L101.14 22.348C100.626 22.1053 100.146 21.7787 99.6975 21.368C99.2495 20.9573 98.8575 20.486 98.5215 19.954C98.1948 19.4127 97.9382 18.834 97.7515 18.218C97.5648 17.5927 97.4715 16.9487 97.4715 16.286V14.242ZM94.2935 13.724H101.364V14.69H94.2935V13.724ZM103.086 12.422H104.248V25.092H103.086V12.422ZM108.348 21.186H107.55L107.2 14.004H108.698L108.348 21.186ZM107.074 23.244C107.074 22.8987 107.158 22.656 107.326 22.516C107.494 22.376 107.7 22.306 107.942 22.306C108.176 22.306 108.376 22.376 108.544 22.516C108.722 22.656 108.81 22.8987 108.81 23.244C108.81 23.58 108.722 23.8227 108.544 23.972C108.376 24.1213 108.176 24.196 107.942 24.196C107.7 24.196 107.494 24.1213 107.326 23.972C107.158 23.8227 107.074 23.58 107.074 23.244Z" fill="#282A2A"/>
<rect x="134" width="119" height="37" rx="18" fill="#E9F6F5"/>
<path d="M152.074 13.808H153.04V15.11C153.04 15.8847 152.891 16.6033 152.592 17.266C152.293 17.9287 151.873 18.512 151.332 19.016C150.8 19.5107 150.179 19.884 149.47 20.136L148.868 19.226C149.503 18.9927 150.058 18.6707 150.534 18.26C151.019 17.8493 151.397 17.3733 151.668 16.832C151.939 16.2813 152.074 15.7073 152.074 15.11V13.808ZM152.298 13.808H153.25V15.11C153.25 15.5393 153.325 15.9547 153.474 16.356C153.633 16.748 153.857 17.1167 154.146 17.462C154.435 17.798 154.771 18.0967 155.154 18.358C155.546 18.6193 155.975 18.8247 156.442 18.974L155.854 19.884C155.154 19.6413 154.538 19.2867 154.006 18.82C153.474 18.3533 153.054 17.8027 152.746 17.168C152.447 16.5333 152.298 15.8473 152.298 15.11V13.808ZM149.176 13.472H156.106V14.424H149.176V13.472ZM157.912 12.436H159.074V21.704H157.912V12.436ZM150.94 23.86H159.466V24.812H150.94V23.86ZM150.94 20.836H152.102V24.28H150.94V20.836ZM170.441 12.422H171.603V25.092H170.441V12.422ZM171.029 17.448H173.367V18.442H171.029V17.448ZM163.357 14.298H164.225V16.188C164.225 16.7387 164.192 17.3127 164.127 17.91C164.062 18.498 163.95 19.0767 163.791 19.646C163.632 20.2153 163.418 20.7427 163.147 21.228C162.886 21.7133 162.55 22.1147 162.139 22.432L161.397 21.578C161.78 21.2887 162.097 20.934 162.349 20.514C162.61 20.0847 162.811 19.6227 162.951 19.128C163.1 18.6333 163.203 18.134 163.259 17.63C163.324 17.1167 163.357 16.636 163.357 16.188V14.298ZM163.609 14.298H164.463V16.188C164.463 16.5987 164.486 17.0513 164.533 17.546C164.58 18.0407 164.668 18.5447 164.799 19.058C164.93 19.5713 165.116 20.0567 165.359 20.514C165.602 20.962 165.924 21.3493 166.325 21.676L165.667 22.544C165.238 22.208 164.888 21.7833 164.617 21.27C164.346 20.7567 164.136 20.206 163.987 19.618C163.838 19.0207 163.735 18.4233 163.679 17.826C163.632 17.2287 163.609 16.6827 163.609 16.188V14.298ZM166.885 14.298H167.725V16.188C167.725 16.7107 167.697 17.2753 167.641 17.882C167.594 18.4793 167.496 19.072 167.347 19.66C167.198 20.248 166.988 20.794 166.717 21.298C166.446 21.802 166.096 22.2173 165.667 22.544L165.023 21.676C165.415 21.3587 165.732 20.9807 165.975 20.542C166.227 20.094 166.418 19.618 166.549 19.114C166.68 18.6007 166.768 18.092 166.815 17.588C166.862 17.084 166.885 16.6173 166.885 16.188V14.298ZM167.123 14.298H167.991V16.188C167.991 16.6547 168.019 17.1447 168.075 17.658C168.14 18.1713 168.243 18.6753 168.383 19.17C168.532 19.6553 168.733 20.108 168.985 20.528C169.246 20.9387 169.568 21.2887 169.951 21.578L169.209 22.432C168.808 22.1147 168.472 21.7227 168.201 21.256C167.93 20.78 167.716 20.2573 167.557 19.688C167.398 19.1187 167.286 18.5353 167.221 17.938C167.156 17.3407 167.123 16.7573 167.123 16.188V14.298ZM161.803 13.71H165.401V14.662H161.803V13.71ZM165.947 13.71H169.433V14.662H165.947V13.71ZM175.718 20.808C175.718 20.4533 175.75 20.15 175.816 19.898C175.89 19.6367 176.012 19.3893 176.18 19.156C176.357 18.9227 176.595 18.68 176.894 18.428C177.258 18.12 177.538 17.8633 177.734 17.658C177.939 17.4527 178.084 17.252 178.168 17.056C178.252 16.86 178.294 16.622 178.294 16.342C178.294 15.894 178.149 15.5487 177.86 15.306C177.57 15.0633 177.15 14.942 176.6 14.942C176.142 14.942 175.736 15.0027 175.382 15.124C175.027 15.236 174.686 15.3713 174.36 15.53L173.926 14.55C174.299 14.354 174.71 14.1907 175.158 14.06C175.615 13.9293 176.124 13.864 176.684 13.864C177.57 13.864 178.256 14.0833 178.742 14.522C179.227 14.9607 179.47 15.558 179.47 16.314C179.47 16.734 179.4 17.0933 179.26 17.392C179.129 17.6813 178.938 17.952 178.686 18.204C178.443 18.4467 178.154 18.708 177.818 18.988C177.51 19.2493 177.272 19.478 177.104 19.674C176.945 19.87 176.838 20.066 176.782 20.262C176.726 20.4487 176.698 20.6773 176.698 20.948V21.186H175.718V20.808ZM175.396 23.244C175.396 22.8987 175.475 22.656 175.634 22.516C175.802 22.376 176.012 22.306 176.264 22.306C176.497 22.306 176.698 22.376 176.866 22.516C177.034 22.656 177.118 22.8987 177.118 23.244C177.118 23.58 177.034 23.8227 176.866 23.972C176.698 24.1213 176.497 24.196 176.264 24.196C176.012 24.196 175.802 24.1213 175.634 23.972C175.475 23.8227 175.396 23.58 175.396 23.244ZM185.383 13.696H193.531V14.648H185.383V13.696ZM184.165 22.348H195.603V23.314H184.165V22.348ZM188.617 17.826H189.765V22.838H188.617V17.826ZM193.083 13.696H194.245V14.942C194.245 15.4647 194.236 16.0153 194.217 16.594C194.208 17.1727 194.17 17.8073 194.105 18.498C194.049 19.1887 193.942 19.9587 193.783 20.808L192.607 20.668C192.85 19.4547 192.99 18.3907 193.027 17.476C193.064 16.552 193.083 15.7073 193.083 14.942V13.696ZM197.548 13.696H203.358V21.872H197.548V13.696ZM202.21 14.62H198.682V20.934H202.21V14.62ZM205.612 12.422H206.774V25.092H205.612V12.422ZM206.508 17.476H208.846V18.456H206.508V17.476ZM213.353 19.492H214.515V24.7H213.353V19.492ZM219.149 12.436H220.325V25.092H219.149V12.436ZM210.021 20.066L209.867 19.086C210.669 19.086 211.537 19.0813 212.471 19.072C213.413 19.0533 214.375 19.016 215.355 18.96C216.335 18.904 217.282 18.8107 218.197 18.68L218.267 19.548C217.324 19.7067 216.367 19.8233 215.397 19.898C214.426 19.9727 213.483 20.0193 212.569 20.038C211.654 20.0567 210.805 20.066 210.021 20.066ZM216.293 21.074H219.457V21.984H216.293V21.074ZM213.997 13.052C214.622 13.052 215.173 13.1593 215.649 13.374C216.125 13.5793 216.498 13.8687 216.769 14.242C217.039 14.606 217.175 15.04 217.175 15.544C217.175 16.048 217.039 16.4867 216.769 16.86C216.498 17.2333 216.125 17.5227 215.649 17.728C215.173 17.9333 214.622 18.036 213.997 18.036C213.381 18.036 212.83 17.9333 212.345 17.728C211.869 17.5227 211.495 17.2333 211.225 16.86C210.954 16.4867 210.819 16.048 210.819 15.544C210.819 15.04 210.954 14.606 211.225 14.242C211.495 13.8687 211.869 13.5793 212.345 13.374C212.83 13.1593 213.381 13.052 213.997 13.052ZM213.997 13.948C213.586 13.948 213.222 14.018 212.905 14.158C212.597 14.2887 212.354 14.4753 212.177 14.718C211.999 14.9607 211.911 15.236 211.911 15.544C211.911 15.8613 211.999 16.1413 212.177 16.384C212.354 16.6267 212.597 16.8133 212.905 16.944C213.222 17.0747 213.586 17.14 213.997 17.14C214.407 17.14 214.767 17.0747 215.075 16.944C215.383 16.8133 215.625 16.6267 215.803 16.384C215.98 16.1413 216.069 15.8613 216.069 15.544C216.069 15.236 215.98 14.9607 215.803 14.718C215.625 14.4753 215.383 14.2887 215.075 14.158C214.767 14.018 214.407 13.948 213.997 13.948ZM222.83 16.706H234.226V17.658H222.83V16.706ZM225.84 17.364H227.002V23.104H225.84V17.364ZM229.998 17.364H231.16V23.104H229.998V17.364ZM237.262 21.186H236.464L236.114 14.004H237.612L237.262 21.186ZM235.988 23.244C235.988 22.8987 236.072 22.656 236.24 22.516C236.408 22.376 236.614 22.306 236.856 22.306C237.09 22.306 237.29 22.376 237.458 22.516C237.636 22.656 237.724 22.8987 237.724 23.244C237.724 23.58 237.636 23.8227 237.458 23.972C237.29 24.1213 237.09 24.196 236.856 24.196C236.614 24.196 236.408 24.1213 236.24 23.972C236.072 23.8227 235.988 23.58 235.988 23.244Z" fill="#282A2A"/>
<rect y="45" width="93" height="37" rx="18" fill="#E9F6F5"/>
<path d="M23.366 57.422H24.528V64.604H23.366V57.422ZM24.206 60.502H26.39V61.468H24.206V60.502ZM19.852 58.248H21.084C21.084 59.312 20.846 60.2733 20.37 61.132C19.9033 61.9813 19.2267 62.7093 18.34 63.316C17.4533 63.9227 16.3893 64.3987 15.148 64.744L14.686 63.806C15.7873 63.5167 16.7207 63.1247 17.486 62.63C18.2513 62.126 18.8347 61.5473 19.236 60.894C19.6467 60.2407 19.852 59.5267 19.852 58.752V58.248ZM15.246 58.248H20.51V59.186H15.246V58.248ZM16.548 65.192H24.528V69.91H16.548V65.192ZM23.38 66.144H17.696V68.972H23.38V66.144ZM30.6729 58.514H31.6249V60.782C31.6249 61.482 31.5362 62.168 31.3589 62.84C31.1909 63.512 30.9482 64.142 30.6309 64.73C30.3136 65.318 29.9402 65.8407 29.5109 66.298C29.0816 66.7553 28.6149 67.1193 28.1109 67.39L27.3969 66.452C27.8636 66.2187 28.2929 65.906 28.6849 65.514C29.0862 65.1127 29.4362 64.6553 29.7349 64.142C30.0336 63.6287 30.2622 63.0873 30.4209 62.518C30.5889 61.9393 30.6729 61.3607 30.6729 60.782V58.514ZM30.8829 58.514H31.8209V60.782C31.8209 61.342 31.9002 61.8973 32.0589 62.448C32.2269 62.9987 32.4602 63.5167 32.7589 64.002C33.0576 64.4873 33.3982 64.9213 33.7809 65.304C34.1729 65.6867 34.5929 65.99 35.0409 66.214L34.3269 67.138C33.8322 66.886 33.3749 66.5407 32.9549 66.102C32.5442 65.6633 32.1802 65.164 31.8629 64.604C31.5549 64.0347 31.3122 63.428 31.1349 62.784C30.9669 62.1307 30.8829 61.4633 30.8829 60.782V58.514ZM36.1469 57.422H37.3089V70.092H36.1469V57.422ZM37.0429 62.546H39.3809V63.54H37.0429V62.546ZM49.1238 57.422H50.2858V64.786H49.1238V57.422ZM49.7818 60.656H52.1478V61.636H49.7818V60.656ZM42.3198 65.346H43.4678V66.676H49.1238V65.346H50.2858V69.924H42.3198V65.346ZM43.4678 67.586V68.986H49.1238V67.586H43.4678ZM40.4858 58.724H47.9618V59.662H40.4858V58.724ZM44.2238 60.25C44.8305 60.25 45.3578 60.3433 45.8058 60.53C46.2631 60.7073 46.6178 60.964 46.8698 61.3C47.1218 61.6267 47.2478 62.014 47.2478 62.462C47.2478 62.91 47.1218 63.302 46.8698 63.638C46.6178 63.974 46.2631 64.2353 45.8058 64.422C45.3578 64.5993 44.8305 64.688 44.2238 64.688C43.6171 64.688 43.0851 64.5993 42.6278 64.422C42.1798 64.2353 41.8251 63.974 41.5638 63.638C41.3118 63.302 41.1858 62.91 41.1858 62.462C41.1858 62.014 41.3118 61.6267 41.5638 61.3C41.8251 60.964 42.1798 60.7073 42.6278 60.53C43.0851 60.3433 43.6171 60.25 44.2238 60.25ZM44.2238 61.132C43.6451 61.132 43.1785 61.2533 42.8238 61.496C42.4785 61.7387 42.3058 62.0607 42.3058 62.462C42.3058 62.8727 42.4785 63.1993 42.8238 63.442C43.1785 63.6847 43.6451 63.806 44.2238 63.806C44.7931 63.806 45.2551 63.6847 45.6098 63.442C45.9645 63.1993 46.1418 62.8727 46.1418 62.462C46.1418 62.0607 45.9645 61.7387 45.6098 61.496C45.2645 61.2533 44.8025 61.132 44.2238 61.132ZM43.6498 57.31H44.8118V59.228H43.6498V57.31ZM62.5487 57.422H63.6967V70.092H62.5487V57.422ZM54.1347 58.668H55.2827V66.508H54.1347V58.668ZM54.1347 65.822H55.1707C56.1414 65.822 57.1261 65.78 58.1247 65.696C59.1327 65.6027 60.1687 65.4487 61.2327 65.234L61.3867 66.214C60.2854 66.4473 59.2261 66.6107 58.2087 66.704C57.1914 66.788 56.1787 66.83 55.1707 66.83H54.1347V65.822ZM74.7836 57.422H75.9456V70.106H74.7836V57.422ZM75.6796 62.42H78.0176V63.386H75.6796V62.42ZM66.7616 65.962H67.7556C68.5303 65.962 69.2396 65.9527 69.8836 65.934C70.537 65.906 71.1623 65.8593 71.7596 65.794C72.3663 65.7287 72.9823 65.64 73.6076 65.528L73.7476 66.522C73.0943 66.634 72.4596 66.7227 71.8436 66.788C71.237 66.8533 70.6023 66.8953 69.9396 66.914C69.277 66.9327 68.549 66.942 67.7556 66.942H66.7616V65.962ZM66.7616 58.654H72.6276V59.606H67.9096V66.41H66.7616V58.654Z" fill="#282A2A"/>
</svg>
