<svg width="83" height="23" viewBox="0 0 83 23" fill="none" xmlns="http://www.w3.org/2000/svg">
<g clip-path="url(#clip0_971_1318)">
<mask id="path-1-outside-1_971_1318" maskUnits="userSpaceOnUse" x="0" y="0.5" width="83" height="22" fill="black">
<rect fill="white" y="0.5" width="83" height="22"/>
<path d="M5.13666 9.58367C5.16123 9.73515 5.21037 9.91187 5.38236 10.0129C6.1686 10.341 7.93764 10.6188 10.714 10.6188C12.7779 10.6188 13.8664 10.2906 15.5371 9.73515C15.9057 9.58367 16.4954 9.83613 16.6428 10.341C16.8148 10.846 16.5691 11.3256 16.2497 11.4771C14.4806 12.2597 12.7534 12.4869 10.5175 12.5122C8.28162 12.5122 5.84919 12.3102 4.57155 11.7801C3.98187 11.5276 3.44133 11.1237 3.29391 10.3915C2.92536 8.57384 3.04821 5.26693 3.26934 3.62595C3.39219 2.94431 3.90816 2.26267 4.52241 2.26267H15.2423C15.5863 2.26267 16.0777 2.64136 16.0777 3.17153C16.0777 3.62595 15.6845 4.10562 15.2914 4.10562H5.52978C5.1858 4.10562 5.1858 4.35808 5.16123 4.5348C5.03838 5.84758 4.79268 7.66499 5.13666 9.58367ZM1.84429 19.7834C1.32832 19.7077 0.935196 19.228 1.00891 18.7231C1.08262 18.1677 1.54945 17.8143 2.04085 17.89C3.78531 18.0667 5.96344 18.1677 8.81356 18.1929V15.4916C8.81356 15.113 9.20668 14.6333 9.77178 14.6333C10.3123 14.6333 10.8283 15.0372 10.8283 15.4664V18.1929C13.6784 18.1929 16.4057 18.092 18.1256 17.89C18.6661 17.8143 19.1575 18.2182 19.1821 18.7231C19.2312 19.228 18.8135 19.7077 18.3467 19.7834C15.4966 20.1621 5.16123 20.2631 1.84429 19.7834Z"/>
<path d="M22.3188 11.629C22.1222 10.6444 22.1468 8.24609 22.3679 7.36248C22.4907 7.00904 22.8102 6.45363 23.3261 6.45363H29.3531C29.4268 6.10019 29.5006 4.8379 29.4023 4.08052C29.3777 3.9038 29.3531 3.65134 29.0092 3.65134H23.3998C23.0313 3.65134 22.6136 3.17167 22.6136 2.71725C22.6136 2.26282 23.0067 1.8084 23.4244 1.8084H29.9674C30.6062 1.8084 31.1222 2.49003 31.245 3.17167C31.417 4.38347 31.3679 6.50412 31.1713 7.31199C31.0485 7.76641 30.6308 8.29658 29.8691 8.29658H24.1615C24.0632 8.65002 24.0632 10.0385 24.1615 10.7959C24.1615 10.9474 24.2106 11.1241 24.4072 11.2503C25.1443 11.6543 26.6676 11.831 28.1418 11.831C29.7143 11.831 30.2868 11.4523 30.901 11.1494C31.2696 10.9726 32.0067 11.2251 32.1541 11.8057C32.277 12.3359 31.9084 12.7651 31.5644 12.9166C30.4588 13.472 29.5915 13.7497 28.019 13.7497C26.2745 13.7497 24.5301 13.4467 23.5964 13.0175C23.0313 12.7398 22.4662 12.3612 22.3188 11.629ZM37.3384 2.31331C37.4612 3.42413 37.5349 5.19134 37.5349 7.11002H39.5497C39.9182 7.11002 40.3851 7.51396 40.3851 8.04412C40.3851 8.49854 39.9919 8.97821 39.5742 8.97821H37.5595C37.5349 11.3766 37.4612 13.1689 37.3384 14.4564C37.2647 14.9613 36.7241 15.3148 36.2327 15.2643C35.7168 15.239 35.3236 14.8099 35.3482 14.2797C35.6185 11.2754 35.5939 5.77199 35.3482 2.49003C35.3236 1.95987 35.6922 1.58119 36.2082 1.50545C36.7241 1.45495 37.2647 1.75791 37.3384 2.31331ZM37.5349 20.4649C35.7659 21.2475 32.8421 21.4748 30.6062 21.5C28.3949 21.5 26.8237 21.298 25.546 20.7679C24.9564 20.5154 24.4158 20.1115 24.2684 19.3794C24.0473 18.3695 24.0718 18.1427 24.2192 16.7795C24.2438 16.426 24.6124 15.9716 25.2266 15.9716C25.8163 15.9716 26.1849 16.4765 26.1603 16.8552C26.0374 17.8398 25.9637 17.8394 26.1603 18.8239C26.1849 18.9249 26.234 18.9754 26.3568 19.0259C27.1431 19.3541 28.7143 19.6318 30.8028 19.6318C32.8666 19.6318 35.1516 19.3036 36.8224 18.7482C37.1664 18.5967 37.7806 18.7735 37.9281 19.3036C38.1 19.8085 37.8543 20.3134 37.5349 20.4649Z"/>
<path d="M46.8627 9.58367C46.8873 9.73515 46.9364 9.91187 47.1084 10.0129C47.8947 10.341 49.6637 10.6188 52.4401 10.6188C54.504 10.6188 55.5924 10.2906 57.2632 9.73515C57.6317 9.58367 58.2214 9.83613 58.3688 10.341C58.5408 10.846 58.2951 11.3256 57.9757 11.4771C56.2067 12.2597 54.4794 12.4869 52.2435 12.5122C50.0077 12.5122 47.5752 12.3102 46.2976 11.7801C45.7079 11.5276 45.1674 11.1237 45.02 10.3915C44.6514 8.57384 44.7743 5.26693 44.9954 3.62595C45.1183 2.94431 45.6342 2.26267 46.2485 2.26267H56.9683C57.3123 2.26267 57.8037 2.64136 57.8037 3.17153C57.8037 3.62595 57.4106 4.10562 57.0175 4.10562H47.2558C46.9119 4.10562 46.9119 4.35808 46.8873 4.5348C46.7644 5.84758 46.5187 7.66499 46.8627 9.58367ZM43.5703 19.7834C43.0544 19.7077 42.6613 19.228 42.735 18.7231C42.8087 18.1677 43.2755 17.8143 43.7669 17.89C45.5114 18.0667 47.6895 18.1677 50.5396 18.1929V15.4916C50.5396 15.113 50.9327 14.6333 51.4978 14.6333C52.0384 14.6333 52.5544 15.0372 52.5544 15.4664V18.1929C55.4045 18.1929 58.1317 18.092 59.8516 17.89C60.3922 17.8143 60.8836 18.2182 60.9081 18.7231C60.9573 19.228 60.5396 19.7077 60.0728 19.7834C57.2227 20.1621 46.8873 20.2631 43.5703 19.7834Z"/>
<path d="M64.0448 11.629C63.8483 10.6444 63.8728 8.24609 64.094 7.36248C64.2168 7.00904 64.5362 6.45363 65.0522 6.45363H71.0792C71.1529 6.10019 71.2266 4.8379 71.1283 4.08052C71.1038 3.9038 71.0792 3.65134 70.7352 3.65134H65.1259C64.7573 3.65134 64.3397 3.17167 64.3397 2.71725C64.3397 2.26282 64.7328 1.8084 65.1505 1.8084H71.6934C72.3323 1.8084 72.8482 2.49003 72.9711 3.17167C73.1431 4.38347 73.0939 6.50412 72.8974 7.31199C72.7745 7.76641 72.3568 8.29658 71.5952 8.29658H65.8876C65.7893 8.65002 65.7893 10.0385 65.8876 10.7959C65.8876 10.9474 65.9367 11.1241 66.1333 11.2503C66.8704 11.6543 68.3937 11.831 69.8679 11.831C71.4404 11.831 72.0129 11.4523 72.6271 11.1494C72.9957 10.9726 73.7327 11.2251 73.8802 11.8057C74.003 12.3359 73.6345 12.7651 73.2905 12.9166C72.1848 13.472 71.3175 13.7497 69.7451 13.7497C68.0006 13.7497 66.2561 13.4467 65.3225 13.0175C64.7573 12.7398 64.1922 12.3612 64.0448 11.629ZM79.0644 2.31331C79.1873 3.42413 79.261 5.19134 79.261 7.11002H81.2757C81.6443 7.11002 82.1111 7.51396 82.1111 8.04412C82.1111 8.49854 81.718 8.97821 81.3003 8.97821H79.2856C79.261 11.3766 79.1873 13.1689 79.0644 14.4564C78.9907 14.9613 78.4502 15.3148 77.9588 15.2643C77.4428 15.239 77.0497 14.8099 77.0743 14.2797C77.3445 11.2754 77.32 5.77199 77.0743 2.49003C77.0497 1.95987 77.4183 1.58119 77.9342 1.50545C78.4502 1.45495 78.9907 1.75791 79.0644 2.31331ZM79.261 20.4649C77.492 21.2475 74.5681 21.4748 72.3323 21.5C70.121 21.5 68.5497 21.298 67.2721 20.7679C66.6824 20.5154 66.1419 20.1115 65.9944 19.3794C65.7733 18.3695 65.7979 18.1427 65.9453 16.7795C65.9699 16.426 66.3384 15.9716 66.9527 15.9716C67.5424 15.9716 67.9109 16.4765 67.8863 16.8552C67.7635 17.8398 67.6898 17.8394 67.8863 18.8239C67.9109 18.9249 67.9601 18.9754 68.0829 19.0259C68.8691 19.3541 70.4404 19.6318 72.5288 19.6318C74.5927 19.6318 76.8777 19.3036 78.5485 18.7482C78.8924 18.5967 79.5067 18.7735 79.6541 19.3036C79.8261 19.8085 79.5804 20.3134 79.261 20.4649Z"/>
</mask>
<path d="M5.13666 9.58367C5.16123 9.73515 5.21037 9.91187 5.38236 10.0129C6.1686 10.341 7.93764 10.6188 10.714 10.6188C12.7779 10.6188 13.8664 10.2906 15.5371 9.73515C15.9057 9.58367 16.4954 9.83613 16.6428 10.341C16.8148 10.846 16.5691 11.3256 16.2497 11.4771C14.4806 12.2597 12.7534 12.4869 10.5175 12.5122C8.28162 12.5122 5.84919 12.3102 4.57155 11.7801C3.98187 11.5276 3.44133 11.1237 3.29391 10.3915C2.92536 8.57384 3.04821 5.26693 3.26934 3.62595C3.39219 2.94431 3.90816 2.26267 4.52241 2.26267H15.2423C15.5863 2.26267 16.0777 2.64136 16.0777 3.17153C16.0777 3.62595 15.6845 4.10562 15.2914 4.10562H5.52978C5.1858 4.10562 5.1858 4.35808 5.16123 4.5348C5.03838 5.84758 4.79268 7.66499 5.13666 9.58367ZM1.84429 19.7834C1.32832 19.7077 0.935196 19.228 1.00891 18.7231C1.08262 18.1677 1.54945 17.8143 2.04085 17.89C3.78531 18.0667 5.96344 18.1677 8.81356 18.1929V15.4916C8.81356 15.113 9.20668 14.6333 9.77178 14.6333C10.3123 14.6333 10.8283 15.0372 10.8283 15.4664V18.1929C13.6784 18.1929 16.4057 18.092 18.1256 17.89C18.6661 17.8143 19.1575 18.2182 19.1821 18.7231C19.2312 19.228 18.8135 19.7077 18.3467 19.7834C15.4966 20.1621 5.16123 20.2631 1.84429 19.7834Z" fill="#282A2A"/>
<path d="M22.3188 11.629C22.1222 10.6444 22.1468 8.24609 22.3679 7.36248C22.4907 7.00904 22.8102 6.45363 23.3261 6.45363H29.3531C29.4268 6.10019 29.5006 4.8379 29.4023 4.08052C29.3777 3.9038 29.3531 3.65134 29.0092 3.65134H23.3998C23.0313 3.65134 22.6136 3.17167 22.6136 2.71725C22.6136 2.26282 23.0067 1.8084 23.4244 1.8084H29.9674C30.6062 1.8084 31.1222 2.49003 31.245 3.17167C31.417 4.38347 31.3679 6.50412 31.1713 7.31199C31.0485 7.76641 30.6308 8.29658 29.8691 8.29658H24.1615C24.0632 8.65002 24.0632 10.0385 24.1615 10.7959C24.1615 10.9474 24.2106 11.1241 24.4072 11.2503C25.1443 11.6543 26.6676 11.831 28.1418 11.831C29.7143 11.831 30.2868 11.4523 30.901 11.1494C31.2696 10.9726 32.0067 11.2251 32.1541 11.8057C32.277 12.3359 31.9084 12.7651 31.5644 12.9166C30.4588 13.472 29.5915 13.7497 28.019 13.7497C26.2745 13.7497 24.5301 13.4467 23.5964 13.0175C23.0313 12.7398 22.4662 12.3612 22.3188 11.629ZM37.3384 2.31331C37.4612 3.42413 37.5349 5.19134 37.5349 7.11002H39.5497C39.9182 7.11002 40.3851 7.51396 40.3851 8.04412C40.3851 8.49854 39.9919 8.97821 39.5742 8.97821H37.5595C37.5349 11.3766 37.4612 13.1689 37.3384 14.4564C37.2647 14.9613 36.7241 15.3148 36.2327 15.2643C35.7168 15.239 35.3236 14.8099 35.3482 14.2797C35.6185 11.2754 35.5939 5.77199 35.3482 2.49003C35.3236 1.95987 35.6922 1.58119 36.2082 1.50545C36.7241 1.45495 37.2647 1.75791 37.3384 2.31331ZM37.5349 20.4649C35.7659 21.2475 32.8421 21.4748 30.6062 21.5C28.3949 21.5 26.8237 21.298 25.546 20.7679C24.9564 20.5154 24.4158 20.1115 24.2684 19.3794C24.0473 18.3695 24.0718 18.1427 24.2192 16.7795C24.2438 16.426 24.6124 15.9716 25.2266 15.9716C25.8163 15.9716 26.1849 16.4765 26.1603 16.8552C26.0374 17.8398 25.9637 17.8394 26.1603 18.8239C26.1849 18.9249 26.234 18.9754 26.3568 19.0259C27.1431 19.3541 28.7143 19.6318 30.8028 19.6318C32.8666 19.6318 35.1516 19.3036 36.8224 18.7482C37.1664 18.5967 37.7806 18.7735 37.9281 19.3036C38.1 19.8085 37.8543 20.3134 37.5349 20.4649Z" fill="#282A2A"/>
<path d="M46.8627 9.58367C46.8873 9.73515 46.9364 9.91187 47.1084 10.0129C47.8947 10.341 49.6637 10.6188 52.4401 10.6188C54.504 10.6188 55.5924 10.2906 57.2632 9.73515C57.6317 9.58367 58.2214 9.83613 58.3688 10.341C58.5408 10.846 58.2951 11.3256 57.9757 11.4771C56.2067 12.2597 54.4794 12.4869 52.2435 12.5122C50.0077 12.5122 47.5752 12.3102 46.2976 11.7801C45.7079 11.5276 45.1674 11.1237 45.02 10.3915C44.6514 8.57384 44.7743 5.26693 44.9954 3.62595C45.1183 2.94431 45.6342 2.26267 46.2485 2.26267H56.9683C57.3123 2.26267 57.8037 2.64136 57.8037 3.17153C57.8037 3.62595 57.4106 4.10562 57.0175 4.10562H47.2558C46.9119 4.10562 46.9119 4.35808 46.8873 4.5348C46.7644 5.84758 46.5187 7.66499 46.8627 9.58367ZM43.5703 19.7834C43.0544 19.7077 42.6613 19.228 42.735 18.7231C42.8087 18.1677 43.2755 17.8143 43.7669 17.89C45.5114 18.0667 47.6895 18.1677 50.5396 18.1929V15.4916C50.5396 15.113 50.9327 14.6333 51.4978 14.6333C52.0384 14.6333 52.5544 15.0372 52.5544 15.4664V18.1929C55.4045 18.1929 58.1317 18.092 59.8516 17.89C60.3922 17.8143 60.8836 18.2182 60.9081 18.7231C60.9573 19.228 60.5396 19.7077 60.0728 19.7834C57.2227 20.1621 46.8873 20.2631 43.5703 19.7834Z" fill="#282A2A"/>
<path d="M64.0448 11.629C63.8483 10.6444 63.8728 8.24609 64.094 7.36248C64.2168 7.00904 64.5362 6.45363 65.0522 6.45363H71.0792C71.1529 6.10019 71.2266 4.8379 71.1283 4.08052C71.1038 3.9038 71.0792 3.65134 70.7352 3.65134H65.1259C64.7573 3.65134 64.3397 3.17167 64.3397 2.71725C64.3397 2.26282 64.7328 1.8084 65.1505 1.8084H71.6934C72.3323 1.8084 72.8482 2.49003 72.9711 3.17167C73.1431 4.38347 73.0939 6.50412 72.8974 7.31199C72.7745 7.76641 72.3568 8.29658 71.5952 8.29658H65.8876C65.7893 8.65002 65.7893 10.0385 65.8876 10.7959C65.8876 10.9474 65.9367 11.1241 66.1333 11.2503C66.8704 11.6543 68.3937 11.831 69.8679 11.831C71.4404 11.831 72.0129 11.4523 72.6271 11.1494C72.9957 10.9726 73.7327 11.2251 73.8802 11.8057C74.003 12.3359 73.6345 12.7651 73.2905 12.9166C72.1848 13.472 71.3175 13.7497 69.7451 13.7497C68.0006 13.7497 66.2561 13.4467 65.3225 13.0175C64.7573 12.7398 64.1922 12.3612 64.0448 11.629ZM79.0644 2.31331C79.1873 3.42413 79.261 5.19134 79.261 7.11002H81.2757C81.6443 7.11002 82.1111 7.51396 82.1111 8.04412C82.1111 8.49854 81.718 8.97821 81.3003 8.97821H79.2856C79.261 11.3766 79.1873 13.1689 79.0644 14.4564C78.9907 14.9613 78.4502 15.3148 77.9588 15.2643C77.4428 15.239 77.0497 14.8099 77.0743 14.2797C77.3445 11.2754 77.32 5.77199 77.0743 2.49003C77.0497 1.95987 77.4183 1.58119 77.9342 1.50545C78.4502 1.45495 78.9907 1.75791 79.0644 2.31331ZM79.261 20.4649C77.492 21.2475 74.5681 21.4748 72.3323 21.5C70.121 21.5 68.5497 21.298 67.2721 20.7679C66.6824 20.5154 66.1419 20.1115 65.9944 19.3794C65.7733 18.3695 65.7979 18.1427 65.9453 16.7795C65.9699 16.426 66.3384 15.9716 66.9527 15.9716C67.5424 15.9716 67.9109 16.4765 67.8863 16.8552C67.7635 17.8398 67.6898 17.8394 67.8863 18.8239C67.9109 18.9249 67.9601 18.9754 68.0829 19.0259C68.8691 19.3541 70.4404 19.6318 72.5288 19.6318C74.5927 19.6318 76.8777 19.3036 78.5485 18.7482C78.8924 18.5967 79.5067 18.7735 79.6541 19.3036C79.8261 19.8085 79.5804 20.3134 79.261 20.4649Z" fill="#282A2A"/>
<path d="M5.13666 9.58367C5.16123 9.73515 5.21037 9.91187 5.38236 10.0129C6.1686 10.341 7.93764 10.6188 10.714 10.6188C12.7779 10.6188 13.8664 10.2906 15.5371 9.73515C15.9057 9.58367 16.4954 9.83613 16.6428 10.341C16.8148 10.846 16.5691 11.3256 16.2497 11.4771C14.4806 12.2597 12.7534 12.4869 10.5175 12.5122C8.28162 12.5122 5.84919 12.3102 4.57155 11.7801C3.98187 11.5276 3.44133 11.1237 3.29391 10.3915C2.92536 8.57384 3.04821 5.26693 3.26934 3.62595C3.39219 2.94431 3.90816 2.26267 4.52241 2.26267H15.2423C15.5863 2.26267 16.0777 2.64136 16.0777 3.17153C16.0777 3.62595 15.6845 4.10562 15.2914 4.10562H5.52978C5.1858 4.10562 5.1858 4.35808 5.16123 4.5348C5.03838 5.84758 4.79268 7.66499 5.13666 9.58367ZM1.84429 19.7834C1.32832 19.7077 0.935196 19.228 1.00891 18.7231C1.08262 18.1677 1.54945 17.8143 2.04085 17.89C3.78531 18.0667 5.96344 18.1677 8.81356 18.1929V15.4916C8.81356 15.113 9.20668 14.6333 9.77178 14.6333C10.3123 14.6333 10.8283 15.0372 10.8283 15.4664V18.1929C13.6784 18.1929 16.4057 18.092 18.1256 17.89C18.6661 17.8143 19.1575 18.2182 19.1821 18.7231C19.2312 19.228 18.8135 19.7077 18.3467 19.7834C15.4966 20.1621 5.16123 20.2631 1.84429 19.7834Z" stroke="#282A2A" stroke-width="1.2" mask="url(#path-1-outside-1_971_1318)"/>
<path d="M22.3188 11.629C22.1222 10.6444 22.1468 8.24609 22.3679 7.36248C22.4907 7.00904 22.8102 6.45363 23.3261 6.45363H29.3531C29.4268 6.10019 29.5006 4.8379 29.4023 4.08052C29.3777 3.9038 29.3531 3.65134 29.0092 3.65134H23.3998C23.0313 3.65134 22.6136 3.17167 22.6136 2.71725C22.6136 2.26282 23.0067 1.8084 23.4244 1.8084H29.9674C30.6062 1.8084 31.1222 2.49003 31.245 3.17167C31.417 4.38347 31.3679 6.50412 31.1713 7.31199C31.0485 7.76641 30.6308 8.29658 29.8691 8.29658H24.1615C24.0632 8.65002 24.0632 10.0385 24.1615 10.7959C24.1615 10.9474 24.2106 11.1241 24.4072 11.2503C25.1443 11.6543 26.6676 11.831 28.1418 11.831C29.7143 11.831 30.2868 11.4523 30.901 11.1494C31.2696 10.9726 32.0067 11.2251 32.1541 11.8057C32.277 12.3359 31.9084 12.7651 31.5644 12.9166C30.4588 13.472 29.5915 13.7497 28.019 13.7497C26.2745 13.7497 24.5301 13.4467 23.5964 13.0175C23.0313 12.7398 22.4662 12.3612 22.3188 11.629ZM37.3384 2.31331C37.4612 3.42413 37.5349 5.19134 37.5349 7.11002H39.5497C39.9182 7.11002 40.3851 7.51396 40.3851 8.04412C40.3851 8.49854 39.9919 8.97821 39.5742 8.97821H37.5595C37.5349 11.3766 37.4612 13.1689 37.3384 14.4564C37.2647 14.9613 36.7241 15.3148 36.2327 15.2643C35.7168 15.239 35.3236 14.8099 35.3482 14.2797C35.6185 11.2754 35.5939 5.77199 35.3482 2.49003C35.3236 1.95987 35.6922 1.58119 36.2082 1.50545C36.7241 1.45495 37.2647 1.75791 37.3384 2.31331ZM37.5349 20.4649C35.7659 21.2475 32.8421 21.4748 30.6062 21.5C28.3949 21.5 26.8237 21.298 25.546 20.7679C24.9564 20.5154 24.4158 20.1115 24.2684 19.3794C24.0473 18.3695 24.0718 18.1427 24.2192 16.7795C24.2438 16.426 24.6124 15.9716 25.2266 15.9716C25.8163 15.9716 26.1849 16.4765 26.1603 16.8552C26.0374 17.8398 25.9637 17.8394 26.1603 18.8239C26.1849 18.9249 26.234 18.9754 26.3568 19.0259C27.1431 19.3541 28.7143 19.6318 30.8028 19.6318C32.8666 19.6318 35.1516 19.3036 36.8224 18.7482C37.1664 18.5967 37.7806 18.7735 37.9281 19.3036C38.1 19.8085 37.8543 20.3134 37.5349 20.4649Z" stroke="#282A2A" stroke-width="1.2" mask="url(#path-1-outside-1_971_1318)"/>
<path d="M46.8627 9.58367C46.8873 9.73515 46.9364 9.91187 47.1084 10.0129C47.8947 10.341 49.6637 10.6188 52.4401 10.6188C54.504 10.6188 55.5924 10.2906 57.2632 9.73515C57.6317 9.58367 58.2214 9.83613 58.3688 10.341C58.5408 10.846 58.2951 11.3256 57.9757 11.4771C56.2067 12.2597 54.4794 12.4869 52.2435 12.5122C50.0077 12.5122 47.5752 12.3102 46.2976 11.7801C45.7079 11.5276 45.1674 11.1237 45.02 10.3915C44.6514 8.57384 44.7743 5.26693 44.9954 3.62595C45.1183 2.94431 45.6342 2.26267 46.2485 2.26267H56.9683C57.3123 2.26267 57.8037 2.64136 57.8037 3.17153C57.8037 3.62595 57.4106 4.10562 57.0175 4.10562H47.2558C46.9119 4.10562 46.9119 4.35808 46.8873 4.5348C46.7644 5.84758 46.5187 7.66499 46.8627 9.58367ZM43.5703 19.7834C43.0544 19.7077 42.6613 19.228 42.735 18.7231C42.8087 18.1677 43.2755 17.8143 43.7669 17.89C45.5114 18.0667 47.6895 18.1677 50.5396 18.1929V15.4916C50.5396 15.113 50.9327 14.6333 51.4978 14.6333C52.0384 14.6333 52.5544 15.0372 52.5544 15.4664V18.1929C55.4045 18.1929 58.1317 18.092 59.8516 17.89C60.3922 17.8143 60.8836 18.2182 60.9081 18.7231C60.9573 19.228 60.5396 19.7077 60.0728 19.7834C57.2227 20.1621 46.8873 20.2631 43.5703 19.7834Z" stroke="#282A2A" stroke-width="1.2" mask="url(#path-1-outside-1_971_1318)"/>
<path d="M64.0448 11.629C63.8483 10.6444 63.8728 8.24609 64.094 7.36248C64.2168 7.00904 64.5362 6.45363 65.0522 6.45363H71.0792C71.1529 6.10019 71.2266 4.8379 71.1283 4.08052C71.1038 3.9038 71.0792 3.65134 70.7352 3.65134H65.1259C64.7573 3.65134 64.3397 3.17167 64.3397 2.71725C64.3397 2.26282 64.7328 1.8084 65.1505 1.8084H71.6934C72.3323 1.8084 72.8482 2.49003 72.9711 3.17167C73.1431 4.38347 73.0939 6.50412 72.8974 7.31199C72.7745 7.76641 72.3568 8.29658 71.5952 8.29658H65.8876C65.7893 8.65002 65.7893 10.0385 65.8876 10.7959C65.8876 10.9474 65.9367 11.1241 66.1333 11.2503C66.8704 11.6543 68.3937 11.831 69.8679 11.831C71.4404 11.831 72.0129 11.4523 72.6271 11.1494C72.9957 10.9726 73.7327 11.2251 73.8802 11.8057C74.003 12.3359 73.6345 12.7651 73.2905 12.9166C72.1848 13.472 71.3175 13.7497 69.7451 13.7497C68.0006 13.7497 66.2561 13.4467 65.3225 13.0175C64.7573 12.7398 64.1922 12.3612 64.0448 11.629ZM79.0644 2.31331C79.1873 3.42413 79.261 5.19134 79.261 7.11002H81.2757C81.6443 7.11002 82.1111 7.51396 82.1111 8.04412C82.1111 8.49854 81.718 8.97821 81.3003 8.97821H79.2856C79.261 11.3766 79.1873 13.1689 79.0644 14.4564C78.9907 14.9613 78.4502 15.3148 77.9588 15.2643C77.4428 15.239 77.0497 14.8099 77.0743 14.2797C77.3445 11.2754 77.32 5.77199 77.0743 2.49003C77.0497 1.95987 77.4183 1.58119 77.9342 1.50545C78.4502 1.45495 78.9907 1.75791 79.0644 2.31331ZM79.261 20.4649C77.492 21.2475 74.5681 21.4748 72.3323 21.5C70.121 21.5 68.5497 21.298 67.2721 20.7679C66.6824 20.5154 66.1419 20.1115 65.9944 19.3794C65.7733 18.3695 65.7979 18.1427 65.9453 16.7795C65.9699 16.426 66.3384 15.9716 66.9527 15.9716C67.5424 15.9716 67.9109 16.4765 67.8863 16.8552C67.7635 17.8398 67.6898 17.8394 67.8863 18.8239C67.9109 18.9249 67.9601 18.9754 68.0829 19.0259C68.8691 19.3541 70.4404 19.6318 72.5288 19.6318C74.5927 19.6318 76.8777 19.3036 78.5485 18.7482C78.8924 18.5967 79.5067 18.7735 79.6541 19.3036C79.8261 19.8085 79.5804 20.3134 79.261 20.4649Z" stroke="#282A2A" stroke-width="1.2" mask="url(#path-1-outside-1_971_1318)"/>
</g>
<defs>
<clipPath id="clip0_971_1318">
<rect width="83" height="23" fill="white"/>
</clipPath>
</defs>
</svg>
