<svg width="126" height="76" viewBox="0 0 126 76" fill="none" xmlns="http://www.w3.org/2000/svg">
<path d="M34.9007 23.6947C31.9585 12.3759 37.6004 8.05153 40.7892 7.3042C41.3814 7.17696 41.9216 7.6782 41.8707 8.28182C41.5387 12.2192 42.1666 16.1734 42.5934 17.2643C43.2767 19.011 45.6447 20.7831 47.6382 21.8654C48.656 22.4181 49.4735 24.5224 48.832 25.4867C47.0992 28.0915 45.3828 30.5754 44.6855 32.8353C44.385 33.8092 43.2311 34.5019 42.3993 33.913C38.0581 30.8394 35.6267 25.9907 34.9007 23.6947Z" fill="#FF583E"/>
<path d="M79.6285 22.9927C80.8604 11.362 74.4084 7.91722 71.0284 7.64864C70.4057 7.61039 69.9352 8.20808 70.085 8.81369C71.0336 12.6477 71.0117 16.629 70.7474 17.7673C70.3225 19.5966 68.177 21.6996 66.307 23.0645C65.3626 23.7538 64.8692 25.9849 65.6702 26.8366C67.8684 29.1741 70.0281 31.393 71.0836 33.54C71.5276 34.443 72.7465 34.9566 73.4876 34.2758C77.499 30.5905 79.2441 25.3858 79.6285 22.9927Z" fill="#FF583E"/>
<path d="M55.9336 19.0469C74.1219 19.047 88.8666 33.7923 88.8672 51.9805C88.8672 69.7759 74.7529 84.2718 57.1084 84.8907C53.6652 88.5531 48.9827 90.8209 43.9561 91.2383L42.877 91.3282C41.9309 91.4067 41.2124 90.4923 41.5127 89.5918L42.21 87.501C42.8181 85.6768 42.8187 83.7337 42.2568 81.9473C30.8952 76.7534 23 65.2894 23 51.9805C23.0006 33.7922 37.7452 19.0469 55.9336 19.0469Z" fill="#FF583E"/>
<circle cx="40.314" cy="50.8101" r="1.09526" fill="#C3422E"/>
<circle cx="41.775" cy="47.1607" r="1.09526" fill="#C3422E"/>
<circle cx="37.3931" cy="48.6178" r="1.09526" fill="#C3422E"/>
<circle cx="74.5855" cy="50.08" r="1.09526" fill="#C3422E"/>
<circle cx="76.7759" cy="47.8918" r="1.09526" fill="#C3422E"/>
<circle cx="72.3951" cy="47.1607" r="1.09526" fill="#C3422E"/>
<circle cx="58.073" cy="38.6355" r="10.7166" fill="white"/>
<ellipse cx="58.9662" cy="40.0311" rx="6.25135" ry="6.25135" fill="#333333"/>
<path d="M41.2549 57.9063C41.2549 54.6142 43.8016 51.8369 47.0927 51.9171C47.9262 51.9374 48.7453 51.9824 49.4694 52.0649C49.7946 52.1019 50.1543 52.1527 50.5224 52.2103C52.6052 52.5361 54.4601 53.7129 56.4973 54.2554C57.3928 54.4939 57.9748 54.4939 58.8704 54.2554C60.9076 53.7129 62.7624 52.5361 64.8453 52.2103C65.2133 52.1527 65.5731 52.1019 65.8983 52.0649C66.6224 51.9824 67.4415 51.9374 68.275 51.9171C71.566 51.8369 74.1128 54.6142 74.1128 57.9063C74.1128 63.552 69.536 68.1287 63.8903 68.1287H51.4773C45.8316 68.1287 41.2549 63.552 41.2549 57.9063Z" fill="#333333"/>
<path d="M63.1611 53.1811C63.144 53.3997 63.1117 53.6175 63.0635 53.8315L62.8584 54.7387C62.7704 55.1284 62.6029 55.4962 62.3672 55.8188L62.2207 56.0199C61.7637 56.6449 61.035 57.0149 60.2607 57.0151C59.4864 57.015 58.7589 56.645 58.3018 56.0199L58.1543 55.8188C57.9514 55.5413 57.7996 55.2304 57.7051 54.9008C57.6106 55.2301 57.4595 55.5414 57.2568 55.8188L57.1094 56.0199C56.6524 56.6449 55.9246 57.0149 55.1504 57.0151C54.376 57.0151 53.6475 56.6451 53.1904 56.0199L53.0439 55.8188C52.808 55.4961 52.6407 55.1286 52.5527 54.7387L52.3477 53.8315C52.2994 53.6174 52.2671 53.3998 52.25 53.1811L52.21 52.6762C53.6117 53.1691 54.9605 53.8682 56.3994 54.2514C57.2945 54.4897 57.8772 54.4898 58.7725 54.2514C60.2955 53.8457 61.7164 53.0844 63.207 52.5903L63.1611 53.1811Z" fill="white"/>
<path d="M101.858 40.989C115.102 40.989 125.838 51.7249 125.838 64.9684C125.837 77.9252 115.561 88.4799 102.714 88.9304C100.207 91.5973 96.7969 93.2495 93.1367 93.5534L92.3516 93.6188C91.663 93.6759 91.1402 93.0097 91.3584 92.3542L91.8662 90.8317C92.3094 89.5026 92.3064 88.0873 91.8965 86.7858C83.626 83.0034 77.8793 74.6571 77.8789 64.9684C77.8789 51.725 88.6149 40.989 101.858 40.989Z" fill="#11AFB5"/>
<path d="M99.2724 71.5037C98.342 71.6599 96.7303 67.7804 96.7303 67.7804L100.459 67.1543C100.459 67.1543 100.223 71.3441 99.2724 71.5037Z" fill="white"/>
<path d="M107.164 70.1882C106.234 70.3444 104.622 66.4648 104.622 66.4648L108.351 65.8387C108.351 65.8387 108.114 70.0286 107.164 70.1882Z" fill="white"/>
<path d="M95.415 67.9802L109.882 66.665M108.567 64.0345C109.444 65.3497 110.54 67.9802 110.54 69.2954" stroke="#3C3C3C" stroke-width="1.77827" stroke-linecap="round"/>
<ellipse cx="102.236" cy="55.2708" rx="6.8206" ry="6.8206" fill="white"/>
<circle cx="99.881" cy="55.5342" r="3.97869" fill="#333333"/>
<circle cx="88.8628" cy="62.3544" r="3.18991" fill="#128287"/>
<circle cx="115.166" cy="62.3544" r="3.18991" fill="#128287"/>
<path d="M90.0711 40.4919C90.2125 33.6748 94.0631 32.1417 95.9707 32.2273C96.3232 32.2496 96.5469 32.6164 96.4228 32.9471C95.613 35.1039 95.3392 37.4221 95.4059 38.1018C95.5128 39.1902 96.5609 40.5595 97.5081 41.4825C97.9918 41.9538 98.1172 43.264 97.6046 43.7035C96.2198 44.8907 94.8634 46.0128 94.1142 47.1704C93.7914 47.6693 93.0342 47.8753 92.6607 47.4131C90.7115 45.001 90.1149 41.8952 90.0711 40.4919Z" fill="#11AFB5"/>
<path d="M117.532 42.9359C118.496 36.1853 114.809 34.0418 112.845 33.8139C112.483 33.7785 112.197 34.1168 112.271 34.4728C112.743 36.7268 112.646 39.0461 112.468 39.7037C112.182 40.7606 110.887 41.9406 109.769 42.6964C109.204 43.078 108.869 44.3676 109.318 44.8808C110.549 46.2892 111.761 47.6277 112.331 48.9009C112.57 49.4364 113.27 49.7614 113.716 49.3804C116.131 47.3179 117.258 44.3222 117.532 42.9359Z" fill="#11AFB5"/>
<path d="M114.777 14.2102C108.825 14.2103 104 17.4808 104 21.5149C104 24.2637 106.241 26.6559 109.552 27.9026L109.542 30.1497C109.54 30.635 110.17 30.8253 110.473 30.4309L111.911 28.5559C112.824 28.7262 113.785 28.8196 114.777 28.8196C120.73 28.8196 125.555 25.5492 125.555 21.5149C125.555 17.4807 120.729 14.2102 114.777 14.2102Z" fill="white"/>
<path d="M110.399 22.224C110.399 21.8695 110.485 21.6204 110.658 21.4768C110.83 21.3331 111.036 21.2612 111.275 21.2612C111.525 21.2612 111.735 21.3331 111.908 21.4768C112.09 21.6204 112.181 21.8695 112.181 22.224C112.181 22.5689 112.09 22.8179 111.908 22.9712C111.735 23.1245 111.525 23.2011 111.275 23.2011C111.036 23.2011 110.83 23.1245 110.658 22.9712C110.485 22.8179 110.399 22.5689 110.399 22.224ZM114.244 22.224C114.244 21.8695 114.33 21.6204 114.503 21.4768C114.675 21.3331 114.881 21.2612 115.12 21.2612C115.37 21.2612 115.58 21.3331 115.753 21.4768C115.935 21.6204 116.026 21.8695 116.026 22.224C116.026 22.5689 115.935 22.8179 115.753 22.9712C115.58 23.1245 115.37 23.2011 115.12 23.2011C114.881 23.2011 114.675 23.1245 114.503 22.9712C114.33 22.8179 114.244 22.5689 114.244 22.224ZM118.089 22.224C118.089 21.8695 118.175 21.6204 118.348 21.4768C118.52 21.3331 118.726 21.2612 118.966 21.2612C119.215 21.2612 119.425 21.3331 119.598 21.4768C119.78 21.6204 119.871 21.8695 119.871 22.224C119.871 22.5689 119.78 22.8179 119.598 22.9712C119.425 23.1245 119.215 23.2011 118.966 23.2011C118.726 23.2011 118.52 23.1245 118.348 22.9712C118.175 22.8179 118.089 22.5689 118.089 22.224Z" fill="#959595"/>
<path d="M14.1338 0C21.9393 5.82206e-05 28.2673 4.58216 28.2676 10.2344C28.2676 13.2137 26.508 15.8943 23.7021 17.7646L24.8301 20.4473C24.9912 20.831 24.5649 21.1955 24.2109 20.9766L21.1836 19.1035C19.1083 19.9703 16.7017 20.4697 14.1338 20.4697C6.32802 20.4697 0 15.8868 0 10.2344C0.000323833 4.58212 6.32822 0 14.1338 0Z" fill="white"/>
<path d="M9.04156 12.9002C9.04156 12.8335 9.05083 12.7371 9.06936 12.6111C9.0879 12.4814 9.11755 12.3776 9.15832 12.2998C9.25098 12.2479 9.36774 12.2071 9.50858 12.1774C9.65314 12.1441 9.78843 12.1274 9.91445 12.1274C10.0405 12.1274 10.1776 12.1441 10.3259 12.1774C10.4741 12.2071 10.5909 12.2479 10.6761 12.2998C10.7132 12.3776 10.741 12.4814 10.7595 12.6111C10.7781 12.7371 10.7873 12.8335 10.7873 12.9002C10.7873 12.9669 10.7781 13.0652 10.7595 13.1949C10.741 13.3209 10.7132 13.4228 10.6761 13.5007C10.5909 13.5526 10.4741 13.5933 10.3259 13.623C10.1776 13.6563 10.0405 13.673 9.91445 13.673C9.78843 13.673 9.65314 13.6563 9.50858 13.623C9.36774 13.5933 9.25098 13.5526 9.15832 13.5007C9.11755 13.4228 9.0879 13.3209 9.06936 13.1949C9.05083 13.0652 9.04156 12.9669 9.04156 12.9002ZM12.0712 12.9002C12.0712 12.8335 12.0805 12.7371 12.099 12.6111C12.1175 12.4814 12.1472 12.3776 12.188 12.2998C12.2806 12.2479 12.3974 12.2071 12.5382 12.1774C12.6828 12.1441 12.8181 12.1274 12.9441 12.1274C13.0701 12.1274 13.2072 12.1441 13.3555 12.1774C13.5038 12.2071 13.6205 12.2479 13.7058 12.2998C13.7428 12.3776 13.7706 12.4814 13.7892 12.6111C13.8077 12.7371 13.817 12.8335 13.817 12.9002C13.817 12.9669 13.8077 13.0652 13.7892 13.1949C13.7706 13.3209 13.7428 13.4228 13.7058 13.5007C13.6205 13.5526 13.5038 13.5933 13.3555 13.623C13.2072 13.6563 13.0701 13.673 12.9441 13.673C12.8181 13.673 12.6828 13.6563 12.5382 13.623C12.3974 13.5933 12.2806 13.5526 12.188 13.5007C12.1472 13.4228 12.1175 13.3209 12.099 13.1949C12.0805 13.0652 12.0712 12.9669 12.0712 12.9002ZM14.5393 6.41197C14.8432 6.23776 15.1824 6.09506 15.5567 5.98387C15.9311 5.87267 16.3221 5.81707 16.7298 5.81707C17.4118 5.81707 17.9419 5.99684 18.3199 6.35637C18.698 6.7159 18.887 7.18663 18.887 7.76855C18.887 8.29858 18.7462 8.7378 18.4645 9.08621C18.1865 9.43092 17.8437 9.71632 17.4359 9.94242L16.7465 10.3149L16.652 11.3324C16.5705 11.362 16.4871 11.3824 16.4018 11.3935C16.3166 11.4009 16.2313 11.4046 16.1461 11.4046C16.0571 11.4046 15.9645 11.4009 15.8681 11.3935C15.7754 11.3824 15.6865 11.362 15.6012 11.3324L15.5234 9.67555L15.6346 9.53656L16.2072 9.25857C16.5668 9.08436 16.8596 8.88977 17.0857 8.67479C17.3118 8.45981 17.4248 8.20407 17.4248 7.90755C17.4248 7.64068 17.3377 7.42755 17.1635 7.26817C16.9893 7.10509 16.741 7.02354 16.4185 7.02354C16.1776 7.02354 15.9404 7.06246 15.7068 7.1403C15.4733 7.21813 15.2528 7.31265 15.0452 7.42385C14.9192 7.32377 14.8062 7.17551 14.7061 6.97906C14.606 6.78262 14.5504 6.59359 14.5393 6.41197ZM16.135 12.2386C16.2647 12.2386 16.3944 12.2534 16.5241 12.2831C16.6539 12.309 16.7595 12.3461 16.841 12.3943C16.8781 12.4536 16.9059 12.5425 16.9244 12.6611C16.943 12.7797 16.9522 12.8835 16.9522 12.9725C16.9522 13.0577 16.943 13.1597 16.9244 13.2783C16.9059 13.3969 16.8781 13.484 16.841 13.5396C16.7595 13.5915 16.6539 13.6304 16.5241 13.6563C16.3944 13.6823 16.2647 13.6953 16.135 13.6953C16.0089 13.6953 15.8811 13.6823 15.7513 13.6563C15.6253 13.6304 15.5178 13.5915 15.4289 13.5396C15.3955 13.484 15.3696 13.3969 15.351 13.2783C15.3362 13.1597 15.3288 13.0577 15.3288 12.9725C15.3288 12.8835 15.3362 12.7797 15.351 12.6611C15.3696 12.5425 15.3955 12.4536 15.4289 12.3943C15.6179 12.2905 15.8533 12.2386 16.135 12.2386Z" fill="#959595"/>
</svg>
