<svg width="52" height="52" viewBox="0 0 52 52" fill="none" xmlns="http://www.w3.org/2000/svg">
<g clip-path="url(#clip0_988_5593)">
<rect width="52" height="52" fill="#EFE8D3"/>
<path d="M14.6698 17.209C13.9887 9.52301 17.8391 7.32558 19.8495 7.1876C20.2255 7.16932 20.5087 7.52653 20.4225 7.89291C19.8245 10.4332 19.8185 13.1039 19.9721 13.8652C20.2125 15.0564 21.4406 16.4415 22.5326 17.364C23.1257 17.865 23.4404 19.3421 22.9312 19.9282C21.6759 21.3731 20.4447 22.7475 19.7862 24.0887C19.4714 24.7299 18.5774 25.0636 18.0962 24.5357C15.8522 22.0744 14.8824 18.7525 14.6698 17.209Z" fill="#A59259"/>
<path d="M44.5033 20.2587C46.7298 12.8708 43.4053 9.9378 41.4648 9.39477C41.1004 9.30058 40.7505 9.5929 40.7606 9.96915C40.8307 12.578 40.2947 15.1943 39.9898 15.9086C39.5127 17.0262 38.0291 18.1333 36.7726 18.815C36.0902 19.1853 35.4823 20.5678 35.862 21.2451C36.798 22.9146 37.7247 24.5102 38.0974 25.9572C38.2756 26.6488 39.0832 27.157 39.6615 26.7378C42.3582 24.7829 43.9819 21.727 44.5033 20.2587Z" fill="#A59259"/>
<path d="M25.6216 18.0327C36.3751 18.0328 45.0929 26.7509 45.0933 37.5044C45.0933 47.9705 36.8354 56.5062 26.48 56.9556L25.27 58.5903C24.0594 60.2249 22.3968 61.47 20.4878 62.1724L20.1187 62.3081C19.3983 62.5728 18.711 61.8473 19.0142 61.1421L19.6919 59.5659C20.1674 58.4594 20.2035 57.2179 19.8032 56.0903C11.8918 53.6161 6.1499 46.2313 6.1499 37.5044C6.15022 26.751 14.8681 18.0328 25.6216 18.0327Z" fill="#D9C381"/>
<circle cx="15.6" cy="22.3871" r="5.85" fill="#D9C381"/>
<circle cx="10.2001" cy="45.787" r="5.85" fill="#D9C381"/>
<circle cx="29.1" cy="22.3869" r="8.55" fill="#D9C381"/>
<circle cx="37.2" cy="25.9868" r="6.75" fill="#D9C381"/>
<circle cx="42.6" cy="34.0868" r="5.85" fill="#D9C381"/>
<circle cx="29.9999" cy="52.0868" r="5.85" fill="#D9C381"/>
<circle cx="15.6" cy="49.3871" r="5.85" fill="#D9C381"/>
<circle cx="11.1" cy="33.1867" r="8.55" fill="#D9C381"/>
<circle cx="36.7501" cy="44.4371" r="9.9" fill="#D9C381"/>
<circle cx="13.2291" cy="37.6949" r="2.94684" fill="#A59259"/>
<circle cx="37.5291" cy="37.6929" r="2.94684" fill="#A59259"/>
<circle cx="25.4999" cy="30.4864" r="7.65" fill="white"/>
<circle cx="26.0638" cy="30.7867" r="4.4625" fill="#333333"/>
<path d="M23.2133 47.2023C22.3538 47.3466 20.8649 43.7626 20.8649 43.7626L24.3094 43.1843C24.3094 43.1843 24.0913 47.0548 23.2133 47.2023Z" fill="white"/>
<path d="M30.5036 45.9874C29.6441 46.1318 28.1552 42.5478 28.1552 42.5478L31.5997 41.9694C31.5997 41.9694 31.3816 45.84 30.5036 45.9874Z" fill="white"/>
<path d="M19.6501 43.9468L33.0151 42.7318M31.8001 40.3018C32.6101 41.5168 33.6226 43.9468 33.6226 45.1618" stroke="#3C3C3C" stroke-width="1.701" stroke-linecap="round"/>
</g>
<defs>
<clipPath id="clip0_988_5593">
<rect width="52" height="52" fill="white"/>
</clipPath>
</defs>
</svg>
