<svg width="52" height="52" viewBox="0 0 52 52" fill="none" xmlns="http://www.w3.org/2000/svg">
<g clip-path="url(#clip0_988_5562)">
<rect width="52" height="52" fill="#D9E5F7"/>
<path d="M11.5454 17.7454C10.7886 9.20547 15.0669 6.76388 17.3006 6.61057C17.7184 6.59026 18.033 6.98716 17.9372 7.39425C17.2729 10.2168 17.2661 13.1843 17.4368 14.0302C17.7039 15.3537 19.0685 16.8927 20.2818 17.9177C20.9408 18.4744 21.2905 20.1156 20.7247 20.7668C19.3299 22.3723 17.9619 23.8993 17.2302 25.3896C16.8805 26.102 15.8871 26.4728 15.3525 25.8863C12.8592 23.1514 11.7816 19.4605 11.5454 17.7454Z" fill="#6485B8"/>
<path d="M39.6935 19.1341C42.1675 10.9254 38.4736 7.66646 36.3174 7.06309C35.9125 6.95844 35.5238 7.28323 35.535 7.70129C35.6129 10.6 35.0174 13.507 34.6785 14.3007C34.1484 15.5425 32.5 16.7726 31.1039 17.53C30.3457 17.9415 29.6703 19.4776 30.0921 20.2301C31.1321 22.0851 32.1618 23.858 32.5759 25.4657C32.7738 26.2343 33.6713 26.7989 34.3138 26.3331C37.3101 24.1611 39.1143 20.7656 39.6935 19.1341Z" fill="#6485B8"/>
<path d="M25.6348 15.0596C37.5834 15.0596 47.2695 24.7457 47.2695 36.6943C47.2695 48.3847 37.9976 57.9073 26.4062 58.3135C24.1443 60.7192 21.0686 62.2092 17.7666 62.4834L17.0576 62.542C16.4362 62.5936 15.9639 61.9929 16.1611 61.4014L16.6191 60.0283C17.019 58.8294 17.017 57.5529 16.6475 56.3789C9.18525 52.9663 4.00004 45.4362 4 36.6943C4.00006 24.7458 13.6862 15.0597 25.6348 15.0596Z" fill="#92B6EE"/>
<circle cx="11.8656" cy="36.91" r="3.27427" fill="#6485B8"/>
<circle cx="38.8656" cy="36.91" r="3.27427" fill="#6485B8"/>
<circle cx="24.5" cy="31.4092" r="6.5" fill="white"/>
<circle cx="25.0419" cy="31.6657" r="3.79167" fill="#333333"/>
<circle cx="26" cy="29.4033" r="8.25" fill="white" fill-opacity="0.3" stroke="#3C3C3C" stroke-width="1.5"/>
<circle cx="32.5" cy="28.9053" r="0.5" fill="white"/>
<path d="M29.5 23.9033C30.1667 24.2367 31.6 25.3033 32 26.9033" stroke="white" stroke-linecap="round" stroke-linejoin="round"/>
<path d="M34.5 29.4033L42.5 21.4033L40 20.4033" stroke="#3C3C3C" stroke-width="1.5" stroke-linecap="round" stroke-linejoin="round"/>
<path d="M17.5 28.9033L8 20.9033L11.5 19.9033" stroke="#3C3C3C" stroke-width="1.5" stroke-linecap="round" stroke-linejoin="round"/>
<path d="M35 45.4475C35 47.0675 33.7414 48.4222 32.1215 48.4056C31.557 48.3998 30.989 48.3778 30.5 48.3277C30.3129 48.3085 30.1049 48.2818 29.8927 48.2517C28.7712 48.0922 27.7515 47.5116 26.65 47.2476C26.1594 47.13 25.8406 47.13 25.35 47.2476C24.2485 47.5116 23.2288 48.0922 22.1073 48.2517C21.8951 48.2818 21.6871 48.3085 21.5 48.3277C21.011 48.3778 20.443 48.3998 19.8785 48.4056C18.2586 48.4222 17 47.0675 17 45.4475C17 42.6638 19.2566 40.4072 22.0403 40.4072H29.9597C32.7434 40.4072 35 42.6638 35 45.4475Z" fill="#333333"/>
<path d="M22.9346 47.793C22.9449 47.6751 22.9642 47.5581 22.9932 47.4434L23.0928 47.0508C23.1479 46.8321 23.2499 46.6278 23.3926 46.4531L23.4258 46.4131C23.6974 46.0807 24.104 45.8878 24.5332 45.8877C24.9627 45.8877 25.3699 46.0805 25.6416 46.4131L25.6738 46.4531C25.7926 46.5985 25.8824 46.7648 25.9414 46.9424C26.0004 46.7649 26.0893 46.5985 26.208 46.4531L26.2402 46.4131C26.5119 46.0805 26.9192 45.8877 27.3486 45.8877C27.7779 45.8878 28.1844 46.0807 28.4561 46.4131L28.4893 46.4531C28.6319 46.6278 28.7339 46.8321 28.7891 47.0508L28.8887 47.4434C28.9176 47.5581 28.937 47.6751 28.9473 47.793L28.9678 48.0303C28.1957 47.7876 27.4477 47.44 26.6592 47.252C26.1662 47.1344 25.8456 47.1344 25.3525 47.252C24.5182 47.4509 23.7302 47.8305 22.9102 48.0732L22.9346 47.793Z" fill="white"/>
</g>
<defs>
<clipPath id="clip0_988_5562">
<rect width="52" height="52" fill="white"/>
</clipPath>
</defs>
</svg>
