<svg width="252" height="132" viewBox="0 0 252 132" fill="none" xmlns="http://www.w3.org/2000/svg">
<g filter="url(#filter0_f_6619_54256)">
<ellipse cx="126" cy="121.5" rx="118" ry="3.5" fill="black" fill-opacity="0.12"/>
</g>
<path d="M139.353 24.8413C138.146 7.73497 147.439 3.0132 152.236 2.79061C153.124 2.76593 153.768 3.63333 153.533 4.48989C151.999 10.0772 151.844 15.946 152.167 17.6331C152.676 20.291 155.529 23.4212 158.081 25.5166C159.441 26.6323 160.071 30.013 158.845 31.2739C155.725 34.4844 152.674 37.5343 151.065 40.5352C150.335 41.8992 148.413 42.6114 147.341 41.4961C141.967 35.9094 139.782 28.3279 139.353 24.8413Z" fill="#9ADAD5"/>
<path d="M190.467 32.8077C197.807 17.3076 190.546 9.41418 185.998 7.40496C185.155 7.05035 184.214 7.64958 184.128 8.56035C183.584 14.3262 181.625 19.8257 180.707 21.2731C179.257 23.5614 175.373 25.4095 172.153 26.4049C170.458 26.9292 168.632 29.8929 169.353 31.515C171.219 35.7133 173.073 39.7319 173.517 43.1494C173.713 44.6645 175.208 46.0127 176.609 45.4022C183.887 42.2296 188.784 35.9183 190.467 32.8077Z" fill="#9ADAD5"/>
<path d="M66.1335 30.4956C58.3753 15.202 65.1039 7.24089 69.4379 5.17205C70.2465 4.80437 71.1772 5.35332 71.2932 6.23397C72.0503 11.9784 74.1876 17.4463 75.1405 18.8755C76.6417 21.127 80.4867 22.903 83.6529 23.8421C85.3389 24.3421 87.2332 27.2124 86.5936 28.8505C84.9652 33.0211 83.3388 37.0167 83.0228 40.4067C82.8792 41.9474 81.3857 43.35 79.9639 42.7391C72.842 39.6788 67.8832 33.5417 66.1335 30.4956Z" fill="#FF583E"/>
<path d="M114.033 27.5489C119.736 11.3751 111.701 4.2718 106.97 2.74185C106.095 2.476 105.221 3.16898 105.229 4.08377C105.282 9.87506 103.899 15.5472 103.136 17.0814C101.929 19.5069 98.2564 21.7454 95.1567 23.0671C93.5238 23.7634 92.0132 26.8994 92.8976 28.4386C95.1867 32.4222 97.4447 36.2285 98.2378 39.5821C98.5895 41.0689 100.215 42.2559 101.545 41.5043C108.458 37.5987 112.679 30.8164 114.033 27.5489Z" fill="#FF583E"/>
<path d="M161.692 20.4458C186.602 20.4459 206.796 40.6394 206.796 65.5493C206.796 82.4892 197.455 97.2444 183.646 104.955C182.273 107.815 182.041 111.129 183.064 114.197L184.02 117.06C184.431 118.293 183.447 119.545 182.151 119.438L180.673 119.316C173.797 118.745 167.39 115.646 162.676 110.64C162.349 110.647 162.021 110.653 161.692 110.653C149.58 110.653 138.582 105.877 130.479 98.1069C137.89 89.3515 142.362 78.0289 142.362 65.6597C142.362 53.2337 137.851 41.8626 130.379 33.0903C138.491 25.2626 149.529 20.4459 161.692 20.4458Z" fill="#9ADAD5"/>
<path d="M154.918 81.5015C153.008 81.8222 149.7 73.8579 149.7 73.8579L157.354 72.5726C157.354 72.5726 156.87 81.1739 154.918 81.5015Z" fill="white"/>
<path d="M171.119 78.8023C169.209 79.123 165.9 71.1587 165.9 71.1587L173.554 69.8734C173.554 69.8734 173.07 78.4747 171.119 78.8023Z" fill="white"/>
<path d="M147 74.2675L176.7 71.5675M174 66.1675C175.8 68.8675 178.05 74.2675 178.05 76.9675" stroke="#3C3C3C" stroke-width="3.78" stroke-linecap="round"/>
<path d="M92.1035 20.1821C117.014 20.1821 137.207 40.4299 137.207 65.4067C137.207 89.8428 117.879 109.748 93.7148 110.599C89.0038 115.629 82.5916 118.744 75.7051 119.317L74.2275 119.44C72.9304 119.548 71.9442 118.29 72.3555 117.053L73.3115 114.178C74.1439 111.676 74.143 109.009 73.373 106.557C57.8129 99.4248 47.0001 83.6826 47 65.4067C47.0001 40.43 67.1937 20.1824 92.1035 20.1821Z" fill="#FF583E"/>
<circle cx="78.5" cy="66.6675" r="1.5" fill="#C3422E"/>
<circle cx="80.5" cy="61.6675" r="1.5" fill="#C3422E"/>
<circle cx="74.5" cy="63.6675" r="1.5" fill="#C3422E"/>
<circle cx="125.5" cy="65.6675" r="1.5" fill="#C3422E"/>
<circle cx="128.5" cy="62.6675" r="1.5" fill="#C3422E"/>
<circle cx="122.5" cy="61.6675" r="1.5" fill="#C3422E"/>
<circle cx="184" cy="59.1675" r="5" fill="#54BDB4"/>
<circle cx="162.5" cy="49.6675" r="15" fill="white"/>
<circle cx="161.25" cy="50.9175" r="8.75" fill="#3C3C3C"/>
<path d="M142.262 56.4468C145.023 56.4469 147.262 58.6854 147.262 61.4468C147.261 64.171 145.082 66.3855 142.371 66.4438C142.376 66.1774 142.379 65.9105 142.379 65.6431C142.379 62.5199 142.093 59.4631 141.548 56.4976C141.781 56.4642 142.02 56.4468 142.262 56.4468Z" fill="#54BDB4"/>
<path d="M81.2451 78.3885C81.2451 73.8799 84.733 70.0763 89.2402 70.1861C90.3817 70.2139 91.5034 70.2755 92.4951 70.3885C92.9405 70.4392 93.4332 70.5087 93.9373 70.5876C96.7898 71.0339 99.3301 72.6455 102.12 73.3885C103.347 73.7151 104.144 73.7151 105.37 73.3885C108.16 72.6455 110.7 71.0339 113.553 70.5876C114.057 70.5087 114.55 70.4392 114.995 70.3885C115.987 70.2755 117.109 70.2139 118.25 70.1861C122.757 70.0763 126.245 73.8799 126.245 78.3885C126.245 86.1205 119.977 92.3885 112.245 92.3885H95.2451C87.5131 92.3885 81.2451 86.1205 81.2451 78.3885Z" fill="#3C3C3C"/>
<path d="M111.243 71.9185C111.22 72.2182 111.175 72.5158 111.108 72.8091L110.828 74.0513C110.708 74.5852 110.479 75.0889 110.156 75.5308L109.954 75.8062C109.328 76.6623 108.331 77.1685 107.271 77.1685C106.21 77.1684 105.213 76.6622 104.587 75.8062L104.386 75.5308C104.108 75.1506 103.9 74.7245 103.771 74.2729C103.641 74.7244 103.434 75.1507 103.156 75.5308L102.954 75.8062C102.328 76.6623 101.331 77.1685 100.271 77.1685C99.21 77.1684 98.2129 76.6622 97.5869 75.8062L97.3857 75.5308C97.0626 75.0889 96.8334 74.5853 96.7129 74.0513L96.4326 72.8091C96.3664 72.5158 96.3213 72.2182 96.2979 71.9185L96.2451 71.231C98.1654 71.9057 100.012 72.8641 101.983 73.3892C103.21 73.7158 104.007 73.7158 105.233 73.3892C107.319 72.8338 109.265 71.7932 111.306 71.1167L111.243 71.9185Z" fill="white"/>
<circle cx="104" cy="51.1675" r="15" fill="white"/>
<circle cx="107.75" cy="52.416" r="8.75" fill="#3C3C3C"/>
<defs>
<filter id="filter0_f_6619_54256" x="0" y="110" width="252" height="23" filterUnits="userSpaceOnUse" color-interpolation-filters="sRGB">
<feFlood flood-opacity="0" result="BackgroundImageFix"/>
<feBlend mode="normal" in="SourceGraphic" in2="BackgroundImageFix" result="shape"/>
<feGaussianBlur stdDeviation="4" result="effect1_foregroundBlur_6619_54256"/>
</filter>
</defs>
</svg>
