<svg width="147" height="40" viewBox="0 0 147 40" fill="none" xmlns="http://www.w3.org/2000/svg">
<mask id="path-1-outside-1_1980_55543" maskUnits="userSpaceOnUse" x="1.52441" y="1.60869" width="143" height="37" fill="black">
<rect fill="white" x="1.52441" y="1.60869" width="143" height="37"/>
<path d="M9.71861 16.6672C9.76134 16.9307 9.8468 17.238 10.1459 17.4136C11.5133 17.9844 14.5899 18.4674 19.4184 18.4674C23.0078 18.4674 24.9007 17.8966 27.8064 16.9307C28.4473 16.6672 29.4729 17.1063 29.7292 17.9844C30.0284 18.8625 29.601 19.6967 29.0456 19.9602C25.969 21.3213 22.965 21.7164 19.0766 21.7603C15.1881 21.7603 10.9578 21.4091 8.73581 20.4871C7.71028 20.048 6.77021 19.3455 6.51383 18.0722C5.87287 14.911 6.08653 9.15987 6.4711 6.30599C6.68475 5.12054 7.58209 3.93508 8.65035 3.93508H27.2936C27.8918 3.93508 28.7464 4.59367 28.7464 5.51569C28.7464 6.30599 28.0628 7.1402 27.3791 7.1402H10.4023C9.80407 7.1402 9.80407 7.57926 9.76134 7.8866C9.54769 10.1697 9.12039 13.3304 9.71861 16.6672ZM3.99274 34.406C3.0954 34.2742 2.41171 33.44 2.5399 32.5619C2.66809 31.596 3.47997 30.9813 4.33458 31.113C7.36844 31.4204 11.1565 31.596 16.1132 31.6399V26.942C16.1132 26.2834 16.7969 25.4492 17.7797 25.4492C18.7198 25.4492 19.6171 26.1517 19.6171 26.8981V31.6399C24.5738 31.6399 29.3169 31.4643 32.308 31.113C33.2481 30.9813 34.1027 31.6838 34.1454 32.5619C34.2309 33.44 33.5045 34.2742 32.6926 34.406C27.7359 35.0645 9.76134 35.2402 3.99274 34.406Z"/>
<path d="M39.6005 20.2244C39.2587 18.5121 39.3014 14.341 39.686 12.8043C39.8996 12.1896 40.4551 11.2237 41.3525 11.2237H51.8342C51.9624 10.609 52.0906 8.41373 51.9197 7.09655C51.8769 6.78921 51.8342 6.35015 51.236 6.35015H41.4807C40.8397 6.35015 40.1133 5.51594 40.1133 4.72564C40.1133 3.93533 40.797 3.14503 41.5234 3.14503H52.9025C54.0135 3.14503 54.9108 4.33049 55.1245 5.51594C55.4236 7.62342 55.3381 11.3115 54.9963 12.7165C54.7826 13.5068 54.0562 14.4288 52.7316 14.4288H42.8053C42.6344 15.0435 42.6344 17.4583 42.8053 18.7755C42.8053 19.0389 42.8908 19.3463 43.2326 19.5658C44.5145 20.2683 47.1638 20.5756 49.7276 20.5756C52.4624 20.5756 53.458 19.917 54.5262 19.3902C55.1672 19.0828 56.4491 19.5219 56.7055 20.5317C56.9191 21.4537 56.2782 22.2001 55.6799 22.4636C53.7571 23.4295 52.2487 23.9125 49.514 23.9125C46.4801 23.9125 43.4463 23.3856 41.8225 22.6392C40.8397 22.1562 39.8569 21.4977 39.6005 20.2244ZM65.7216 4.02315C65.9352 5.955 66.0634 9.02841 66.0634 12.3652H69.5673C70.2083 12.3652 71.0202 13.0677 71.0202 13.9898C71.0202 14.7801 70.3365 15.6143 69.6101 15.6143H66.1062C66.0634 19.7853 65.9352 22.9024 65.7216 25.1416C65.5934 26.0197 64.6533 26.6344 63.7987 26.5466C62.9014 26.5027 62.2177 25.7563 62.2604 24.8342C62.7305 19.6094 62.6877 10.0382 62.2604 4.33049C62.2177 3.40847 62.8587 2.74988 63.756 2.61816C64.6533 2.53035 65.5934 3.05722 65.7216 4.02315ZM66.0634 35.5912C62.9868 36.9522 57.9019 37.3474 54.0135 37.3913C50.1677 37.3913 47.4351 37.04 45.2132 36.118C44.1876 35.679 43.2476 34.9765 42.9912 33.7032C42.6066 31.947 42.6493 31.5526 42.9057 29.1817C42.9484 28.567 43.5894 27.7767 44.6577 27.7767C45.6832 27.7767 46.3242 28.6548 46.2814 29.3134C46.0678 31.0257 45.9396 31.025 46.2814 32.7373C46.3242 32.9129 46.4096 33.0007 46.6233 33.0885C47.9906 33.6593 50.7232 34.1423 54.3553 34.1423C57.9447 34.1423 61.9186 33.5715 64.8243 32.6056C65.4225 32.3421 66.4907 32.6495 66.7471 33.5715C67.0462 34.4496 66.6189 35.3277 66.0634 35.5912Z"/>
<path d="M82.2857 16.6672C82.3284 16.9307 82.4139 17.238 82.713 17.4136C84.0804 17.9844 87.1569 18.4674 91.9855 18.4674C95.5748 18.4674 97.4678 17.8966 100.373 16.9307C101.014 16.6672 102.04 17.1063 102.296 17.9844C102.595 18.8625 102.168 19.6967 101.613 19.9602C98.536 21.3213 95.5321 21.7164 91.6436 21.7603C87.7552 21.7603 83.5249 21.4091 81.3029 20.4871C80.2773 20.048 79.3373 19.3455 79.0809 18.0722C78.4399 14.911 78.6536 9.15987 79.0382 6.30599C79.2518 5.12054 80.1491 3.93508 81.2174 3.93508H99.8607C100.459 3.93508 101.314 4.59367 101.314 5.51569C101.314 6.30599 100.63 7.1402 99.9461 7.1402H82.9694C82.3711 7.1402 82.3711 7.57926 82.3284 7.8866C82.1147 10.1697 81.6874 13.3304 82.2857 16.6672ZM76.5598 34.406C75.6625 34.2742 74.9788 33.44 75.107 32.5619C75.2352 31.596 76.047 30.9813 76.9016 31.113C79.9355 31.4204 83.7235 31.596 88.6803 31.6399V26.942C88.6803 26.2834 89.364 25.4492 90.3468 25.4492C91.2868 25.4492 92.1842 26.1517 92.1842 26.8981V31.6399C97.1409 31.6399 101.884 31.4643 104.875 31.113C105.815 30.9813 106.67 31.6838 106.712 32.5619C106.798 33.44 106.072 34.2742 105.26 34.406C100.303 35.0645 82.3284 35.2402 76.5598 34.406Z"/>
<path d="M112.168 20.2244C111.826 18.5121 111.868 14.341 112.253 12.8043C112.467 12.1896 113.022 11.2237 113.92 11.2237H124.401C124.529 10.609 124.658 8.41373 124.487 7.09655C124.444 6.78921 124.401 6.35015 123.803 6.35015H114.048C113.407 6.35015 112.68 5.51594 112.68 4.72564C112.68 3.93533 113.364 3.14503 114.09 3.14503H125.47C126.581 3.14503 127.478 4.33049 127.692 5.51594C127.991 7.62342 127.905 11.3115 127.563 12.7165C127.35 13.5068 126.623 14.4288 125.299 14.4288H115.372C115.201 15.0435 115.201 17.4583 115.372 18.7755C115.372 19.0389 115.458 19.3463 115.8 19.5658C117.082 20.2683 119.731 20.5756 122.295 20.5756C125.029 20.5756 126.025 19.917 127.093 19.3902C127.734 19.0828 129.016 19.5219 129.273 20.5317C129.486 21.4537 128.845 22.2001 128.247 22.4636C126.324 23.4295 124.816 23.9125 122.081 23.9125C119.047 23.9125 116.013 23.3856 114.39 22.6392C113.407 22.1562 112.424 21.4977 112.168 20.2244ZM138.289 4.02315C138.502 5.955 138.63 9.02841 138.63 12.3652H142.134C142.775 12.3652 143.587 13.0677 143.587 13.9898C143.587 14.7801 142.904 15.6143 142.177 15.6143H138.673C138.631 19.7853 138.502 22.9024 138.289 25.1416C138.16 26.0197 137.22 26.6344 136.366 26.5466C135.468 26.5027 134.785 25.7563 134.827 24.8342C135.298 19.6094 135.255 10.0382 134.827 4.33049C134.785 3.40847 135.426 2.74988 136.323 2.61816C137.22 2.53035 138.16 3.05722 138.289 4.02315ZM138.63 35.5912C135.554 36.9522 130.469 37.3474 126.581 37.3913C122.735 37.3913 120.002 37.04 117.78 36.118C116.755 35.679 115.815 34.9765 115.558 33.7032C115.174 31.947 115.216 31.5526 115.473 29.1817C115.516 28.567 116.156 27.7767 117.225 27.7767C118.25 27.7767 118.891 28.6548 118.848 29.3134C118.635 31.0257 118.507 31.025 118.848 32.7373C118.891 32.9129 118.977 33.0007 119.19 33.0885C120.558 33.6593 123.29 34.1423 126.922 34.1423C130.512 34.1423 134.486 33.5715 137.391 32.6056C137.99 32.3421 139.058 32.6495 139.314 33.5715C139.613 34.4496 139.186 35.3277 138.63 35.5912Z"/>
</mask>
<path d="M9.71861 16.6672C9.76134 16.9307 9.8468 17.238 10.1459 17.4136C11.5133 17.9844 14.5899 18.4674 19.4184 18.4674C23.0078 18.4674 24.9007 17.8966 27.8064 16.9307C28.4473 16.6672 29.4729 17.1063 29.7292 17.9844C30.0284 18.8625 29.601 19.6967 29.0456 19.9602C25.969 21.3213 22.965 21.7164 19.0766 21.7603C15.1881 21.7603 10.9578 21.4091 8.73581 20.4871C7.71028 20.048 6.77021 19.3455 6.51383 18.0722C5.87287 14.911 6.08653 9.15987 6.4711 6.30599C6.68475 5.12054 7.58209 3.93508 8.65035 3.93508H27.2936C27.8918 3.93508 28.7464 4.59367 28.7464 5.51569C28.7464 6.30599 28.0628 7.1402 27.3791 7.1402H10.4023C9.80407 7.1402 9.80407 7.57926 9.76134 7.8866C9.54769 10.1697 9.12039 13.3304 9.71861 16.6672ZM3.99274 34.406C3.0954 34.2742 2.41171 33.44 2.5399 32.5619C2.66809 31.596 3.47997 30.9813 4.33458 31.113C7.36844 31.4204 11.1565 31.596 16.1132 31.6399V26.942C16.1132 26.2834 16.7969 25.4492 17.7797 25.4492C18.7198 25.4492 19.6171 26.1517 19.6171 26.8981V31.6399C24.5738 31.6399 29.3169 31.4643 32.308 31.113C33.2481 30.9813 34.1027 31.6838 34.1454 32.5619C34.2309 33.44 33.5045 34.2742 32.6926 34.406C27.7359 35.0645 9.76134 35.2402 3.99274 34.406Z" fill="#282A2A"/>
<path d="M39.6005 20.2244C39.2587 18.5121 39.3014 14.341 39.686 12.8043C39.8996 12.1896 40.4551 11.2237 41.3525 11.2237H51.8342C51.9624 10.609 52.0906 8.41373 51.9197 7.09655C51.8769 6.78921 51.8342 6.35015 51.236 6.35015H41.4807C40.8397 6.35015 40.1133 5.51594 40.1133 4.72564C40.1133 3.93533 40.797 3.14503 41.5234 3.14503H52.9025C54.0135 3.14503 54.9108 4.33049 55.1245 5.51594C55.4236 7.62342 55.3381 11.3115 54.9963 12.7165C54.7826 13.5068 54.0562 14.4288 52.7316 14.4288H42.8053C42.6344 15.0435 42.6344 17.4583 42.8053 18.7755C42.8053 19.0389 42.8908 19.3463 43.2326 19.5658C44.5145 20.2683 47.1638 20.5756 49.7276 20.5756C52.4624 20.5756 53.458 19.917 54.5262 19.3902C55.1672 19.0828 56.4491 19.5219 56.7055 20.5317C56.9191 21.4537 56.2782 22.2001 55.6799 22.4636C53.7571 23.4295 52.2487 23.9125 49.514 23.9125C46.4801 23.9125 43.4463 23.3856 41.8225 22.6392C40.8397 22.1562 39.8569 21.4977 39.6005 20.2244ZM65.7216 4.02315C65.9352 5.955 66.0634 9.02841 66.0634 12.3652H69.5673C70.2083 12.3652 71.0202 13.0677 71.0202 13.9898C71.0202 14.7801 70.3365 15.6143 69.6101 15.6143H66.1062C66.0634 19.7853 65.9352 22.9024 65.7216 25.1416C65.5934 26.0197 64.6533 26.6344 63.7987 26.5466C62.9014 26.5027 62.2177 25.7563 62.2604 24.8342C62.7305 19.6094 62.6877 10.0382 62.2604 4.33049C62.2177 3.40847 62.8587 2.74988 63.756 2.61816C64.6533 2.53035 65.5934 3.05722 65.7216 4.02315ZM66.0634 35.5912C62.9868 36.9522 57.9019 37.3474 54.0135 37.3913C50.1677 37.3913 47.4351 37.04 45.2132 36.118C44.1876 35.679 43.2476 34.9765 42.9912 33.7032C42.6066 31.947 42.6493 31.5526 42.9057 29.1817C42.9484 28.567 43.5894 27.7767 44.6577 27.7767C45.6832 27.7767 46.3242 28.6548 46.2814 29.3134C46.0678 31.0257 45.9396 31.025 46.2814 32.7373C46.3242 32.9129 46.4096 33.0007 46.6233 33.0885C47.9906 33.6593 50.7232 34.1423 54.3553 34.1423C57.9447 34.1423 61.9186 33.5715 64.8243 32.6056C65.4225 32.3421 66.4907 32.6495 66.7471 33.5715C67.0462 34.4496 66.6189 35.3277 66.0634 35.5912Z" fill="#282A2A"/>
<path d="M82.2857 16.6672C82.3284 16.9307 82.4139 17.238 82.713 17.4136C84.0804 17.9844 87.1569 18.4674 91.9855 18.4674C95.5748 18.4674 97.4678 17.8966 100.373 16.9307C101.014 16.6672 102.04 17.1063 102.296 17.9844C102.595 18.8625 102.168 19.6967 101.613 19.9602C98.536 21.3213 95.5321 21.7164 91.6436 21.7603C87.7552 21.7603 83.5249 21.4091 81.3029 20.4871C80.2773 20.048 79.3373 19.3455 79.0809 18.0722C78.4399 14.911 78.6536 9.15987 79.0382 6.30599C79.2518 5.12054 80.1491 3.93508 81.2174 3.93508H99.8607C100.459 3.93508 101.314 4.59367 101.314 5.51569C101.314 6.30599 100.63 7.1402 99.9461 7.1402H82.9694C82.3711 7.1402 82.3711 7.57926 82.3284 7.8866C82.1147 10.1697 81.6874 13.3304 82.2857 16.6672ZM76.5598 34.406C75.6625 34.2742 74.9788 33.44 75.107 32.5619C75.2352 31.596 76.047 30.9813 76.9016 31.113C79.9355 31.4204 83.7235 31.596 88.6803 31.6399V26.942C88.6803 26.2834 89.364 25.4492 90.3468 25.4492C91.2868 25.4492 92.1842 26.1517 92.1842 26.8981V31.6399C97.1409 31.6399 101.884 31.4643 104.875 31.113C105.815 30.9813 106.67 31.6838 106.712 32.5619C106.798 33.44 106.072 34.2742 105.26 34.406C100.303 35.0645 82.3284 35.2402 76.5598 34.406Z" fill="#282A2A"/>
<path d="M112.168 20.2244C111.826 18.5121 111.868 14.341 112.253 12.8043C112.467 12.1896 113.022 11.2237 113.92 11.2237H124.401C124.529 10.609 124.658 8.41373 124.487 7.09655C124.444 6.78921 124.401 6.35015 123.803 6.35015H114.048C113.407 6.35015 112.68 5.51594 112.68 4.72564C112.68 3.93533 113.364 3.14503 114.09 3.14503H125.47C126.581 3.14503 127.478 4.33049 127.692 5.51594C127.991 7.62342 127.905 11.3115 127.563 12.7165C127.35 13.5068 126.623 14.4288 125.299 14.4288H115.372C115.201 15.0435 115.201 17.4583 115.372 18.7755C115.372 19.0389 115.458 19.3463 115.8 19.5658C117.082 20.2683 119.731 20.5756 122.295 20.5756C125.029 20.5756 126.025 19.917 127.093 19.3902C127.734 19.0828 129.016 19.5219 129.273 20.5317C129.486 21.4537 128.845 22.2001 128.247 22.4636C126.324 23.4295 124.816 23.9125 122.081 23.9125C119.047 23.9125 116.013 23.3856 114.39 22.6392C113.407 22.1562 112.424 21.4977 112.168 20.2244ZM138.289 4.02315C138.502 5.955 138.63 9.02841 138.63 12.3652H142.134C142.775 12.3652 143.587 13.0677 143.587 13.9898C143.587 14.7801 142.904 15.6143 142.177 15.6143H138.673C138.631 19.7853 138.502 22.9024 138.289 25.1416C138.16 26.0197 137.22 26.6344 136.366 26.5466C135.468 26.5027 134.785 25.7563 134.827 24.8342C135.298 19.6094 135.255 10.0382 134.827 4.33049C134.785 3.40847 135.426 2.74988 136.323 2.61816C137.22 2.53035 138.16 3.05722 138.289 4.02315ZM138.63 35.5912C135.554 36.9522 130.469 37.3474 126.581 37.3913C122.735 37.3913 120.002 37.04 117.78 36.118C116.755 35.679 115.815 34.9765 115.558 33.7032C115.174 31.947 115.216 31.5526 115.473 29.1817C115.516 28.567 116.156 27.7767 117.225 27.7767C118.25 27.7767 118.891 28.6548 118.848 29.3134C118.635 31.0257 118.507 31.025 118.848 32.7373C118.891 32.9129 118.977 33.0007 119.19 33.0885C120.558 33.6593 123.29 34.1423 126.922 34.1423C130.512 34.1423 134.486 33.5715 137.391 32.6056C137.99 32.3421 139.058 32.6495 139.314 33.5715C139.613 34.4496 139.186 35.3277 138.63 35.5912Z" fill="#282A2A"/>
<path d="M9.71861 16.6672C9.76134 16.9307 9.8468 17.238 10.1459 17.4136C11.5133 17.9844 14.5899 18.4674 19.4184 18.4674C23.0078 18.4674 24.9007 17.8966 27.8064 16.9307C28.4473 16.6672 29.4729 17.1063 29.7292 17.9844C30.0284 18.8625 29.601 19.6967 29.0456 19.9602C25.969 21.3213 22.965 21.7164 19.0766 21.7603C15.1881 21.7603 10.9578 21.4091 8.73581 20.4871C7.71028 20.048 6.77021 19.3455 6.51383 18.0722C5.87287 14.911 6.08653 9.15987 6.4711 6.30599C6.68475 5.12054 7.58209 3.93508 8.65035 3.93508H27.2936C27.8918 3.93508 28.7464 4.59367 28.7464 5.51569C28.7464 6.30599 28.0628 7.1402 27.3791 7.1402H10.4023C9.80407 7.1402 9.80407 7.57926 9.76134 7.8866C9.54769 10.1697 9.12039 13.3304 9.71861 16.6672ZM3.99274 34.406C3.0954 34.2742 2.41171 33.44 2.5399 32.5619C2.66809 31.596 3.47997 30.9813 4.33458 31.113C7.36844 31.4204 11.1565 31.596 16.1132 31.6399V26.942C16.1132 26.2834 16.7969 25.4492 17.7797 25.4492C18.7198 25.4492 19.6171 26.1517 19.6171 26.8981V31.6399C24.5738 31.6399 29.3169 31.4643 32.308 31.113C33.2481 30.9813 34.1027 31.6838 34.1454 32.5619C34.2309 33.44 33.5045 34.2742 32.6926 34.406C27.7359 35.0645 9.76134 35.2402 3.99274 34.406Z" stroke="#282A2A" stroke-width="1.2" mask="url(#path-1-outside-1_1980_55543)"/>
<path d="M39.6005 20.2244C39.2587 18.5121 39.3014 14.341 39.686 12.8043C39.8996 12.1896 40.4551 11.2237 41.3525 11.2237H51.8342C51.9624 10.609 52.0906 8.41373 51.9197 7.09655C51.8769 6.78921 51.8342 6.35015 51.236 6.35015H41.4807C40.8397 6.35015 40.1133 5.51594 40.1133 4.72564C40.1133 3.93533 40.797 3.14503 41.5234 3.14503H52.9025C54.0135 3.14503 54.9108 4.33049 55.1245 5.51594C55.4236 7.62342 55.3381 11.3115 54.9963 12.7165C54.7826 13.5068 54.0562 14.4288 52.7316 14.4288H42.8053C42.6344 15.0435 42.6344 17.4583 42.8053 18.7755C42.8053 19.0389 42.8908 19.3463 43.2326 19.5658C44.5145 20.2683 47.1638 20.5756 49.7276 20.5756C52.4624 20.5756 53.458 19.917 54.5262 19.3902C55.1672 19.0828 56.4491 19.5219 56.7055 20.5317C56.9191 21.4537 56.2782 22.2001 55.6799 22.4636C53.7571 23.4295 52.2487 23.9125 49.514 23.9125C46.4801 23.9125 43.4463 23.3856 41.8225 22.6392C40.8397 22.1562 39.8569 21.4977 39.6005 20.2244ZM65.7216 4.02315C65.9352 5.955 66.0634 9.02841 66.0634 12.3652H69.5673C70.2083 12.3652 71.0202 13.0677 71.0202 13.9898C71.0202 14.7801 70.3365 15.6143 69.6101 15.6143H66.1062C66.0634 19.7853 65.9352 22.9024 65.7216 25.1416C65.5934 26.0197 64.6533 26.6344 63.7987 26.5466C62.9014 26.5027 62.2177 25.7563 62.2604 24.8342C62.7305 19.6094 62.6877 10.0382 62.2604 4.33049C62.2177 3.40847 62.8587 2.74988 63.756 2.61816C64.6533 2.53035 65.5934 3.05722 65.7216 4.02315ZM66.0634 35.5912C62.9868 36.9522 57.9019 37.3474 54.0135 37.3913C50.1677 37.3913 47.4351 37.04 45.2132 36.118C44.1876 35.679 43.2476 34.9765 42.9912 33.7032C42.6066 31.947 42.6493 31.5526 42.9057 29.1817C42.9484 28.567 43.5894 27.7767 44.6577 27.7767C45.6832 27.7767 46.3242 28.6548 46.2814 29.3134C46.0678 31.0257 45.9396 31.025 46.2814 32.7373C46.3242 32.9129 46.4096 33.0007 46.6233 33.0885C47.9906 33.6593 50.7232 34.1423 54.3553 34.1423C57.9447 34.1423 61.9186 33.5715 64.8243 32.6056C65.4225 32.3421 66.4907 32.6495 66.7471 33.5715C67.0462 34.4496 66.6189 35.3277 66.0634 35.5912Z" stroke="#282A2A" stroke-width="1.2" mask="url(#path-1-outside-1_1980_55543)"/>
<path d="M82.2857 16.6672C82.3284 16.9307 82.4139 17.238 82.713 17.4136C84.0804 17.9844 87.1569 18.4674 91.9855 18.4674C95.5748 18.4674 97.4678 17.8966 100.373 16.9307C101.014 16.6672 102.04 17.1063 102.296 17.9844C102.595 18.8625 102.168 19.6967 101.613 19.9602C98.536 21.3213 95.5321 21.7164 91.6436 21.7603C87.7552 21.7603 83.5249 21.4091 81.3029 20.4871C80.2773 20.048 79.3373 19.3455 79.0809 18.0722C78.4399 14.911 78.6536 9.15987 79.0382 6.30599C79.2518 5.12054 80.1491 3.93508 81.2174 3.93508H99.8607C100.459 3.93508 101.314 4.59367 101.314 5.51569C101.314 6.30599 100.63 7.1402 99.9461 7.1402H82.9694C82.3711 7.1402 82.3711 7.57926 82.3284 7.8866C82.1147 10.1697 81.6874 13.3304 82.2857 16.6672ZM76.5598 34.406C75.6625 34.2742 74.9788 33.44 75.107 32.5619C75.2352 31.596 76.047 30.9813 76.9016 31.113C79.9355 31.4204 83.7235 31.596 88.6803 31.6399V26.942C88.6803 26.2834 89.364 25.4492 90.3468 25.4492C91.2868 25.4492 92.1842 26.1517 92.1842 26.8981V31.6399C97.1409 31.6399 101.884 31.4643 104.875 31.113C105.815 30.9813 106.67 31.6838 106.712 32.5619C106.798 33.44 106.072 34.2742 105.26 34.406C100.303 35.0645 82.3284 35.2402 76.5598 34.406Z" stroke="#282A2A" stroke-width="1.2" mask="url(#path-1-outside-1_1980_55543)"/>
<path d="M112.168 20.2244C111.826 18.5121 111.868 14.341 112.253 12.8043C112.467 12.1896 113.022 11.2237 113.92 11.2237H124.401C124.529 10.609 124.658 8.41373 124.487 7.09655C124.444 6.78921 124.401 6.35015 123.803 6.35015H114.048C113.407 6.35015 112.68 5.51594 112.68 4.72564C112.68 3.93533 113.364 3.14503 114.09 3.14503H125.47C126.581 3.14503 127.478 4.33049 127.692 5.51594C127.991 7.62342 127.905 11.3115 127.563 12.7165C127.35 13.5068 126.623 14.4288 125.299 14.4288H115.372C115.201 15.0435 115.201 17.4583 115.372 18.7755C115.372 19.0389 115.458 19.3463 115.8 19.5658C117.082 20.2683 119.731 20.5756 122.295 20.5756C125.029 20.5756 126.025 19.917 127.093 19.3902C127.734 19.0828 129.016 19.5219 129.273 20.5317C129.486 21.4537 128.845 22.2001 128.247 22.4636C126.324 23.4295 124.816 23.9125 122.081 23.9125C119.047 23.9125 116.013 23.3856 114.39 22.6392C113.407 22.1562 112.424 21.4977 112.168 20.2244ZM138.289 4.02315C138.502 5.955 138.63 9.02841 138.63 12.3652H142.134C142.775 12.3652 143.587 13.0677 143.587 13.9898C143.587 14.7801 142.904 15.6143 142.177 15.6143H138.673C138.631 19.7853 138.502 22.9024 138.289 25.1416C138.16 26.0197 137.22 26.6344 136.366 26.5466C135.468 26.5027 134.785 25.7563 134.827 24.8342C135.298 19.6094 135.255 10.0382 134.827 4.33049C134.785 3.40847 135.426 2.74988 136.323 2.61816C137.22 2.53035 138.16 3.05722 138.289 4.02315ZM138.63 35.5912C135.554 36.9522 130.469 37.3474 126.581 37.3913C122.735 37.3913 120.002 37.04 117.78 36.118C116.755 35.679 115.815 34.9765 115.558 33.7032C115.174 31.947 115.216 31.5526 115.473 29.1817C115.516 28.567 116.156 27.7767 117.225 27.7767C118.25 27.7767 118.891 28.6548 118.848 29.3134C118.635 31.0257 118.507 31.025 118.848 32.7373C118.891 32.9129 118.977 33.0007 119.19 33.0885C120.558 33.6593 123.29 34.1423 126.922 34.1423C130.512 34.1423 134.486 33.5715 137.391 32.6056C137.99 32.3421 139.058 32.6495 139.314 33.5715C139.613 34.4496 139.186 35.3277 138.63 35.5912Z" stroke="#282A2A" stroke-width="1.2" mask="url(#path-1-outside-1_1980_55543)"/>
</svg>
