<svg width="30" height="61" viewBox="0 0 30 61" fill="none" xmlns="http://www.w3.org/2000/svg">
<path d="M26.4866 15.6031L25.9868 15.6197L25.9868 15.6197L26.4866 15.6031ZM26.3414 0.635027C26.1397 0.446384 25.8233 0.456927 25.6347 0.658588L22.5605 3.9448C22.3718 4.14646 22.3824 4.46287 22.584 4.65152C22.7857 4.84017 23.1021 4.82962 23.2907 4.62796L26.0234 1.70688L28.9445 4.43951C29.1461 4.62816 29.4625 4.61761 29.6512 4.41596C29.8398 4.2143 29.8293 3.89789 29.6276 3.70924L26.3414 0.635027ZM0.499756 60L0.729915 60.4439C1.3112 60.1425 1.88464 59.8303 2.45006 59.5078L2.20232 59.0735L1.95458 58.6392C1.40073 58.9551 0.839015 59.2609 0.269597 59.5561L0.499756 60ZM5.48871 57.0197L5.77052 57.4327C6.85336 56.6939 7.9014 55.9147 8.91307 55.0977L8.59894 54.7087L8.28482 54.3197C7.29396 55.1198 6.26748 55.883 5.2069 56.6067L5.48871 57.0197ZM11.5129 52.1551L11.8573 52.5175C12.8059 51.6162 13.7156 50.6789 14.5847 49.7085L14.2123 49.3749L13.8398 49.0413C12.9885 49.9918 12.0975 50.9098 11.1684 51.7926L11.5129 52.1551ZM16.6795 46.3869L17.0775 46.6895C17.8682 45.6495 18.6161 44.5788 19.3198 43.4802L18.8988 43.2106L18.4777 42.9409C17.7885 44.0169 17.0559 45.0656 16.2814 46.0843L16.6795 46.3869ZM20.8562 39.8664L21.2975 40.1015C21.9108 38.95 22.4781 37.7736 22.9978 36.575L22.5391 36.3761L22.0803 36.1772C21.5713 37.3512 21.0156 38.5035 20.4149 39.6313L20.8562 39.8664ZM23.9364 32.7618L24.4096 32.9232C24.8302 31.6903 25.202 30.4381 25.5235 29.1697L25.0388 29.0468L24.5541 28.924C24.2392 30.1664 23.8751 31.3928 23.4632 32.6004L23.9364 32.7618ZM25.8386 25.2558L26.3316 25.3392C26.5485 24.0571 26.7148 22.7617 26.8288 21.4558L26.3307 21.4123L25.8326 21.3688C25.721 22.6479 25.5581 23.9166 25.3456 25.1724L25.8386 25.2558ZM26.5123 17.5412L27.0123 17.5446C27.0167 16.8937 27.0081 16.2408 26.9863 15.5864L26.4866 15.6031L25.9868 15.6197C26.0082 16.2608 26.0166 16.9003 26.0124 17.5379L26.5123 17.5412ZM26.4866 15.6031L26.9863 15.5864L26.9254 13.7611L26.4257 13.7777L25.926 13.7944L25.9868 15.6197L26.4866 15.6031ZM26.304 10.127L26.8037 10.1103L26.6821 6.4596L26.1823 6.47625L25.6826 6.49291L25.8043 10.1436L26.304 10.127ZM26.0607 2.82553L26.5604 2.80887L26.4995 0.983506L25.9998 1.00016L25.5001 1.01682L25.5609 2.84218L26.0607 2.82553ZM26.4866 15.6031L25.9868 15.6197L25.9868 15.6197L26.4866 15.6031ZM26.3414 0.635027C26.1397 0.446384 25.8233 0.456927 25.6347 0.658588L22.5605 3.9448C22.3718 4.14646 22.3824 4.46287 22.584 4.65152C22.7857 4.84017 23.1021 4.82962 23.2907 4.62796L26.0234 1.70688L28.9445 4.43951C29.1461 4.62816 29.4625 4.61761 29.6512 4.41596C29.8398 4.2143 29.8293 3.89789 29.6276 3.70924L26.3414 0.635027ZM0.499756 60L0.729915 60.4439C1.3112 60.1425 1.88464 59.8303 2.45006 59.5078L2.20232 59.0735L1.95458 58.6392C1.40073 58.9551 0.839015 59.2609 0.269597 59.5561L0.499756 60ZM5.48871 57.0197L5.77052 57.4327C6.85336 56.6939 7.9014 55.9147 8.91307 55.0977L8.59894 54.7087L8.28482 54.3197C7.29396 55.1198 6.26748 55.883 5.2069 56.6067L5.48871 57.0197ZM11.5129 52.1551L11.8573 52.5175C12.8059 51.6162 13.7156 50.6789 14.5847 49.7085L14.2123 49.3749L13.8398 49.0413C12.9885 49.9918 12.0975 50.9098 11.1684 51.7926L11.5129 52.1551ZM16.6795 46.3869L17.0775 46.6895C17.8682 45.6495 18.6161 44.5788 19.3198 43.4802L18.8988 43.2106L18.4777 42.9409C17.7885 44.0169 17.0559 45.0656 16.2814 46.0843L16.6795 46.3869ZM20.8562 39.8664L21.2975 40.1015C21.9108 38.95 22.4781 37.7736 22.9978 36.575L22.5391 36.3761L22.0803 36.1772C21.5713 37.3512 21.0156 38.5035 20.4149 39.6313L20.8562 39.8664ZM23.9364 32.7618L24.4096 32.9232C24.8302 31.6903 25.202 30.4381 25.5235 29.1697L25.0388 29.0468L24.5541 28.924C24.2392 30.1664 23.8751 31.3928 23.4632 32.6004L23.9364 32.7618ZM25.8386 25.2558L26.3316 25.3392C26.5485 24.0571 26.7148 22.7617 26.8288 21.4558L26.3307 21.4123L25.8326 21.3688C25.721 22.6479 25.5581 23.9166 25.3456 25.1724L25.8386 25.2558ZM26.5123 17.5412L27.0123 17.5446C27.0167 16.8937 27.0081 16.2408 26.9863 15.5864L26.4866 15.6031L25.9868 15.6197C26.0082 16.2608 26.0166 16.9003 26.0124 17.5379L26.5123 17.5412ZM26.4866 15.6031L26.9863 15.5864L26.9254 13.7611L26.4257 13.7777L25.926 13.7944L25.9868 15.6197L26.4866 15.6031ZM26.304 10.127L26.8037 10.1103L26.6821 6.4596L26.1823 6.47625L25.6826 6.49291L25.8043 10.1436L26.304 10.127ZM26.0607 2.82553L26.5604 2.80887L26.4995 0.983506L25.9998 1.00016L25.5001 1.01682L25.5609 2.84218L26.0607 2.82553Z" fill="white"/>
</svg>
