<svg width="335" height="200" viewBox="0 0 335 200" fill="none" xmlns="http://www.w3.org/2000/svg">
<g clip-path="url(#clip0_1980_55545)">
<g filter="url(#filter0_d_1980_55545)">
<rect x="142.5" y="13" width="111" height="33" rx="16.5" fill="#F4F5F5" shape-rendering="crispEdges"/>
<path d="M156.984 35.98H170.984V21.98H156.984V35.98ZM183.791 23.352H185.247V32.732H183.791V23.352ZM184.813 27.146H187.053V28.364H184.813V27.146ZM177.155 34.706H185.779V35.896H177.155V34.706ZM177.155 31.766H178.625V35.224H177.155V31.766ZM178.821 24.22C179.465 24.22 180.044 24.36 180.557 24.64C181.07 24.9107 181.476 25.2887 181.775 25.774C182.074 26.25 182.223 26.8007 182.223 27.426C182.223 28.042 182.074 28.5927 181.775 29.078C181.476 29.554 181.07 29.932 180.557 30.212C180.044 30.4827 179.465 30.618 178.821 30.618C178.186 30.618 177.612 30.4827 177.099 30.212C176.586 29.932 176.18 29.554 175.881 29.078C175.582 28.5927 175.433 28.042 175.433 27.426C175.433 26.8007 175.582 26.25 175.881 25.774C176.18 25.2887 176.586 24.9107 177.099 24.64C177.612 24.36 178.186 24.22 178.821 24.22ZM178.821 25.494C178.457 25.494 178.126 25.5733 177.827 25.732C177.528 25.8907 177.29 26.1147 177.113 26.404C176.945 26.6933 176.861 27.034 176.861 27.426C176.861 27.8087 176.945 28.1447 177.113 28.434C177.29 28.714 177.528 28.9333 177.827 29.092C178.126 29.2507 178.457 29.33 178.821 29.33C179.194 29.33 179.53 29.2507 179.829 29.092C180.137 28.9333 180.375 28.714 180.543 28.434C180.711 28.1447 180.795 27.8087 180.795 27.426C180.795 27.034 180.711 26.6933 180.543 26.404C180.375 26.1147 180.137 25.8907 179.829 25.732C179.53 25.5733 179.194 25.494 178.821 25.494ZM188.9 24.08H190.356V29.526H188.9V24.08ZM188.9 29.204H189.894C190.641 29.204 191.322 29.1947 191.938 29.176C192.554 29.1573 193.142 29.12 193.702 29.064C194.262 28.9987 194.836 28.91 195.424 28.798L195.592 29.96C194.995 30.0813 194.402 30.1793 193.814 30.254C193.235 30.3193 192.629 30.3613 191.994 30.38C191.359 30.3987 190.659 30.408 189.894 30.408H188.9V29.204ZM197.272 23.352H198.742V31.122H197.272V23.352ZM193.926 24.696H197.65V25.83H193.926V24.696ZM193.926 26.936H197.65V28.07H193.926V26.936ZM194.486 31.262C195.821 31.262 196.871 31.4767 197.636 31.906C198.411 32.3353 198.798 32.9373 198.798 33.712C198.798 34.4867 198.411 35.084 197.636 35.504C196.871 35.9333 195.821 36.148 194.486 36.148C193.151 36.148 192.097 35.9333 191.322 35.504C190.547 35.084 190.16 34.4867 190.16 33.712C190.16 32.9373 190.547 32.3353 191.322 31.906C192.097 31.4767 193.151 31.262 194.486 31.262ZM194.486 32.41C193.879 32.41 193.361 32.4613 192.932 32.564C192.512 32.6573 192.19 32.802 191.966 32.998C191.742 33.194 191.63 33.432 191.63 33.712C191.63 33.9827 191.742 34.216 191.966 34.412C192.19 34.608 192.512 34.7573 192.932 34.86C193.361 34.9533 193.879 35 194.486 35C195.093 35 195.606 34.9533 196.026 34.86C196.446 34.7573 196.768 34.608 196.992 34.412C197.225 34.216 197.342 33.9827 197.342 33.712C197.342 33.432 197.225 33.194 196.992 32.998C196.768 32.802 196.446 32.6573 196.026 32.564C195.606 32.4613 195.093 32.41 194.486 32.41ZM209.479 23.366H210.949V36.162H209.479V23.366ZM210.613 28.504H212.923V29.722H210.613V28.504ZM200.953 25.34H208.457V26.516H200.953V25.34ZM204.761 27.426C205.368 27.426 205.909 27.5567 206.385 27.818C206.861 28.07 207.234 28.42 207.505 28.868C207.785 29.316 207.925 29.8293 207.925 30.408C207.925 30.996 207.785 31.514 207.505 31.962C207.234 32.41 206.861 32.7647 206.385 33.026C205.909 33.278 205.363 33.404 204.747 33.404C204.14 33.404 203.599 33.278 203.123 33.026C202.647 32.7647 202.269 32.41 201.989 31.962C201.718 31.514 201.583 30.996 201.583 30.408C201.583 29.8293 201.718 29.316 201.989 28.868C202.269 28.42 202.647 28.07 203.123 27.818C203.599 27.5567 204.145 27.426 204.761 27.426ZM204.747 28.63C204.411 28.63 204.108 28.7047 203.837 28.854C203.566 29.0033 203.352 29.2133 203.193 29.484C203.044 29.7453 202.969 30.0533 202.969 30.408C202.969 30.772 203.044 31.0893 203.193 31.36C203.352 31.6213 203.566 31.8267 203.837 31.976C204.108 32.1253 204.411 32.2 204.747 32.2C205.092 32.2 205.396 32.1253 205.657 31.976C205.928 31.8267 206.138 31.6213 206.287 31.36C206.446 31.0893 206.525 30.772 206.525 30.408C206.525 30.0533 206.446 29.7453 206.287 29.484C206.138 29.2133 205.928 29.0033 205.657 28.854C205.396 28.7047 205.092 28.63 204.747 28.63ZM204.005 23.534H205.475V25.83H204.005V23.534ZM218.942 27.818H221.252V29.022H218.942V27.818ZM216.408 24.528H217.542V26.838C217.542 27.5287 217.476 28.21 217.346 28.882C217.224 29.5447 217.042 30.17 216.8 30.758C216.557 31.346 216.254 31.878 215.89 32.354C215.526 32.8207 215.101 33.1987 214.616 33.488L213.706 32.382C214.163 32.1113 214.56 31.7753 214.896 31.374C215.232 30.9727 215.512 30.5247 215.736 30.03C215.969 29.5353 216.137 29.0173 216.24 28.476C216.352 27.9253 216.408 27.3793 216.408 26.838V24.528ZM216.702 24.528H217.822V26.768C217.822 27.2813 217.868 27.7993 217.962 28.322C218.064 28.8353 218.218 29.3253 218.424 29.792C218.629 30.2587 218.886 30.688 219.194 31.08C219.502 31.472 219.87 31.8033 220.3 32.074L219.488 33.208C219.002 32.9187 218.582 32.5453 218.228 32.088C217.882 31.6213 217.598 31.1033 217.374 30.534C217.15 29.9553 216.982 29.3487 216.87 28.714C216.758 28.07 216.702 27.4213 216.702 26.768V24.528ZM223.422 23.352H224.822V36.148H223.422V23.352ZM220.818 23.604H222.19V35.546H220.818V23.604ZM229.497 29.904H230.953V33.628H229.497V29.904ZM234.173 29.904H235.643V33.628H234.173V29.904ZM226.781 33.376H238.373V34.58H226.781V33.376ZM232.563 24.094C233.468 24.094 234.275 24.234 234.985 24.514C235.694 24.7847 236.249 25.172 236.651 25.676C237.061 26.1707 237.267 26.7587 237.267 27.44C237.267 28.1213 237.061 28.714 236.651 29.218C236.249 29.7127 235.694 30.1 234.985 30.38C234.275 30.6507 233.468 30.786 232.563 30.786C231.657 30.786 230.845 30.6507 230.127 30.38C229.417 30.1 228.857 29.7127 228.447 29.218C228.045 28.714 227.845 28.1213 227.845 27.44C227.845 26.7587 228.045 26.1707 228.447 25.676C228.857 25.172 229.417 24.7847 230.127 24.514C230.845 24.234 231.657 24.094 232.563 24.094ZM232.563 25.242C231.919 25.242 231.349 25.3307 230.855 25.508C230.36 25.6853 229.973 25.942 229.693 26.278C229.422 26.6047 229.287 26.992 229.287 27.44C229.287 27.888 229.422 28.28 229.693 28.616C229.973 28.9427 230.36 29.1993 230.855 29.386C231.349 29.5633 231.919 29.652 232.563 29.652C233.207 29.652 233.771 29.5633 234.257 29.386C234.751 29.1993 235.139 28.9427 235.419 28.616C235.699 28.28 235.839 27.888 235.839 27.44C235.839 26.992 235.699 26.6047 235.419 26.278C235.139 25.942 234.751 25.6853 234.257 25.508C233.771 25.3307 233.207 25.242 232.563 25.242Z" fill="#404444"/>
</g>
<g filter="url(#filter1_d_1980_55545)">
<rect x="226" y="68" width="88" height="33" rx="16.5" fill="#F4F5F5" shape-rendering="crispEdges"/>
<path d="M248.303 90.98H262.303V76.98H248.303V90.98ZM275.109 78.352H276.565V87.732H275.109V78.352ZM276.131 82.146H278.371V83.364H276.131V82.146ZM268.473 89.706H277.097V90.896H268.473V89.706ZM268.473 86.766H269.943V90.224H268.473V86.766ZM270.139 79.22C270.783 79.22 271.362 79.36 271.875 79.64C272.389 79.9107 272.795 80.2887 273.093 80.774C273.392 81.25 273.541 81.8007 273.541 82.426C273.541 83.042 273.392 83.5927 273.093 84.078C272.795 84.554 272.389 84.932 271.875 85.212C271.362 85.4827 270.783 85.618 270.139 85.618C269.505 85.618 268.931 85.4827 268.417 85.212C267.904 84.932 267.498 84.554 267.199 84.078C266.901 83.5927 266.751 83.042 266.751 82.426C266.751 81.8007 266.901 81.25 267.199 80.774C267.498 80.2887 267.904 79.9107 268.417 79.64C268.931 79.36 269.505 79.22 270.139 79.22ZM270.139 80.494C269.775 80.494 269.444 80.5733 269.145 80.732C268.847 80.8907 268.609 81.1147 268.431 81.404C268.263 81.6933 268.179 82.034 268.179 82.426C268.179 82.8087 268.263 83.1447 268.431 83.434C268.609 83.714 268.847 83.9333 269.145 84.092C269.444 84.2507 269.775 84.33 270.139 84.33C270.513 84.33 270.849 84.2507 271.147 84.092C271.455 83.9333 271.693 83.714 271.861 83.434C272.029 83.1447 272.113 82.8087 272.113 82.426C272.113 82.034 272.029 81.6933 271.861 81.404C271.693 81.1147 271.455 80.8907 271.147 80.732C270.849 80.5733 270.513 80.494 270.139 80.494ZM280.218 79.08H281.674V84.526H280.218V79.08ZM280.218 84.204H281.212C281.959 84.204 282.64 84.1947 283.256 84.176C283.872 84.1573 284.46 84.12 285.02 84.064C285.58 83.9987 286.154 83.91 286.742 83.798L286.91 84.96C286.313 85.0813 285.72 85.1793 285.132 85.254C284.554 85.3193 283.947 85.3613 283.312 85.38C282.678 85.3987 281.978 85.408 281.212 85.408H280.218V84.204ZM288.59 78.352H290.06V86.122H288.59V78.352ZM285.244 79.696H288.968V80.83H285.244V79.696ZM285.244 81.936H288.968V83.07H285.244V81.936ZM285.804 86.262C287.139 86.262 288.189 86.4767 288.954 86.906C289.729 87.3353 290.116 87.9373 290.116 88.712C290.116 89.4867 289.729 90.084 288.954 90.504C288.189 90.9333 287.139 91.148 285.804 91.148C284.47 91.148 283.415 90.9333 282.64 90.504C281.866 90.084 281.478 89.4867 281.478 88.712C281.478 87.9373 281.866 87.3353 282.64 86.906C283.415 86.4767 284.47 86.262 285.804 86.262ZM285.804 87.41C285.198 87.41 284.68 87.4613 284.25 87.564C283.83 87.6573 283.508 87.802 283.284 87.998C283.06 88.194 282.948 88.432 282.948 88.712C282.948 88.9827 283.06 89.216 283.284 89.412C283.508 89.608 283.83 89.7573 284.25 89.86C284.68 89.9533 285.198 90 285.804 90C286.411 90 286.924 89.9533 287.344 89.86C287.764 89.7573 288.086 89.608 288.31 89.412C288.544 89.216 288.66 88.9827 288.66 88.712C288.66 88.432 288.544 88.194 288.31 87.998C288.086 87.802 287.764 87.6573 287.344 87.564C286.924 87.4613 286.411 87.41 285.804 87.41Z" fill="#404444"/>
</g>
<g filter="url(#filter2_d_1980_55545)">
<rect x="5" y="69" width="111" height="33" rx="16.5" fill="#F4F5F5" shape-rendering="crispEdges"/>
<path d="M19.4844 91.98H33.4844V77.98H19.4844V91.98ZM46.2911 79.366H47.7471V88.774H46.2911V79.366ZM47.3131 83.118H49.5531V84.336H47.3131V83.118ZM39.6551 90.706H48.2791V91.896H39.6551V90.706ZM39.6551 87.85H41.1251V90.972H39.6551V87.85ZM38.2131 80.276H39.6691V82.278H42.7911V80.276H44.2471V86.688H38.2131V80.276ZM39.6691 83.412V85.512H42.7911V83.412H39.6691ZM59.156 79.352H60.626V86.282H59.156V79.352ZM60.234 82.264H62.432V83.468H60.234V82.264ZM55.544 80.08H57.154C57.154 81.1813 56.916 82.1567 56.44 83.006C55.9733 83.846 55.2967 84.5553 54.41 85.134C53.5233 85.7033 52.4453 86.1373 51.176 86.436L50.616 85.246C51.7173 84.994 52.632 84.6533 53.36 84.224C54.088 83.7947 54.634 83.2953 54.998 82.726C55.362 82.1567 55.544 81.536 55.544 80.864V80.08ZM51.232 80.08H56.496V81.27H51.232V80.08ZM52.436 86.842H53.892V88.27H59.17V86.842H60.626V91.994H52.436V86.842ZM53.892 89.404V90.818H59.17V89.404H53.892ZM64.9369 87.024H66.3789V88.326H72.1469V87.024H73.5889V91.994H64.9369V87.024ZM66.3789 89.446V90.832H72.1469V89.446H66.3789ZM63.5229 85.078H75.0869V86.254H63.5229V85.078ZM68.5489 79.492H69.8089V79.982C69.8089 80.43 69.7249 80.8547 69.5569 81.256C69.3889 81.648 69.1509 82.0167 68.8429 82.362C68.5349 82.698 68.1662 83.0013 67.7369 83.272C67.3169 83.5333 66.8456 83.7527 66.3229 83.93C65.8096 84.1073 65.2589 84.238 64.6709 84.322L64.1389 83.174C64.6429 83.1087 65.1189 83.006 65.5669 82.866C66.0242 82.7167 66.4349 82.5393 66.7989 82.334C67.1629 82.1287 67.4756 81.9 67.7369 81.648C67.9982 81.396 68.1989 81.13 68.3389 80.85C68.4789 80.57 68.5489 80.2807 68.5489 79.982V79.492ZM68.7869 79.492H70.0469V79.982C70.0469 80.2807 70.1169 80.57 70.2569 80.85C70.3969 81.13 70.5976 81.396 70.8589 81.648C71.1296 81.9 71.4469 82.1287 71.8109 82.334C72.1749 82.5393 72.5809 82.7167 73.0289 82.866C73.4769 83.0153 73.9576 83.118 74.4709 83.174L73.9249 84.322C73.3462 84.238 72.7956 84.1073 72.2729 83.93C71.7596 83.7527 71.2882 83.5287 70.8589 83.258C70.4389 82.9873 70.0749 82.684 69.7669 82.348C69.4589 82.012 69.2162 81.648 69.0389 81.256C68.8709 80.8547 68.7869 80.43 68.7869 79.982V79.492ZM85.5018 79.352H86.9718V92.148H85.5018V79.352ZM77.1438 80.598H78.5998V88.536H77.1438V80.598ZM77.1438 87.668H78.2358C79.1971 87.668 80.1865 87.626 81.2038 87.542C82.2211 87.458 83.2618 87.304 84.3258 87.08L84.4938 88.326C83.3925 88.55 82.3238 88.704 81.2878 88.788C80.2518 88.872 79.2345 88.914 78.2358 88.914H77.1438V87.668ZM97.7227 79.352H99.1927V92.176H97.7227V79.352ZM98.8707 84.266H101.181V85.484H98.8707V84.266ZM89.7987 87.808H90.8347C91.6001 87.808 92.3047 87.7987 92.9487 87.78C93.5927 87.752 94.2181 87.71 94.8247 87.654C95.4314 87.5887 96.0474 87.5 96.6727 87.388L96.8267 88.606C96.1827 88.7273 95.5481 88.8207 94.9227 88.886C94.3067 88.942 93.6627 88.984 92.9907 89.012C92.3281 89.0307 91.6094 89.04 90.8347 89.04H89.7987V87.808ZM89.7987 80.57H95.7487V81.76H91.2547V88.382H89.7987V80.57Z" fill="#404444"/>
</g>
<g filter="url(#filter3_f_1980_55545)">
<ellipse cx="167" cy="189.5" rx="118" ry="3.5" fill="black" fill-opacity="0.12"/>
</g>
<path d="M180.354 92.8416C179.146 75.7353 188.439 71.0135 193.236 70.7909C194.124 70.7663 194.769 71.6337 194.533 72.4902C192.999 78.0775 192.845 83.9463 193.167 85.6335C193.676 88.2913 196.529 91.4216 199.082 93.5169C200.441 94.6326 201.071 98.0133 199.846 99.2743C196.725 102.485 193.674 105.535 192.066 108.536C191.335 109.9 189.414 110.612 188.341 109.496C182.968 103.91 180.783 96.3282 180.354 92.8416Z" fill="#9ADAD5"/>
<path d="M231.467 100.808C238.807 85.3081 231.546 77.4146 226.998 75.4054C226.155 75.0508 225.214 75.65 225.128 76.5608C224.584 82.3267 222.625 87.8262 221.707 89.2736C220.257 91.5618 216.373 93.41 213.153 94.4053C211.458 94.9296 209.632 97.8934 210.353 99.5155C212.219 103.714 214.073 107.732 214.517 111.15C214.713 112.665 216.208 114.013 217.609 113.403C224.887 110.23 229.784 103.919 231.467 100.808Z" fill="#9ADAD5"/>
<path d="M107.134 98.4961C99.3755 83.2025 106.104 75.2414 110.438 73.1725C111.247 72.8049 112.177 73.3538 112.293 74.2345C113.051 79.9788 115.188 85.4468 116.141 86.876C117.642 89.1275 121.487 90.9035 124.653 91.8426C126.339 92.3426 128.233 95.2128 127.594 96.8509C125.965 101.022 124.339 105.017 124.023 108.407C123.879 109.948 122.386 111.35 120.964 110.74C113.842 107.679 108.883 101.542 107.134 98.4961Z" fill="#FF583E"/>
<path d="M155.033 95.5492C160.736 79.3755 152.701 72.2721 147.97 70.7422C147.095 70.4763 146.221 71.1693 146.229 72.0841C146.282 77.8754 144.9 83.5475 144.136 85.0817C142.929 87.5072 139.257 89.7457 136.157 91.0674C134.524 91.7637 133.013 94.8998 133.898 96.4389C136.187 100.423 138.445 104.229 139.238 107.582C139.59 109.069 141.215 110.256 142.546 109.505C149.458 105.599 153.679 98.8168 155.033 95.5492Z" fill="#FF583E"/>
<path d="M202.692 88.4464C227.602 88.4465 247.796 108.64 247.796 133.55C247.796 150.49 238.455 165.245 224.646 172.955C223.273 175.816 223.041 179.129 224.064 182.197L225.02 185.061C225.431 186.294 224.447 187.546 223.151 187.439L221.673 187.317C214.797 186.745 208.39 183.646 203.676 178.641C203.349 178.648 203.021 178.653 202.692 178.653C190.58 178.653 179.582 173.878 171.479 166.108C178.89 157.352 183.362 146.029 183.362 133.66C183.362 121.234 178.851 109.863 171.379 101.091C179.491 93.2632 190.529 88.4465 202.692 88.4464Z" fill="#9ADAD5"/>
<path d="M195.918 149.502C194.008 149.823 190.699 141.858 190.699 141.858L198.354 140.573C198.354 140.573 197.869 149.174 195.918 149.502Z" fill="white"/>
<path d="M212.118 146.803C210.208 147.123 206.899 139.159 206.899 139.159L214.554 137.874C214.554 137.874 214.069 146.475 212.118 146.803Z" fill="white"/>
<path d="M188 142.268L217.7 139.568M215 134.168C216.8 136.868 219.05 142.268 219.05 144.968" stroke="#3C3C3C" stroke-width="3.78" stroke-linecap="round"/>
<path d="M133.104 88.1827C158.014 88.1827 178.207 108.43 178.207 133.407C178.207 157.843 158.879 177.749 134.715 178.6C130.004 183.629 123.592 186.744 116.705 187.317L115.228 187.441C113.93 187.548 112.944 186.291 113.355 185.054L114.312 182.179C115.144 179.676 115.143 177.01 114.373 174.558C98.8129 167.425 88.0001 151.683 88 133.407C88.0001 108.431 108.194 88.183 133.104 88.1827Z" fill="#FF583E"/>
<circle cx="119.5" cy="134.668" r="1.5" fill="#C3422E"/>
<circle cx="121.5" cy="129.668" r="1.5" fill="#C3422E"/>
<circle cx="115.5" cy="131.668" r="1.5" fill="#C3422E"/>
<circle cx="166.5" cy="133.668" r="1.5" fill="#C3422E"/>
<circle cx="169.5" cy="130.668" r="1.5" fill="#C3422E"/>
<circle cx="163.5" cy="129.668" r="1.5" fill="#C3422E"/>
<circle cx="225" cy="127.168" r="5" fill="#54BDB4"/>
<circle cx="203.5" cy="117.668" r="15" fill="white"/>
<circle cx="202.25" cy="118.918" r="8.75" fill="#3C3C3C"/>
<path d="M183.262 124.447C186.023 124.448 188.262 126.686 188.262 129.447C188.261 132.172 186.081 134.386 183.371 134.444C183.375 134.178 183.379 133.91 183.379 133.643C183.379 130.52 183.093 127.463 182.548 124.498C182.781 124.465 183.019 124.447 183.262 124.447Z" fill="#54BDB4"/>
<path d="M122.245 146.389C122.245 141.88 125.733 138.077 130.24 138.187C131.382 138.214 132.503 138.276 133.495 138.389C133.941 138.44 134.433 138.509 134.937 138.588C137.79 139.034 140.33 140.646 143.12 141.389C144.347 141.716 145.144 141.716 146.37 141.389C149.16 140.646 151.7 139.034 154.553 138.588C155.057 138.509 155.55 138.44 155.995 138.389C156.987 138.276 158.109 138.214 159.25 138.187C163.757 138.077 167.245 141.88 167.245 146.389C167.245 154.121 160.977 160.389 153.245 160.389H136.245C128.513 160.389 122.245 154.121 122.245 146.389Z" fill="#3C3C3C"/>
<path d="M152.243 139.919C152.22 140.219 152.175 140.516 152.108 140.81L151.828 142.052C151.708 142.586 151.479 143.089 151.156 143.531L150.954 143.807C150.328 144.663 149.331 145.169 148.271 145.169C147.21 145.169 146.213 144.663 145.587 143.807L145.386 143.531C145.108 143.151 144.9 142.725 144.771 142.273C144.641 142.725 144.434 143.151 144.156 143.531L143.954 143.807C143.328 144.663 142.331 145.169 141.271 145.169C140.21 145.169 139.213 144.663 138.587 143.807L138.386 143.531C138.063 143.089 137.833 142.586 137.713 142.052L137.433 140.81C137.366 140.516 137.321 140.219 137.298 139.919L137.245 139.231C139.165 139.906 141.012 140.865 142.983 141.39C144.21 141.716 145.007 141.716 146.233 141.39C148.319 140.834 150.265 139.794 152.306 139.117L152.243 139.919Z" fill="white"/>
<circle cx="145" cy="119.168" r="15" fill="white"/>
<circle cx="148.75" cy="120.417" r="8.75" fill="#3C3C3C"/>
</g>
<defs>
<filter id="filter0_d_1980_55545" x="138.5" y="11" width="119" height="41" filterUnits="userSpaceOnUse" color-interpolation-filters="sRGB">
<feFlood flood-opacity="0" result="BackgroundImageFix"/>
<feColorMatrix in="SourceAlpha" type="matrix" values="0 0 0 0 0 0 0 0 0 0 0 0 0 0 0 0 0 0 127 0" result="hardAlpha"/>
<feOffset dy="2"/>
<feGaussianBlur stdDeviation="2"/>
<feComposite in2="hardAlpha" operator="out"/>
<feColorMatrix type="matrix" values="0 0 0 0 0 0 0 0 0 0 0 0 0 0 0 0 0 0 0.14 0"/>
<feBlend mode="normal" in2="BackgroundImageFix" result="effect1_dropShadow_1980_55545"/>
<feBlend mode="normal" in="SourceGraphic" in2="effect1_dropShadow_1980_55545" result="shape"/>
</filter>
<filter id="filter1_d_1980_55545" x="222" y="66" width="96" height="41" filterUnits="userSpaceOnUse" color-interpolation-filters="sRGB">
<feFlood flood-opacity="0" result="BackgroundImageFix"/>
<feColorMatrix in="SourceAlpha" type="matrix" values="0 0 0 0 0 0 0 0 0 0 0 0 0 0 0 0 0 0 127 0" result="hardAlpha"/>
<feOffset dy="2"/>
<feGaussianBlur stdDeviation="2"/>
<feComposite in2="hardAlpha" operator="out"/>
<feColorMatrix type="matrix" values="0 0 0 0 0 0 0 0 0 0 0 0 0 0 0 0 0 0 0.14 0"/>
<feBlend mode="normal" in2="BackgroundImageFix" result="effect1_dropShadow_1980_55545"/>
<feBlend mode="normal" in="SourceGraphic" in2="effect1_dropShadow_1980_55545" result="shape"/>
</filter>
<filter id="filter2_d_1980_55545" x="1" y="67" width="119" height="41" filterUnits="userSpaceOnUse" color-interpolation-filters="sRGB">
<feFlood flood-opacity="0" result="BackgroundImageFix"/>
<feColorMatrix in="SourceAlpha" type="matrix" values="0 0 0 0 0 0 0 0 0 0 0 0 0 0 0 0 0 0 127 0" result="hardAlpha"/>
<feOffset dy="2"/>
<feGaussianBlur stdDeviation="2"/>
<feComposite in2="hardAlpha" operator="out"/>
<feColorMatrix type="matrix" values="0 0 0 0 0 0 0 0 0 0 0 0 0 0 0 0 0 0 0.14 0"/>
<feBlend mode="normal" in2="BackgroundImageFix" result="effect1_dropShadow_1980_55545"/>
<feBlend mode="normal" in="SourceGraphic" in2="effect1_dropShadow_1980_55545" result="shape"/>
</filter>
<filter id="filter3_f_1980_55545" x="41" y="178" width="252" height="23" filterUnits="userSpaceOnUse" color-interpolation-filters="sRGB">
<feFlood flood-opacity="0" result="BackgroundImageFix"/>
<feBlend mode="normal" in="SourceGraphic" in2="BackgroundImageFix" result="shape"/>
<feGaussianBlur stdDeviation="4" result="effect1_foregroundBlur_1980_55545"/>
</filter>
<clipPath id="clip0_1980_55545">
<rect width="335" height="200" fill="white"/>
</clipPath>
</defs>
</svg>
