<svg width="145" height="83" viewBox="0 0 145 83" fill="none" xmlns="http://www.w3.org/2000/svg">
<g clip-path="url(#clip0_1001_2307)">
<path d="M41.2873 27.5322C37.9653 14.7523 44.3356 9.86969 47.936 9.02588C48.6047 8.88222 49.2145 9.44816 49.1571 10.1297C48.7822 14.5754 49.4912 19.04 49.9731 20.2717C50.7322 22.2122 53.3326 24.1803 55.56 25.4072C56.7461 26.0605 57.6992 28.531 56.9488 29.6581C55.0383 32.5278 53.1579 35.2661 52.363 37.7642C52.0017 38.8997 50.6476 39.7092 49.6785 39.016C44.8242 35.5431 42.1028 30.1113 41.2873 27.5322Z" fill="#FF583E"/>
<path d="M91.7888 26.7392C93.1798 13.6072 85.8949 9.71766 82.0786 9.41441C81.3755 9.37122 80.8442 10.0461 81.0134 10.7299C82.0844 15.0588 82.0597 19.554 81.7612 20.8393C81.2893 22.8713 78.9368 25.2025 76.8503 26.7449C75.7511 27.5574 75.1783 30.1758 76.115 31.1712C78.5395 33.7475 80.9091 36.1965 82.1008 38.5674C82.6291 39.6185 84.0584 40.218 84.921 39.418C89.4035 35.2607 91.3568 29.4281 91.7888 26.7392Z" fill="#FF583E"/>
<path d="M65.0344 22.2847C85.571 22.2847 102.22 38.9337 102.22 59.4702C102.22 79.5629 86.2831 95.9302 66.3606 96.6284C62.473 100.763 57.1862 103.324 51.511 103.795L50.2922 103.896C49.2243 103.984 48.4133 102.953 48.7522 101.936L49.5403 99.5747C50.227 97.515 50.2265 95.3213 49.592 93.3042C36.7642 87.4397 27.85 74.4968 27.8499 59.4702C27.8501 38.9339 44.4981 22.285 65.0344 22.2847Z" fill="#FF583E"/>
<circle cx="47.3995" cy="58.1497" r="1.23665" fill="#C3422E"/>
<circle cx="49.0482" cy="54.0291" r="1.23665" fill="#C3422E"/>
<circle cx="44.1016" cy="55.6751" r="1.23665" fill="#C3422E"/>
<circle cx="86.0946" cy="57.3236" r="1.23665" fill="#C3422E"/>
<circle cx="88.5675" cy="54.8529" r="1.23665" fill="#C3422E"/>
<circle cx="83.6212" cy="54.0277" r="1.23665" fill="#C3422E"/>
<circle cx="67.4499" cy="44.3979" r="12.1" fill="white"/>
<circle cx="68.4582" cy="45.9753" r="7.05833" fill="#333333"/>
<path d="M48.4609 66.1605C48.4609 62.4435 51.3365 59.3076 55.0524 59.3981C55.9935 59.4211 56.9182 59.4719 57.7358 59.565C58.103 59.6069 58.5092 59.6641 58.9248 59.7292C61.2765 60.0971 63.3708 61.4257 65.671 62.0383C66.6821 62.3076 67.3393 62.3076 68.3504 62.0383C70.6506 61.4257 72.7449 60.0971 75.0966 59.7292C75.5122 59.6641 75.9183 59.6069 76.2856 59.565C77.1031 59.4719 78.0279 59.4211 78.969 59.3981C82.6849 59.3076 85.5604 62.4435 85.5604 66.1605C85.5604 72.535 80.3929 77.7026 74.0184 77.7026H60.003C53.6285 77.7026 48.4609 72.535 48.4609 66.1605Z" fill="#333333"/>
<path d="M73.1926 60.8267C73.1733 61.0736 73.1368 61.3194 73.0823 61.561L72.8508 62.5854C72.7514 63.0254 72.5624 63.4411 72.2961 63.8052L72.1301 64.0317C71.6141 64.7373 70.7923 65.1546 69.9182 65.1548C69.044 65.1548 68.2215 64.7373 67.7053 64.0317L67.5393 63.8052C67.3104 63.4922 67.1393 63.1407 67.0325 62.769C66.9257 63.1408 66.7545 63.4922 66.5256 63.8052L66.3596 64.0317C65.8435 64.7374 65.021 65.1547 64.1467 65.1548C63.2727 65.1546 62.4509 64.7372 61.9348 64.0317L61.7688 63.8052C61.5026 63.4411 61.3135 63.0254 61.2141 62.5854L60.9827 61.561C60.9281 61.3194 60.8916 61.0736 60.8723 60.8267L60.8274 60.2554C62.4103 60.8115 63.9328 61.6008 65.5579 62.0337C66.5689 62.303 67.2266 62.3029 68.2375 62.0337C69.9568 61.5757 71.5616 60.7182 73.2444 60.1606L73.1926 60.8267Z" fill="white"/>
<path d="M115.425 43.1289C130.378 43.1291 142.5 55.2511 142.5 70.2041C142.5 84.834 130.896 96.7515 116.39 97.2598C113.56 100.27 109.711 102.135 105.579 102.479L104.691 102.553C103.913 102.617 103.323 101.865 103.57 101.125L104.143 99.4062C104.644 97.905 104.64 96.3068 104.177 94.8369C94.8392 90.566 88.3502 81.1437 88.3501 70.2041C88.3501 55.251 100.472 43.129 115.425 43.1289Z" fill="#11AFB5"/>
<path d="M112.505 77.5834C111.455 77.7598 109.635 73.3794 109.635 73.3794L113.845 72.6725C113.845 72.6725 113.579 77.4032 112.505 77.5834Z" fill="white"/>
<path d="M121.416 76.0986C120.365 76.275 118.545 71.8946 118.545 71.8946L122.755 71.1877C122.755 71.1877 122.489 75.9184 121.416 76.0986Z" fill="white"/>
<path d="M108.15 73.6044L124.485 72.1194M123 69.1494C123.99 70.6344 125.228 73.6044 125.228 75.0894" stroke="#3C3C3C" stroke-width="2.079" stroke-linecap="round"/>
<circle cx="115.851" cy="59.2519" r="7.70107" fill="white"/>
<circle cx="113.192" cy="59.5514" r="4.49229" fill="#333333"/>
<circle cx="100.752" cy="67.2516" r="3.6017" fill="#128287"/>
<circle cx="130.452" cy="67.2516" r="3.6017" fill="#128287"/>
<path d="M102.116 42.5666C102.276 34.8695 106.624 33.1384 108.778 33.2351C109.176 33.2603 109.428 33.6745 109.288 34.0478C108.374 36.483 108.065 39.1005 108.14 39.868C108.259 41.077 109.406 42.5932 110.462 43.6343C111.024 44.1887 111.167 45.7259 110.568 46.2395C109.041 47.5472 107.553 48.786 106.711 50.0619C106.328 50.6418 105.44 50.8817 105.006 50.3392C102.833 47.6218 102.166 44.143 102.116 42.5666Z" fill="#11AFB5"/>
<path d="M133.123 45.3275C134.211 37.7054 130.049 35.2852 127.831 35.0279C127.423 34.9879 127.099 35.3699 127.183 35.7719C127.716 38.3168 127.606 40.9354 127.405 41.678C127.087 42.852 125.667 44.1606 124.419 45.0152C123.761 45.4654 123.372 46.9789 123.897 47.5787C125.255 49.131 126.584 50.608 127.229 52.0146C127.514 52.6382 128.334 53.0177 128.854 52.5698C131.553 50.2422 132.815 46.885 133.123 45.3275Z" fill="#11AFB5"/>
<path d="M128.5 15.9995C122.701 15.9995 118 19.1854 118 23.1157C118 25.7937 120.183 28.1248 123.408 29.3394L123.399 31.5288C123.398 32.0018 124.011 32.1875 124.306 31.8032L125.708 29.9751C126.597 30.141 127.533 30.2329 128.5 30.2329C134.299 30.2329 139 27.0462 139 23.1157C139 19.1854 134.299 15.9995 128.5 15.9995Z" fill="white"/>
<path d="M124.389 23.2435C124.389 22.8982 124.473 22.6555 124.641 22.5155C124.809 22.3755 125.01 22.3055 125.243 22.3055C125.486 22.3055 125.691 22.3755 125.859 22.5155C126.036 22.6555 126.125 22.8982 126.125 23.2435C126.125 23.5795 126.036 23.8222 125.859 23.9715C125.691 24.1208 125.486 24.1955 125.243 24.1955C125.01 24.1955 124.809 24.1208 124.641 23.9715C124.473 23.8222 124.389 23.5795 124.389 23.2435ZM128.135 23.2435C128.135 22.8982 128.219 22.6555 128.387 22.5155C128.555 22.3755 128.756 22.3055 128.989 22.3055C129.232 22.3055 129.437 22.3755 129.605 22.5155C129.782 22.6555 129.871 22.8982 129.871 23.2435C129.871 23.5795 129.782 23.8222 129.605 23.9715C129.437 24.1208 129.232 24.1955 128.989 24.1955C128.756 24.1955 128.555 24.1208 128.387 23.9715C128.219 23.8222 128.135 23.5795 128.135 23.2435ZM131.881 23.2435C131.881 22.8982 131.965 22.6555 132.133 22.5155C132.301 22.3755 132.502 22.3055 132.735 22.3055C132.978 22.3055 133.183 22.3755 133.351 22.5155C133.528 22.6555 133.617 22.8982 133.617 23.2435C133.617 23.5795 133.528 23.8222 133.351 23.9715C133.183 24.1208 132.978 24.1955 132.735 24.1955C132.502 24.1955 132.301 24.1208 132.133 23.9715C131.965 23.8222 131.881 23.5795 131.881 23.2435Z" fill="#959595"/>
<path d="M18.5234 1C27.6493 1 35.0479 6.35744 35.0479 12.9658C35.0477 16.4483 32.9921 19.582 29.7129 21.7686L31.0303 24.9023C31.2189 25.351 30.7205 25.7772 30.3066 25.5215L26.7695 23.333C24.3424 24.3473 21.5271 24.9307 18.5234 24.9307C9.39789 24.9305 2.00022 19.574 2 12.9658C2 6.35754 9.39776 1.00015 18.5234 1Z" fill="white"/>
<path d="M12.5712 16.22C12.5712 16.142 12.5821 16.0293 12.6037 15.882C12.6254 15.7303 12.6601 15.609 12.7077 15.518C12.8161 15.4573 12.9526 15.4097 13.1172 15.375C13.2862 15.336 13.4444 15.3165 13.5917 15.3165C13.7391 15.3165 13.8994 15.336 14.0727 15.375C14.2461 15.4097 14.3826 15.4573 14.4822 15.518C14.5256 15.609 14.5581 15.7303 14.5797 15.882C14.6014 16.0293 14.6122 16.142 14.6122 16.22C14.6122 16.298 14.6014 16.4128 14.5797 16.5645C14.5581 16.7118 14.5256 16.831 14.4822 16.922C14.3826 16.9827 14.2461 17.0303 14.0727 17.065C13.8994 17.104 13.7391 17.1235 13.5917 17.1235C13.4444 17.1235 13.2862 17.104 13.1172 17.065C12.9526 17.0303 12.8161 16.9827 12.7077 16.922C12.6601 16.831 12.6254 16.7118 12.6037 16.5645C12.5821 16.4128 12.5712 16.298 12.5712 16.22ZM16.1132 16.22C16.1132 16.142 16.1241 16.0293 16.1457 15.882C16.1674 15.7303 16.2021 15.609 16.2497 15.518C16.3581 15.4573 16.4946 15.4097 16.6592 15.375C16.8282 15.336 16.9864 15.3165 17.1337 15.3165C17.2811 15.3165 17.4414 15.336 17.6147 15.375C17.7881 15.4097 17.9246 15.4573 18.0242 15.518C18.0676 15.609 18.1001 15.7303 18.1217 15.882C18.1434 16.0293 18.1542 16.142 18.1542 16.22C18.1542 16.298 18.1434 16.4128 18.1217 16.5645C18.1001 16.7118 18.0676 16.831 18.0242 16.922C17.9246 16.9827 17.7881 17.0303 17.6147 17.065C17.4414 17.104 17.2811 17.1235 17.1337 17.1235C16.9864 17.1235 16.8282 17.104 16.6592 17.065C16.4946 17.0303 16.3581 16.9827 16.2497 16.922C16.2021 16.831 16.1674 16.7118 16.1457 16.5645C16.1241 16.4128 16.1132 16.298 16.1132 16.22ZM18.9987 8.6345C19.354 8.43083 19.7505 8.264 20.1882 8.134C20.6259 8.004 21.083 7.939 21.5597 7.939C22.357 7.939 22.9767 8.14917 23.4187 8.5695C23.8607 8.98983 24.0817 9.54017 24.0817 10.2205C24.0817 10.8402 23.917 11.3537 23.5877 11.761C23.2627 12.164 22.8619 12.4977 22.3852 12.762L21.5792 13.1975L21.4687 14.387C21.3734 14.4217 21.2759 14.4455 21.1762 14.4585C21.0765 14.4672 20.9769 14.4715 20.8772 14.4715C20.7732 14.4715 20.6649 14.4672 20.5522 14.4585C20.4439 14.4455 20.3399 14.4217 20.2402 14.387L20.1492 12.45L20.2792 12.2875L20.9487 11.9625C21.369 11.7588 21.7114 11.5313 21.9757 11.28C22.24 11.0287 22.3722 10.7297 22.3722 10.383C22.3722 10.071 22.2704 9.82183 22.0667 9.6355C21.863 9.44483 21.5727 9.3495 21.1957 9.3495C20.914 9.3495 20.6367 9.395 20.3637 9.486C20.0907 9.577 19.8329 9.6875 19.5902 9.8175C19.4429 9.7005 19.3107 9.52717 19.1937 9.2975C19.0767 9.06783 19.0117 8.84683 18.9987 8.6345ZM20.8642 15.4465C21.0159 15.4465 21.1675 15.4638 21.3192 15.4985C21.4709 15.5288 21.5944 15.5722 21.6897 15.6285C21.733 15.6978 21.7655 15.8018 21.7872 15.9405C21.8089 16.0792 21.8197 16.2005 21.8197 16.3045C21.8197 16.4042 21.8089 16.5233 21.7872 16.662C21.7655 16.8007 21.733 16.9025 21.6897 16.9675C21.5944 17.0282 21.4709 17.0737 21.3192 17.104C21.1675 17.1343 21.0159 17.1495 20.8642 17.1495C20.7169 17.1495 20.5674 17.1343 20.4157 17.104C20.2684 17.0737 20.1427 17.0282 20.0387 16.9675C19.9997 16.9025 19.9694 16.8007 19.9477 16.662C19.9304 16.5233 19.9217 16.4042 19.9217 16.3045C19.9217 16.2005 19.9304 16.0792 19.9477 15.9405C19.9694 15.8018 19.9997 15.6978 20.0387 15.6285C20.2597 15.5072 20.5349 15.4465 20.8642 15.4465Z" fill="#959595"/>
</g>
<defs>
<clipPath id="clip0_1001_2307">
<rect width="145" height="83" fill="white"/>
</clipPath>
</defs>
</svg>
