<svg width="52" height="52" viewBox="0 0 52 52" fill="none" xmlns="http://www.w3.org/2000/svg">
<g clip-path="url(#clip0_988_5525)">
<rect width="52" height="52" fill="#FBE2E5"/>
<path d="M11.5454 18.3421C10.7886 9.80215 15.0669 7.36056 17.3006 7.20725C17.7184 7.18694 18.033 7.58384 17.9372 7.99093C17.2729 10.8135 17.2661 13.7809 17.4368 14.6268C17.7039 15.9504 19.0685 17.4894 20.2818 18.5143C20.9408 19.071 21.2905 20.7123 20.7247 21.3635C19.3299 22.969 17.9619 24.496 17.2302 25.9863C16.8805 26.6987 15.8871 27.0694 15.3525 26.4829C12.8592 23.7481 11.7816 20.0572 11.5454 18.3421Z" fill="#AC5761"/>
<path d="M11.5454 18.3411C10.7886 9.80118 15.0669 7.35958 17.3006 7.20628C17.7184 7.18596 18.033 7.58287 17.9372 7.98996C17.2729 10.8125 17.2661 13.78 17.4368 14.6259C17.7039 15.9494 19.0685 17.4884 20.2818 18.5134C20.9408 19.0701 21.2905 20.7113 20.7247 21.3626C19.3299 22.968 17.9619 24.495 17.2302 25.9853C16.8805 26.6977 15.8871 27.0685 15.3525 26.482C12.8592 23.7471 11.7816 20.0562 11.5454 18.3411Z" fill="#AC5761"/>
<path d="M40.1542 20.7327C42.6282 12.524 38.9343 9.26509 36.7781 8.66172C36.3732 8.55707 35.9845 8.88186 35.9957 9.29993C36.0735 12.1986 35.478 15.1057 35.1392 15.8993C34.6091 17.1411 32.9607 18.3712 31.5646 19.1287C30.8064 19.5401 30.131 21.0762 30.5528 21.8287C31.5928 23.6838 32.6225 25.4566 33.0366 27.0644C33.2345 27.8329 34.132 28.3975 34.7745 27.9317C37.7708 25.7597 39.5749 22.3642 40.1542 20.7327Z" fill="#AC5761"/>
<path d="M25.6348 16.1577C37.5831 16.1577 47.2691 25.8442 47.2695 37.7925C47.2695 49.4832 37.9971 59.0059 26.4053 59.4116C24.1434 61.8171 21.0684 63.3074 17.7666 63.5815L17.0576 63.6401C16.4362 63.6917 15.9638 63.0911 16.1611 62.4995L16.6191 61.1265C17.0189 59.9276 17.017 58.651 16.6475 57.4771C9.18537 54.0644 4 46.5343 4 37.7925C4.00041 25.8443 13.6865 16.1578 25.6348 16.1577Z" fill="#F06C7A"/>
<circle cx="11.8656" cy="37.0082" r="3.27427" fill="#AC5761"/>
<circle cx="38.8656" cy="37.0082" r="3.27427" fill="#AC5761"/>
<circle cx="26" cy="32.3237" r="7" fill="white"/>
<circle cx="24.6031" cy="32.4476" r="4.08333" fill="#333333"/>
<path d="M19.074 23.6294C19.4192 24.7438 20.5873 26.8247 22.4977 26.2329" stroke="#333333" stroke-linecap="round"/>
<path d="M21.1948 23.0718C21.3822 24.0541 22.1498 25.9437 23.7214 25.644" stroke="#333333" stroke-linecap="round"/>
<path d="M23.6453 22.356C23.5035 23.3459 23.616 25.3824 25.1999 25.6091" stroke="#333333" stroke-linecap="round"/>
<path d="M17 44.9617C17 43.3417 18.2586 41.987 19.8785 42.0036C20.443 42.0093 21.011 42.0314 21.5 42.0815C21.6871 42.1007 21.8951 42.1273 22.1073 42.1575C23.2287 42.3169 24.2485 42.8976 25.35 43.1616C25.8406 43.2792 26.1594 43.2792 26.65 43.1616C27.7515 42.8976 28.7713 42.3169 29.8927 42.1575C30.1049 42.1273 30.3129 42.1007 30.5 42.0815C30.989 42.0314 31.557 42.0093 32.1215 42.0036C33.7414 41.987 35 43.3417 35 44.9617C35 47.7453 32.7434 50.002 29.9597 50.002H22.0403C19.2566 50.002 17 47.7453 17 44.9617Z" fill="#333333"/>
<path d="M29.0654 42.6162C29.0551 42.7341 29.0358 42.8511 29.0068 42.9658L28.9072 43.3584C28.8521 43.5771 28.7501 43.7814 28.6074 43.9561L28.5742 43.9961C28.3026 44.3285 27.896 44.5214 27.4668 44.5215C27.0373 44.5215 26.6301 44.3287 26.3584 43.9961L26.3262 43.9561C26.2074 43.8106 26.1176 43.6444 26.0586 43.4668C25.9996 43.6443 25.9107 43.8107 25.792 43.9561L25.7598 43.9961C25.4881 44.3287 25.0808 44.5215 24.6514 44.5215C24.2221 44.5214 23.8156 44.3285 23.5439 43.9961L23.5107 43.9561C23.3681 43.7814 23.2661 43.5771 23.2109 43.3584L23.1113 42.9658C23.0824 42.8511 23.063 42.7341 23.0527 42.6162L23.0322 42.3789C23.8043 42.6216 24.5523 42.9692 25.3408 43.1572C25.8338 43.2747 26.1544 43.2748 26.6475 43.1572C27.4818 42.9583 28.2698 42.5787 29.0898 42.3359L29.0654 42.6162Z" fill="white"/>
</g>
<defs>
<clipPath id="clip0_988_5525">
<rect width="52" height="52" fill="white"/>
</clipPath>
</defs>
</svg>
