<svg width="52" height="52" viewBox="0 0 52 52" fill="none" xmlns="http://www.w3.org/2000/svg">
<g clip-path="url(#clip0_988_5495)">
<rect width="52" height="52" fill="#EAD5C2"/>
<path d="M12.5454 19.3436C11.7886 10.8036 16.0669 8.36202 18.3006 8.20872C18.7184 8.1884 19.033 8.58531 18.9372 8.9924C18.2729 11.815 18.2661 14.7824 18.4368 15.6283C18.7039 16.9518 20.0685 18.4908 21.2818 19.5158C21.9408 20.0725 22.2905 21.7138 21.7247 22.365C20.3299 23.9704 18.9619 25.4975 18.2302 26.9877C17.8805 27.7001 16.8871 28.0709 16.3525 27.4844C13.8592 24.7496 12.7816 21.0586 12.5454 19.3436Z" fill="#DE9B27"/>
<path d="M44.6147 23.1341C47.0886 14.9254 43.3947 11.6665 41.2386 11.0631C40.8337 10.9584 40.445 11.2832 40.4562 11.7013C40.534 14.6 39.9385 17.507 39.5997 18.3007C39.0696 19.5425 37.4212 20.7726 36.0251 21.53C35.2668 21.9415 34.5914 23.4776 35.0133 24.2301C36.0533 26.0851 37.083 27.858 37.497 29.4657C37.695 30.2343 38.5924 30.7989 39.235 30.3331C42.2313 28.1611 44.0354 24.7656 44.6147 23.1341Z" fill="#DE9B27"/>
<path d="M25.706 10.1799C25.5033 9.78729 25.0207 9.63333 24.6281 9.83602C24.2355 10.0387 24.0816 10.5213 24.2843 10.9139L24.9951 10.5469L25.706 10.1799ZM25.041 10.6357L24.3301 11.0027L24.3445 11.0305L24.361 11.0571L25.041 10.6357ZM25.665 11.8891L24.8722 11.9967L25.665 11.8891ZM26.054 13.0388L25.5622 13.6698L26.054 13.0388ZM26.5751 13.445L26.0833 14.076L26.5751 13.445ZM27.0266 13.8871L26.4015 14.3864L27.0266 13.8871ZM27.4084 14.3653L26.7833 14.8645L27.4084 14.3653ZM27.5288 15.6536L26.7306 15.6L27.5288 15.6536ZM27.7666 16.2061L27.2762 16.8381L27.7666 16.2061ZM28.2891 16.6116L28.7796 15.9795L28.2891 16.6116ZM28.6919 17.0789L29.3974 16.7017L28.6919 17.0789ZM28.9748 17.6081L28.2692 17.9852L28.9748 17.6081ZM29.1732 18.5185L28.3762 18.5888L29.1732 18.5185ZM29.2016 18.8414L29.9985 18.7712L29.2016 18.8414ZM29.3739 19.4277L30.0761 19.0444L29.3739 19.4277ZM29.5177 19.6911L28.8155 20.0745L29.5177 19.6911ZM29.8551 20.226L29.7271 21.0157L29.8551 20.226ZM29.9049 20.2341L29.7769 21.0238L30.258 21.1018L30.548 20.71L29.9049 20.2341ZM29.9587 20.1614L30.6696 19.7944L30.0801 18.6525L29.3157 19.6855L29.9587 20.1614ZM29.2937 20.6172C29.4964 21.0098 29.979 21.1638 30.3716 20.9611C30.7642 20.7584 30.9181 20.2758 30.7155 19.8832L30.0046 20.2502L29.2937 20.6172ZM24.9951 10.5469L24.2843 10.9139L24.3301 11.0027L25.041 10.6357L25.7518 10.2687L25.706 10.1799L24.9951 10.5469ZM25.041 10.6357L24.361 11.0571L24.6516 11.5261L25.3316 11.1047L26.0116 10.6833L25.721 10.2143L25.041 10.6357ZM25.3316 11.1047L24.6516 11.5261C24.8232 11.8031 24.8661 11.9511 24.8722 11.9967L25.665 11.8891L26.4577 11.7816C26.4068 11.4065 26.2274 11.0315 26.0116 10.6833L25.3316 11.1047ZM25.665 11.8891L24.8722 11.9967L24.915 12.3122L25.7078 12.2047L26.5005 12.0971L26.4577 11.7816L25.665 11.8891ZM25.7078 12.2047L24.915 12.3122L24.9579 12.6277L25.7506 12.5202L26.5433 12.4126L26.5005 12.0971L25.7078 12.2047ZM25.7506 12.5202L24.9579 12.6277C25.0156 13.0537 25.2305 13.4113 25.5622 13.6698L26.054 13.0388L26.5458 12.4078C26.5378 12.4016 26.5347 12.3981 26.5344 12.3978C26.5343 12.3977 26.536 12.3997 26.5384 12.4037C26.5407 12.4077 26.5424 12.4116 26.5434 12.4145C26.5444 12.4173 26.5439 12.4171 26.5433 12.4126L25.7506 12.5202ZM26.054 13.0388L25.5622 13.6698L25.8228 13.8729L26.3146 13.2419L26.8063 12.6109L26.5458 12.4078L26.054 13.0388ZM26.3146 13.2419L25.8228 13.8729L26.0833 14.076L26.5751 13.445L27.0669 12.814L26.8063 12.6109L26.3146 13.2419ZM26.5751 13.445L26.0833 14.076C26.2115 14.1759 26.3163 14.2797 26.4015 14.3864L27.0266 13.8871L27.6517 13.3879C27.4824 13.1758 27.2862 12.9849 27.0669 12.814L26.5751 13.445ZM27.0266 13.8871L26.4015 14.3864L26.5924 14.6254L27.2175 14.1262L27.8427 13.627L27.6517 13.3879L27.0266 13.8871ZM27.2175 14.1262L26.5924 14.6254L26.7833 14.8645L27.4084 14.3653L28.0336 13.8661L27.8427 13.627L27.2175 14.1262ZM27.4084 14.3653L26.7833 14.8645C26.7827 14.8638 26.781 14.8614 26.7792 14.8579C26.7774 14.8543 26.7765 14.8516 26.7762 14.8508C26.7756 14.8486 26.7802 14.8625 26.7776 14.9004L27.5758 14.9541L28.374 15.0077C28.401 14.6063 28.3038 14.2044 28.0336 13.8661L27.4084 14.3653ZM27.5758 14.9541L26.7776 14.9004L26.7541 15.2502L27.5523 15.3038L28.3505 15.3575L28.374 15.0077L27.5758 14.9541ZM27.5523 15.3038L26.7541 15.2502L26.7306 15.6L27.5288 15.6536L28.327 15.7072L28.3505 15.3575L27.5523 15.3038ZM27.5288 15.6536L26.7306 15.6C26.6984 16.0797 26.8771 16.5285 27.2762 16.8381L27.7666 16.2061L28.257 15.5741C28.2659 15.5809 28.2923 15.6061 28.3114 15.6504C28.3296 15.6927 28.3263 15.7182 28.327 15.7072L27.5288 15.6536ZM27.7666 16.2061L27.2762 16.8381L27.5374 17.0409L28.0279 16.4088L28.5183 15.7768L28.257 15.5741L27.7666 16.2061ZM28.0279 16.4088L27.5374 17.0409L27.7987 17.2436L28.2891 16.6116L28.7796 15.9795L28.5183 15.7768L28.0279 16.4088ZM28.2891 16.6116L27.7987 17.2436C27.8932 17.317 27.9502 17.3885 27.9863 17.4561L28.6919 17.0789L29.3974 16.7017C29.2449 16.4165 29.0334 16.1765 28.7796 15.9795L28.2891 16.6116ZM28.6919 17.0789L27.9863 17.4561L28.1278 17.7207L28.8333 17.3435L29.5388 16.9663L29.3974 16.7017L28.6919 17.0789ZM28.8333 17.3435L28.1278 17.7207L28.2692 17.9852L28.9748 17.6081L29.6803 17.2309L29.5388 16.9663L28.8333 17.3435ZM28.9748 17.6081L28.2692 17.9852C28.3087 18.0591 28.3375 18.1493 28.3478 18.2659L29.1447 18.1956L29.9416 18.1253C29.9139 17.8114 29.8294 17.5098 29.6803 17.2309L28.9748 17.6081ZM29.1447 18.1956L28.3478 18.2659L28.3762 18.5888L29.1732 18.5185L29.9701 18.4483L29.9416 18.1253L29.1447 18.1956ZM29.1732 18.5185L28.3762 18.5888L28.4047 18.9117L29.2016 18.8414L29.9985 18.7712L29.9701 18.4483L29.1732 18.5185ZM29.2016 18.8414L28.4047 18.9117C28.4326 19.2278 28.5189 19.5312 28.6717 19.8111L29.3739 19.4277L30.0761 19.0444C30.0371 18.9731 30.0086 18.8856 29.9985 18.7712L29.2016 18.8414ZM29.3739 19.4277L28.6717 19.8111L28.8155 20.0745L29.5177 19.6911L30.2199 19.3078L30.0761 19.0444L29.3739 19.4277ZM29.5177 19.6911L28.8155 20.0745L28.9593 20.3379L29.6615 19.9545L30.3636 19.5712L30.2199 19.3078L29.5177 19.6911ZM29.6615 19.9545L28.9593 20.3379C29.0125 20.4353 29.0705 20.5346 29.1305 20.6186C29.1593 20.659 29.2044 20.7186 29.2642 20.7772C29.2938 20.8062 29.4569 20.9719 29.7271 21.0157L29.8551 20.226L29.9831 19.4363C30.1267 19.4596 30.2278 19.5171 30.2769 19.5491C30.3302 19.5837 30.3663 19.617 30.3844 19.6348C30.4042 19.6542 30.4172 19.6696 30.4233 19.677C30.4267 19.6811 30.4292 19.6843 30.4307 19.6863C30.4322 19.6883 30.433 19.6894 30.4331 19.6895C30.4332 19.6897 30.4314 19.6871 30.4276 19.6813C30.4239 19.6756 30.4189 19.6677 30.4126 19.6572C30.3999 19.6361 30.3836 19.6077 30.3636 19.5712L29.6615 19.9545ZM29.8551 20.226L29.7271 21.0157L29.7769 21.0238L29.9049 20.2341L30.033 19.4444L29.9831 19.4363L29.8551 20.226ZM29.9049 20.2341L30.548 20.71L30.6018 20.6373L29.9587 20.1614L29.3157 19.6855L29.2619 19.7582L29.9049 20.2341ZM29.9587 20.1614L29.2479 20.5284L29.2937 20.6172L30.0046 20.2502L30.7155 19.8832L30.6696 19.7944L29.9587 20.1614Z" fill="#333333"/>
<path d="M25.706 10.1799C25.5033 9.78729 25.0207 9.63333 24.6281 9.83602C24.2355 10.0387 24.0816 10.5213 24.2843 10.9139L24.9951 10.5469L25.706 10.1799ZM25.041 10.6357L24.3301 11.0027L24.3445 11.0305L24.361 11.0571L25.041 10.6357ZM25.665 11.8891L24.8722 11.9967L25.665 11.8891ZM26.054 13.0388L25.5622 13.6698L26.054 13.0388ZM26.5751 13.445L26.0833 14.076L26.5751 13.445ZM27.0266 13.8871L26.4015 14.3864L27.0266 13.8871ZM27.4084 14.3653L26.7833 14.8645L27.4084 14.3653ZM27.5288 15.6536L26.7306 15.6L27.5288 15.6536ZM27.7666 16.2061L27.2762 16.8381L27.7666 16.2061ZM28.2891 16.6116L28.7796 15.9795L28.2891 16.6116ZM28.6919 17.0789L29.3974 16.7017L28.6919 17.0789ZM28.9748 17.6081L28.2692 17.9852L28.9748 17.6081ZM29.1732 18.5185L28.3762 18.5888L29.1732 18.5185ZM29.2016 18.8414L29.9985 18.7712L29.2016 18.8414ZM29.3739 19.4277L30.0761 19.0444L29.3739 19.4277ZM29.5177 19.6911L28.8155 20.0745L29.5177 19.6911ZM29.8551 20.226L29.7271 21.0157L29.8551 20.226ZM29.9049 20.2341L29.7769 21.0238L30.258 21.1018L30.548 20.71L29.9049 20.2341ZM29.9587 20.1614L30.6696 19.7944L30.0801 18.6525L29.3157 19.6855L29.9587 20.1614ZM29.2937 20.6172C29.4964 21.0098 29.979 21.1638 30.3716 20.9611C30.7642 20.7584 30.9181 20.2758 30.7155 19.8832L30.0046 20.2502L29.2937 20.6172ZM24.9951 10.5469L24.2843 10.9139L24.3301 11.0027L25.041 10.6357L25.7518 10.2687L25.706 10.1799L24.9951 10.5469ZM25.041 10.6357L24.361 11.0571L24.6516 11.5261L25.3316 11.1047L26.0116 10.6833L25.721 10.2143L25.041 10.6357ZM25.3316 11.1047L24.6516 11.5261C24.8232 11.8031 24.8661 11.9511 24.8722 11.9967L25.665 11.8891L26.4577 11.7816C26.4068 11.4065 26.2274 11.0315 26.0116 10.6833L25.3316 11.1047ZM25.665 11.8891L24.8722 11.9967L24.915 12.3122L25.7078 12.2047L26.5005 12.0971L26.4577 11.7816L25.665 11.8891ZM25.7078 12.2047L24.915 12.3122L24.9579 12.6277L25.7506 12.5202L26.5433 12.4126L26.5005 12.0971L25.7078 12.2047ZM25.7506 12.5202L24.9579 12.6277C25.0156 13.0537 25.2305 13.4113 25.5622 13.6698L26.054 13.0388L26.5458 12.4078C26.5378 12.4016 26.5347 12.3981 26.5344 12.3978C26.5343 12.3977 26.536 12.3997 26.5384 12.4037C26.5407 12.4077 26.5424 12.4116 26.5434 12.4145C26.5444 12.4173 26.5439 12.4171 26.5433 12.4126L25.7506 12.5202ZM26.054 13.0388L25.5622 13.6698L25.8228 13.8729L26.3146 13.2419L26.8063 12.6109L26.5458 12.4078L26.054 13.0388ZM26.3146 13.2419L25.8228 13.8729L26.0833 14.076L26.5751 13.445L27.0669 12.814L26.8063 12.6109L26.3146 13.2419ZM26.5751 13.445L26.0833 14.076C26.2115 14.1759 26.3163 14.2797 26.4015 14.3864L27.0266 13.8871L27.6517 13.3879C27.4824 13.1758 27.2862 12.9849 27.0669 12.814L26.5751 13.445ZM27.0266 13.8871L26.4015 14.3864L26.5924 14.6254L27.2175 14.1262L27.8427 13.627L27.6517 13.3879L27.0266 13.8871ZM27.2175 14.1262L26.5924 14.6254L26.7833 14.8645L27.4084 14.3653L28.0336 13.8661L27.8427 13.627L27.2175 14.1262ZM27.4084 14.3653L26.7833 14.8645C26.7827 14.8638 26.781 14.8614 26.7792 14.8579C26.7774 14.8543 26.7765 14.8516 26.7762 14.8508C26.7756 14.8486 26.7802 14.8625 26.7776 14.9004L27.5758 14.9541L28.374 15.0077C28.401 14.6063 28.3038 14.2044 28.0336 13.8661L27.4084 14.3653ZM27.5758 14.9541L26.7776 14.9004L26.7541 15.2502L27.5523 15.3038L28.3505 15.3575L28.374 15.0077L27.5758 14.9541ZM27.5523 15.3038L26.7541 15.2502L26.7306 15.6L27.5288 15.6536L28.327 15.7072L28.3505 15.3575L27.5523 15.3038ZM27.5288 15.6536L26.7306 15.6C26.6984 16.0797 26.8771 16.5285 27.2762 16.8381L27.7666 16.2061L28.257 15.5741C28.2659 15.5809 28.2923 15.6061 28.3114 15.6504C28.3296 15.6927 28.3263 15.7182 28.327 15.7072L27.5288 15.6536ZM27.7666 16.2061L27.2762 16.8381L27.5374 17.0409L28.0279 16.4088L28.5183 15.7768L28.257 15.5741L27.7666 16.2061ZM28.0279 16.4088L27.5374 17.0409L27.7987 17.2436L28.2891 16.6116L28.7796 15.9795L28.5183 15.7768L28.0279 16.4088ZM28.2891 16.6116L27.7987 17.2436C27.8932 17.317 27.9502 17.3885 27.9863 17.4561L28.6919 17.0789L29.3974 16.7017C29.2449 16.4165 29.0334 16.1765 28.7796 15.9795L28.2891 16.6116ZM28.6919 17.0789L27.9863 17.4561L28.1278 17.7207L28.8333 17.3435L29.5388 16.9663L29.3974 16.7017L28.6919 17.0789ZM28.8333 17.3435L28.1278 17.7207L28.2692 17.9852L28.9748 17.6081L29.6803 17.2309L29.5388 16.9663L28.8333 17.3435ZM28.9748 17.6081L28.2692 17.9852C28.3087 18.0591 28.3375 18.1493 28.3478 18.2659L29.1447 18.1956L29.9416 18.1253C29.9139 17.8114 29.8294 17.5098 29.6803 17.2309L28.9748 17.6081ZM29.1447 18.1956L28.3478 18.2659L28.3762 18.5888L29.1732 18.5185L29.9701 18.4483L29.9416 18.1253L29.1447 18.1956ZM29.1732 18.5185L28.3762 18.5888L28.4047 18.9117L29.2016 18.8414L29.9985 18.7712L29.9701 18.4483L29.1732 18.5185ZM29.2016 18.8414L28.4047 18.9117C28.4326 19.2278 28.5189 19.5312 28.6717 19.8111L29.3739 19.4277L30.0761 19.0444C30.0371 18.9731 30.0086 18.8856 29.9985 18.7712L29.2016 18.8414ZM29.3739 19.4277L28.6717 19.8111L28.8155 20.0745L29.5177 19.6911L30.2199 19.3078L30.0761 19.0444L29.3739 19.4277ZM29.5177 19.6911L28.8155 20.0745L28.9593 20.3379L29.6615 19.9545L30.3636 19.5712L30.2199 19.3078L29.5177 19.6911ZM29.6615 19.9545L28.9593 20.3379C29.0125 20.4353 29.0705 20.5346 29.1305 20.6186C29.1593 20.659 29.2044 20.7186 29.2642 20.7772C29.2938 20.8062 29.4569 20.9719 29.7271 21.0157L29.8551 20.226L29.9831 19.4363C30.1267 19.4596 30.2278 19.5171 30.2769 19.5491C30.3302 19.5837 30.3663 19.617 30.3844 19.6348C30.4042 19.6542 30.4172 19.6696 30.4233 19.677C30.4267 19.6811 30.4292 19.6843 30.4307 19.6863C30.4322 19.6883 30.433 19.6894 30.4331 19.6895C30.4332 19.6897 30.4314 19.6871 30.4276 19.6813C30.4239 19.6756 30.4189 19.6677 30.4126 19.6572C30.3999 19.6361 30.3836 19.6077 30.3636 19.5712L29.6615 19.9545ZM29.8551 20.226L29.7271 21.0157L29.7769 21.0238L29.9049 20.2341L30.033 19.4444L29.9831 19.4363L29.8551 20.226ZM29.9049 20.2341L30.548 20.71L30.6018 20.6373L29.9587 20.1614L29.3157 19.6855L29.2619 19.7582L29.9049 20.2341ZM29.9587 20.1614L29.2479 20.5284L29.2937 20.6172L30.0046 20.2502L30.7155 19.8832L30.6696 19.7944L29.9587 20.1614Z" fill="#BC7436"/>
<path d="M31.605 9.11931C31.6709 8.68242 31.3702 8.27484 30.9333 8.20895C30.4964 8.14306 30.0888 8.44381 30.0229 8.88069L30.814 9L31.605 9.11931ZM30.7991 9.09888L30.008 8.97958L29.986 9.12514L30.0173 9.26898L30.7991 9.09888ZM30.2752 11.0425L29.7026 10.4838L30.2752 11.0425ZM30.5423 12.2963L29.8356 12.6714L30.5423 12.2963ZM30.496 12.8962L29.8773 12.389L30.496 12.8962ZM29.9026 14.0202L29.122 14.1955L29.9026 14.0202ZM29.6935 16.4158L28.9135 16.5938L29.6935 16.4158ZM29.8369 17.0442L30.6168 16.8663L29.8369 17.0442ZM29.5604 17.9127L30.2379 18.3382L29.5604 17.9127ZM29.3863 18.1899L28.7089 17.7644L29.3863 18.1899ZM28.9037 19.3306L28.1503 19.0615L28.9037 19.3306ZM28.897 19.6634L28.5586 20.3883L28.897 19.6634ZM28.9931 19.7083L28.6547 20.4332L28.8324 20.5161L29.0283 20.5075L28.9931 19.7083ZM29.2003 19.6992L29.9914 19.8185L30.1364 18.8572L29.1651 18.8999L29.2003 19.6992ZM28.3944 19.6787C28.3285 20.1156 28.6292 20.5232 29.0661 20.5891C29.503 20.655 29.9106 20.3542 29.9765 19.9174L29.1854 19.798L28.3944 19.6787ZM30.814 9L30.0229 8.88069L30.008 8.97958L30.7991 9.09888L31.5901 9.21819L31.605 9.11931L30.814 9ZM30.7991 9.09888L30.0173 9.26898L30.1425 9.84408L30.9242 9.67398L31.7059 9.50387L31.5808 8.92878L30.7991 9.09888ZM30.9242 9.67398L30.1425 9.84408C30.1561 9.90647 30.1621 9.9543 30.1642 9.98922C30.1663 10.0242 30.1641 10.042 30.1634 10.0463C30.1628 10.05 30.1641 10.0389 30.1735 10.0191C30.1834 9.99835 30.1985 9.97551 30.2187 9.95484L30.7913 10.5135L31.3639 11.0722C31.8152 10.6097 31.8114 9.98891 31.7059 9.50387L30.9242 9.67398ZM30.7913 10.5135L30.2187 9.95484L29.9606 10.2193L30.5332 10.778L31.1058 11.3367L31.3639 11.0722L30.7913 10.5135ZM30.5332 10.778L29.9606 10.2193L29.7026 10.4838L30.2752 11.0425L30.8478 11.6012L31.1058 11.3367L30.5332 10.778ZM30.2752 11.0425L29.7026 10.4838C29.5255 10.6653 29.3755 10.9087 29.3331 11.2126C29.2908 11.5156 29.3677 11.7899 29.4855 12.0118L30.1922 11.6368L30.8988 11.2617C30.8999 11.2638 30.9323 11.3291 30.9177 11.434C30.9029 11.5398 30.8528 11.596 30.8478 11.6012L30.2752 11.0425ZM30.1922 11.6368L29.4855 12.0118L29.6606 12.3416L30.3672 11.9665L31.0738 11.5915L30.8988 11.2617L30.1922 11.6368ZM30.3672 11.9665L29.6606 12.3416L29.8356 12.6714L30.5423 12.2963L31.2489 11.9213L31.0738 11.5915L30.3672 11.9665ZM30.5423 12.2963L29.8356 12.6714C29.84 12.6797 29.8141 12.6337 29.8206 12.5497C29.8274 12.4612 29.8644 12.4048 29.8773 12.389L30.496 12.8962L31.1147 13.4033C31.2752 13.2075 31.3936 12.9611 31.4159 12.6727C31.4378 12.3888 31.3612 12.1329 31.2489 11.9213L30.5423 12.2963ZM30.496 12.8962L29.8773 12.389L29.656 12.659L30.2747 13.1662L30.8934 13.6733L31.1147 13.4033L30.496 12.8962ZM30.2747 13.1662L29.656 12.659L29.4347 12.9291L30.0534 13.4362L30.6721 13.9433L30.8934 13.6733L30.2747 13.1662ZM30.0534 13.4362L29.4347 12.9291C29.1463 13.2809 29.016 13.7234 29.122 14.1955L29.9026 14.0202L30.6831 13.845C30.684 13.8486 30.6857 13.8582 30.6855 13.8724C30.6854 13.8869 30.6835 13.9024 30.6796 13.9172C30.6715 13.9488 30.6604 13.9576 30.6721 13.9433L30.0534 13.4362ZM29.9026 14.0202L29.122 14.1955L29.1925 14.5095L29.9731 14.3342L30.7536 14.159L30.6831 13.845L29.9026 14.0202ZM29.9731 14.3342L29.1925 14.5095L29.263 14.8235L30.0436 14.6483L30.8241 14.473L30.7536 14.159L29.9731 14.3342ZM30.0436 14.6483L29.263 14.8235C29.2744 14.8745 29.269 14.9012 29.2566 14.9298L29.991 15.2471L30.7254 15.5644C30.8771 15.2133 30.9067 14.8408 30.8241 14.473L30.0436 14.6483ZM29.991 15.2471L29.2566 14.9298L29.1335 15.2146L29.8679 15.532L30.6023 15.8493L30.7254 15.5644L29.991 15.2471ZM29.8679 15.532L29.1335 15.2146L29.0105 15.4995L29.7449 15.8168L30.4792 16.1341L30.6023 15.8493L29.8679 15.532ZM29.7449 15.8168L29.0105 15.4995C28.8583 15.8517 28.8295 16.2254 28.9135 16.5938L29.6935 16.4158L30.4734 16.2379C30.4619 16.1873 30.4673 16.1616 30.4792 16.1341L29.7449 15.8168ZM29.6935 16.4158L28.9135 16.5938L28.9852 16.908L29.7652 16.73L30.5451 16.5521L30.4734 16.2379L29.6935 16.4158ZM29.7652 16.73L28.9852 16.908L29.0569 17.2222L29.8369 17.0442L30.6168 16.8663L30.5451 16.5521L29.7652 16.73ZM29.8369 17.0442L29.0569 17.2222C29.0582 17.2277 29.0579 17.2287 29.0578 17.2259C29.0577 17.223 29.0579 17.2182 29.0588 17.2127C29.0598 17.2072 29.0611 17.2034 29.0616 17.2019C29.0622 17.2006 29.0613 17.2033 29.057 17.2101L29.7345 17.6356L30.4119 18.0611C30.6388 17.6998 30.7126 17.2861 30.6168 16.8663L29.8369 17.0442ZM29.7345 17.6356L29.057 17.2101L28.8829 17.4872L29.5604 17.9127L30.2379 18.3382L30.4119 18.0611L29.7345 17.6356ZM29.5604 17.9127L28.8829 17.4872L28.7089 17.7644L29.3863 18.1899L30.0638 18.6154L30.2379 18.3382L29.5604 17.9127ZM29.3863 18.1899L28.7089 17.7644C28.5641 17.9949 28.4455 18.2354 28.356 18.4857L29.1094 18.7549L29.8628 19.024C29.9105 18.8905 29.9765 18.7544 30.0638 18.6154L29.3863 18.1899ZM29.1094 18.7549L28.356 18.4857L28.2532 18.7736L29.0066 19.0428L29.7599 19.3119L29.8628 19.024L29.1094 18.7549ZM29.0066 19.0428L28.2532 18.7736L28.1503 19.0615L28.9037 19.3306L29.6571 19.5998L29.7599 19.3119L29.0066 19.0428ZM28.9037 19.3306L28.1503 19.0615C28.107 19.1827 28.0545 19.3557 28.0508 19.5416C28.0473 19.7122 28.0933 20.1711 28.5586 20.3883L28.897 19.6634L29.2354 18.9385C29.4112 19.0206 29.5309 19.1607 29.5938 19.3041C29.6488 19.4292 29.6513 19.533 29.6504 19.5739C29.6489 19.649 29.6318 19.6705 29.6571 19.5998L28.9037 19.3306ZM28.897 19.6634L28.5586 20.3883L28.6547 20.4332L28.9931 19.7083L29.3315 18.9834L29.2354 18.9385L28.897 19.6634ZM28.9931 19.7083L29.0283 20.5075L29.2355 20.4984L29.2003 19.6992L29.1651 18.8999L28.958 18.9091L28.9931 19.7083ZM29.2003 19.6992L28.4093 19.5799L28.3944 19.6787L29.1854 19.798L29.9765 19.9174L29.9914 19.8185L29.2003 19.6992Z" fill="#333333"/>
<path d="M31.605 9.11931C31.6709 8.68242 31.3702 8.27484 30.9333 8.20895C30.4964 8.14306 30.0888 8.44381 30.0229 8.88069L30.814 9L31.605 9.11931ZM30.7991 9.09888L30.008 8.97958L29.986 9.12514L30.0173 9.26898L30.7991 9.09888ZM30.2752 11.0425L29.7026 10.4838L30.2752 11.0425ZM30.5423 12.2963L29.8356 12.6714L30.5423 12.2963ZM30.496 12.8962L29.8773 12.389L30.496 12.8962ZM29.9026 14.0202L29.122 14.1955L29.9026 14.0202ZM29.6935 16.4158L28.9135 16.5938L29.6935 16.4158ZM29.8369 17.0442L30.6168 16.8663L29.8369 17.0442ZM29.5604 17.9127L30.2379 18.3382L29.5604 17.9127ZM29.3863 18.1899L28.7089 17.7644L29.3863 18.1899ZM28.9037 19.3306L28.1503 19.0615L28.9037 19.3306ZM28.897 19.6634L28.5586 20.3883L28.897 19.6634ZM28.9931 19.7083L28.6547 20.4332L28.8324 20.5161L29.0283 20.5075L28.9931 19.7083ZM29.2003 19.6992L29.9914 19.8185L30.1364 18.8572L29.1651 18.8999L29.2003 19.6992ZM28.3944 19.6787C28.3285 20.1156 28.6292 20.5232 29.0661 20.5891C29.503 20.655 29.9106 20.3542 29.9765 19.9174L29.1854 19.798L28.3944 19.6787ZM30.814 9L30.0229 8.88069L30.008 8.97958L30.7991 9.09888L31.5901 9.21819L31.605 9.11931L30.814 9ZM30.7991 9.09888L30.0173 9.26898L30.1425 9.84408L30.9242 9.67398L31.7059 9.50387L31.5808 8.92878L30.7991 9.09888ZM30.9242 9.67398L30.1425 9.84408C30.1561 9.90647 30.1621 9.9543 30.1642 9.98922C30.1663 10.0242 30.1641 10.042 30.1634 10.0463C30.1628 10.05 30.1641 10.0389 30.1735 10.0191C30.1834 9.99835 30.1985 9.97551 30.2187 9.95484L30.7913 10.5135L31.3639 11.0722C31.8152 10.6097 31.8114 9.98891 31.7059 9.50387L30.9242 9.67398ZM30.7913 10.5135L30.2187 9.95484L29.9606 10.2193L30.5332 10.778L31.1058 11.3367L31.3639 11.0722L30.7913 10.5135ZM30.5332 10.778L29.9606 10.2193L29.7026 10.4838L30.2752 11.0425L30.8478 11.6012L31.1058 11.3367L30.5332 10.778ZM30.2752 11.0425L29.7026 10.4838C29.5255 10.6653 29.3755 10.9087 29.3331 11.2126C29.2908 11.5156 29.3677 11.7899 29.4855 12.0118L30.1922 11.6368L30.8988 11.2617C30.8999 11.2638 30.9323 11.3291 30.9177 11.434C30.9029 11.5398 30.8528 11.596 30.8478 11.6012L30.2752 11.0425ZM30.1922 11.6368L29.4855 12.0118L29.6606 12.3416L30.3672 11.9665L31.0738 11.5915L30.8988 11.2617L30.1922 11.6368ZM30.3672 11.9665L29.6606 12.3416L29.8356 12.6714L30.5423 12.2963L31.2489 11.9213L31.0738 11.5915L30.3672 11.9665ZM30.5423 12.2963L29.8356 12.6714C29.84 12.6797 29.8141 12.6337 29.8206 12.5497C29.8274 12.4612 29.8644 12.4048 29.8773 12.389L30.496 12.8962L31.1147 13.4033C31.2752 13.2075 31.3936 12.9611 31.4159 12.6727C31.4378 12.3888 31.3612 12.1329 31.2489 11.9213L30.5423 12.2963ZM30.496 12.8962L29.8773 12.389L29.656 12.659L30.2747 13.1662L30.8934 13.6733L31.1147 13.4033L30.496 12.8962ZM30.2747 13.1662L29.656 12.659L29.4347 12.9291L30.0534 13.4362L30.6721 13.9433L30.8934 13.6733L30.2747 13.1662ZM30.0534 13.4362L29.4347 12.9291C29.1463 13.2809 29.016 13.7234 29.122 14.1955L29.9026 14.0202L30.6831 13.845C30.684 13.8486 30.6857 13.8582 30.6855 13.8724C30.6854 13.8869 30.6835 13.9024 30.6796 13.9172C30.6715 13.9488 30.6604 13.9576 30.6721 13.9433L30.0534 13.4362ZM29.9026 14.0202L29.122 14.1955L29.1925 14.5095L29.9731 14.3342L30.7536 14.159L30.6831 13.845L29.9026 14.0202ZM29.9731 14.3342L29.1925 14.5095L29.263 14.8235L30.0436 14.6483L30.8241 14.473L30.7536 14.159L29.9731 14.3342ZM30.0436 14.6483L29.263 14.8235C29.2744 14.8745 29.269 14.9012 29.2566 14.9298L29.991 15.2471L30.7254 15.5644C30.8771 15.2133 30.9067 14.8408 30.8241 14.473L30.0436 14.6483ZM29.991 15.2471L29.2566 14.9298L29.1335 15.2146L29.8679 15.532L30.6023 15.8493L30.7254 15.5644L29.991 15.2471ZM29.8679 15.532L29.1335 15.2146L29.0105 15.4995L29.7449 15.8168L30.4792 16.1341L30.6023 15.8493L29.8679 15.532ZM29.7449 15.8168L29.0105 15.4995C28.8583 15.8517 28.8295 16.2254 28.9135 16.5938L29.6935 16.4158L30.4734 16.2379C30.4619 16.1873 30.4673 16.1616 30.4792 16.1341L29.7449 15.8168ZM29.6935 16.4158L28.9135 16.5938L28.9852 16.908L29.7652 16.73L30.5451 16.5521L30.4734 16.2379L29.6935 16.4158ZM29.7652 16.73L28.9852 16.908L29.0569 17.2222L29.8369 17.0442L30.6168 16.8663L30.5451 16.5521L29.7652 16.73ZM29.8369 17.0442L29.0569 17.2222C29.0582 17.2277 29.0579 17.2287 29.0578 17.2259C29.0577 17.223 29.0579 17.2182 29.0588 17.2127C29.0598 17.2072 29.0611 17.2034 29.0616 17.2019C29.0622 17.2006 29.0613 17.2033 29.057 17.2101L29.7345 17.6356L30.4119 18.0611C30.6388 17.6998 30.7126 17.2861 30.6168 16.8663L29.8369 17.0442ZM29.7345 17.6356L29.057 17.2101L28.8829 17.4872L29.5604 17.9127L30.2379 18.3382L30.4119 18.0611L29.7345 17.6356ZM29.5604 17.9127L28.8829 17.4872L28.7089 17.7644L29.3863 18.1899L30.0638 18.6154L30.2379 18.3382L29.5604 17.9127ZM29.3863 18.1899L28.7089 17.7644C28.5641 17.9949 28.4455 18.2354 28.356 18.4857L29.1094 18.7549L29.8628 19.024C29.9105 18.8905 29.9765 18.7544 30.0638 18.6154L29.3863 18.1899ZM29.1094 18.7549L28.356 18.4857L28.2532 18.7736L29.0066 19.0428L29.7599 19.3119L29.8628 19.024L29.1094 18.7549ZM29.0066 19.0428L28.2532 18.7736L28.1503 19.0615L28.9037 19.3306L29.6571 19.5998L29.7599 19.3119L29.0066 19.0428ZM28.9037 19.3306L28.1503 19.0615C28.107 19.1827 28.0545 19.3557 28.0508 19.5416C28.0473 19.7122 28.0933 20.1711 28.5586 20.3883L28.897 19.6634L29.2354 18.9385C29.4112 19.0206 29.5309 19.1607 29.5938 19.3041C29.6488 19.4292 29.6513 19.533 29.6504 19.5739C29.6489 19.649 29.6318 19.6705 29.6571 19.5998L28.9037 19.3306ZM28.897 19.6634L28.5586 20.3883L28.6547 20.4332L28.9931 19.7083L29.3315 18.9834L29.2354 18.9385L28.897 19.6634ZM28.9931 19.7083L29.0283 20.5075L29.2355 20.4984L29.2003 19.6992L29.1651 18.8999L28.958 18.9091L28.9931 19.7083ZM29.2003 19.6992L28.4093 19.5799L28.3944 19.6787L29.1854 19.798L29.9765 19.9174L29.9914 19.8185L29.2003 19.6992Z" fill="#BC7436"/>
<path d="M35.6919 12.9544C35.9785 12.6181 35.9382 12.1132 35.6019 11.8266C35.2656 11.5401 34.7607 11.5804 34.4741 11.9167L35.083 12.4355L35.6919 12.9544ZM35.0181 12.5117L35.5108 13.142L35.5746 13.0921L35.6271 13.0305L35.0181 12.5117ZM34.0402 13.5177L33.2733 13.2901L34.0402 13.5177ZM33.4736 14.6114L33.1026 13.9026L33.4736 14.6114ZM32.3425 15.6183L31.6234 15.2679L32.3425 15.6183ZM32.2068 15.8969L32.926 16.2473L32.2068 15.8969ZM31.789 16.3292L31.4061 15.6268L31.789 16.3292ZM31.507 16.4829L31.124 15.7806L31.507 16.4829ZM31.2249 16.6367L31.6079 17.3391L31.2249 16.6367ZM30.5435 17.6326L29.8206 17.2898L30.5435 17.6326ZM30.273 18.1904L29.5562 17.8351L30.273 18.1904ZM29.9982 18.7446L30.715 19.1L29.9982 18.7446ZM29.3225 19.3512L28.9048 18.6689L29.3225 19.3512ZM28.1872 20.3546L28.786 20.8851L28.1872 20.3546ZM27.9912 20.6212L28.7892 20.564L27.9912 20.6212ZM27.9943 20.6632L27.1963 20.7204L27.2439 21.384L27.905 21.4582L27.9943 20.6632ZM28.0651 20.6712L28.674 21.19L29.6505 20.0442L28.1544 19.8762L28.0651 20.6712ZM27.3914 20.2284C27.1048 20.5647 27.1451 21.0696 27.4814 21.3562C27.8177 21.6428 28.3226 21.6024 28.6092 21.2662L28.0003 20.7473L27.3914 20.2284ZM35.083 12.4355L34.4741 11.9167L34.4092 11.9928L35.0181 12.5117L35.6271 13.0305L35.6919 12.9544L35.083 12.4355ZM35.0181 12.5117L34.5255 11.8814L34.0832 12.2271L34.5759 12.8574L35.0685 13.4877L35.5108 13.142L35.0181 12.5117ZM34.5759 12.8574L34.0832 12.2271C33.7406 12.4948 33.406 12.8429 33.2733 13.2901L34.0402 13.5177L34.8071 13.7453C34.8009 13.7662 34.8004 13.7507 34.8421 13.6993C34.8835 13.6482 34.9544 13.5769 35.0685 13.4877L34.5759 12.8574ZM34.0402 13.5177L33.2733 13.2901L33.1799 13.6047L33.9468 13.8323L34.7138 14.0599L34.8071 13.7453L34.0402 13.5177ZM33.9468 13.8323L33.1799 13.6047L33.0865 13.9193L33.8535 14.1469L34.6204 14.3744L34.7138 14.0599L33.9468 13.8323ZM33.8535 14.1469L33.0865 13.9193C33.0844 13.9264 33.0833 13.928 33.0844 13.9259C33.0856 13.9236 33.0882 13.9191 33.0925 13.9139C33.0969 13.9086 33.1011 13.9046 33.1042 13.9021C33.1071 13.8998 33.1072 13.9002 33.1026 13.9026L33.4736 14.6114L33.8445 15.3202C34.2303 15.1183 34.4977 14.7881 34.6204 14.3744L33.8535 14.1469ZM33.4736 14.6114L33.1026 13.9026L32.8161 14.0526L33.187 14.7614L33.558 15.4702L33.8445 15.3202L33.4736 14.6114ZM33.187 14.7614L32.8161 14.0526L32.5295 14.2026L32.9005 14.9114L33.2714 15.6202L33.558 15.4702L33.187 14.7614ZM32.9005 14.9114L32.5295 14.2026C32.1942 14.378 31.9278 14.6431 31.7591 14.9894L32.4782 15.3398L33.1974 15.6903C33.2096 15.6652 33.2247 15.6446 33.2714 15.6202L32.9005 14.9114ZM32.4782 15.3398L31.7591 14.9894L31.6234 15.2679L32.3425 15.6183L33.0617 15.9688L33.1974 15.6903L32.4782 15.3398ZM32.3425 15.6183L31.6234 15.2679L31.4876 15.5464L32.2068 15.8969L32.926 16.2473L33.0617 15.9688L32.3425 15.6183ZM32.2068 15.8969L31.4876 15.5464C31.4728 15.5769 31.454 15.6007 31.4061 15.6268L31.789 16.3292L32.172 17.0315C32.5002 16.8526 32.7599 16.5881 32.926 16.2473L32.2068 15.8969ZM31.789 16.3292L31.4061 15.6268L31.124 15.7806L31.507 16.4829L31.8899 17.1853L32.172 17.0315L31.789 16.3292ZM31.507 16.4829L31.124 15.7806L30.842 15.9343L31.2249 16.6367L31.6079 17.3391L31.8899 17.1853L31.507 16.4829ZM31.2249 16.6367L30.842 15.9343C30.5109 16.1149 30.2507 16.383 30.0869 16.7284L30.8097 17.0712L31.5326 17.414C31.5463 17.3851 31.5629 17.3637 31.6079 17.3391L31.2249 16.6367ZM30.8097 17.0712L30.0869 16.7284L29.9538 17.0091L30.6766 17.3519L31.3994 17.6947L31.5326 17.414L30.8097 17.0712ZM30.6766 17.3519L29.9538 17.0091L29.8206 17.2898L30.5435 17.6326L31.2663 17.9754L31.3994 17.6947L30.6766 17.3519ZM30.5435 17.6326L29.8206 17.2898C29.7339 17.4728 29.6457 17.6545 29.5562 17.8351L30.273 18.1904L30.9897 18.5458C31.0834 18.3569 31.1756 18.1668 31.2663 17.9754L30.5435 17.6326ZM30.273 18.1904L29.5562 17.8351L29.4189 18.1122L30.1356 18.4675L30.8524 18.8229L30.9897 18.5458L30.273 18.1904ZM30.1356 18.4675L29.4189 18.1122L29.2815 18.3893L29.9982 18.7446L30.715 19.1L30.8524 18.8229L30.1356 18.4675ZM29.9982 18.7446L29.2815 18.3893C29.2582 18.4361 29.2277 18.4713 29.174 18.5042L29.5917 19.1865L30.0094 19.8688C30.3145 19.682 30.555 19.4225 30.715 19.1L29.9982 18.7446ZM29.5917 19.1865L29.174 18.5042L28.9048 18.6689L29.3225 19.3512L29.7402 20.0336L30.0094 19.8688L29.5917 19.1865ZM29.3225 19.3512L28.9048 18.6689L28.6357 18.8337L29.0533 19.516L29.471 20.1983L29.7402 20.0336L29.3225 19.3512ZM29.0533 19.516L28.6357 18.8337C28.3922 18.9828 28.1743 19.1629 27.9864 19.3749L28.5852 19.9054L29.184 20.4359C29.2614 20.3485 29.3556 20.269 29.471 20.1983L29.0533 19.516ZM28.5852 19.9054L27.9864 19.3749L27.7874 19.5994L28.3862 20.13L28.985 20.6605L29.184 20.4359L28.5852 19.9054ZM28.3862 20.13L27.7874 19.5994L27.5884 19.824L28.1872 20.3546L28.786 20.8851L28.985 20.6605L28.3862 20.13ZM28.1872 20.3546L27.5884 19.824C27.5167 19.905 27.4483 19.986 27.3941 20.0597C27.3682 20.0949 27.3319 20.1468 27.2989 20.2077C27.2824 20.2382 27.258 20.2869 27.2369 20.3484C27.2193 20.3995 27.182 20.5212 27.1933 20.6784L27.9912 20.6212L28.7892 20.564C28.795 20.6445 28.7872 20.7112 28.779 20.7568C28.7706 20.8034 28.7594 20.841 28.7504 20.8673C28.733 20.9179 28.7144 20.9539 28.7058 20.9698C28.6886 21.0014 28.6766 21.0165 28.6833 21.0073C28.6944 20.9922 28.7251 20.9538 28.786 20.8851L28.1872 20.3546ZM27.9912 20.6212L27.1933 20.6784L27.1963 20.7204L27.9943 20.6632L28.7922 20.606L28.7892 20.564L27.9912 20.6212ZM27.9943 20.6632L27.905 21.4582L27.9759 21.4662L28.0651 20.6712L28.1544 19.8762L28.0835 19.8682L27.9943 20.6632ZM28.0651 20.6712L27.4562 20.1523L27.3914 20.2284L28.0003 20.7473L28.6092 21.2662L28.674 21.19L28.0651 20.6712Z" fill="#333333"/>
<path d="M35.6919 12.9544C35.9785 12.6181 35.9382 12.1132 35.6019 11.8266C35.2656 11.5401 34.7607 11.5804 34.4741 11.9167L35.083 12.4355L35.6919 12.9544ZM35.0181 12.5117L35.5108 13.142L35.5746 13.0921L35.6271 13.0305L35.0181 12.5117ZM34.0402 13.5177L33.2733 13.2901L34.0402 13.5177ZM33.4736 14.6114L33.1026 13.9026L33.4736 14.6114ZM32.3425 15.6183L31.6234 15.2679L32.3425 15.6183ZM32.2068 15.8969L32.926 16.2473L32.2068 15.8969ZM31.789 16.3292L31.4061 15.6268L31.789 16.3292ZM31.507 16.4829L31.124 15.7806L31.507 16.4829ZM31.2249 16.6367L31.6079 17.3391L31.2249 16.6367ZM30.5435 17.6326L29.8206 17.2898L30.5435 17.6326ZM30.273 18.1904L29.5562 17.8351L30.273 18.1904ZM29.9982 18.7446L30.715 19.1L29.9982 18.7446ZM29.3225 19.3512L28.9048 18.6689L29.3225 19.3512ZM28.1872 20.3546L28.786 20.8851L28.1872 20.3546ZM27.9912 20.6212L28.7892 20.564L27.9912 20.6212ZM27.9943 20.6632L27.1963 20.7204L27.2439 21.384L27.905 21.4582L27.9943 20.6632ZM28.0651 20.6712L28.674 21.19L29.6505 20.0442L28.1544 19.8762L28.0651 20.6712ZM27.3914 20.2284C27.1048 20.5647 27.1451 21.0696 27.4814 21.3562C27.8177 21.6428 28.3226 21.6024 28.6092 21.2662L28.0003 20.7473L27.3914 20.2284ZM35.083 12.4355L34.4741 11.9167L34.4092 11.9928L35.0181 12.5117L35.6271 13.0305L35.6919 12.9544L35.083 12.4355ZM35.0181 12.5117L34.5255 11.8814L34.0832 12.2271L34.5759 12.8574L35.0685 13.4877L35.5108 13.142L35.0181 12.5117ZM34.5759 12.8574L34.0832 12.2271C33.7406 12.4948 33.406 12.8429 33.2733 13.2901L34.0402 13.5177L34.8071 13.7453C34.8009 13.7662 34.8004 13.7507 34.8421 13.6993C34.8835 13.6482 34.9544 13.5769 35.0685 13.4877L34.5759 12.8574ZM34.0402 13.5177L33.2733 13.2901L33.1799 13.6047L33.9468 13.8323L34.7138 14.0599L34.8071 13.7453L34.0402 13.5177ZM33.9468 13.8323L33.1799 13.6047L33.0865 13.9193L33.8535 14.1469L34.6204 14.3744L34.7138 14.0599L33.9468 13.8323ZM33.8535 14.1469L33.0865 13.9193C33.0844 13.9264 33.0833 13.928 33.0844 13.9259C33.0856 13.9236 33.0882 13.9191 33.0925 13.9139C33.0969 13.9086 33.1011 13.9046 33.1042 13.9021C33.1071 13.8998 33.1072 13.9002 33.1026 13.9026L33.4736 14.6114L33.8445 15.3202C34.2303 15.1183 34.4977 14.7881 34.6204 14.3744L33.8535 14.1469ZM33.4736 14.6114L33.1026 13.9026L32.8161 14.0526L33.187 14.7614L33.558 15.4702L33.8445 15.3202L33.4736 14.6114ZM33.187 14.7614L32.8161 14.0526L32.5295 14.2026L32.9005 14.9114L33.2714 15.6202L33.558 15.4702L33.187 14.7614ZM32.9005 14.9114L32.5295 14.2026C32.1942 14.378 31.9278 14.6431 31.7591 14.9894L32.4782 15.3398L33.1974 15.6903C33.2096 15.6652 33.2247 15.6446 33.2714 15.6202L32.9005 14.9114ZM32.4782 15.3398L31.7591 14.9894L31.6234 15.2679L32.3425 15.6183L33.0617 15.9688L33.1974 15.6903L32.4782 15.3398ZM32.3425 15.6183L31.6234 15.2679L31.4876 15.5464L32.2068 15.8969L32.926 16.2473L33.0617 15.9688L32.3425 15.6183ZM32.2068 15.8969L31.4876 15.5464C31.4728 15.5769 31.454 15.6007 31.4061 15.6268L31.789 16.3292L32.172 17.0315C32.5002 16.8526 32.7599 16.5881 32.926 16.2473L32.2068 15.8969ZM31.789 16.3292L31.4061 15.6268L31.124 15.7806L31.507 16.4829L31.8899 17.1853L32.172 17.0315L31.789 16.3292ZM31.507 16.4829L31.124 15.7806L30.842 15.9343L31.2249 16.6367L31.6079 17.3391L31.8899 17.1853L31.507 16.4829ZM31.2249 16.6367L30.842 15.9343C30.5109 16.1149 30.2507 16.383 30.0869 16.7284L30.8097 17.0712L31.5326 17.414C31.5463 17.3851 31.5629 17.3637 31.6079 17.3391L31.2249 16.6367ZM30.8097 17.0712L30.0869 16.7284L29.9538 17.0091L30.6766 17.3519L31.3994 17.6947L31.5326 17.414L30.8097 17.0712ZM30.6766 17.3519L29.9538 17.0091L29.8206 17.2898L30.5435 17.6326L31.2663 17.9754L31.3994 17.6947L30.6766 17.3519ZM30.5435 17.6326L29.8206 17.2898C29.7339 17.4728 29.6457 17.6545 29.5562 17.8351L30.273 18.1904L30.9897 18.5458C31.0834 18.3569 31.1756 18.1668 31.2663 17.9754L30.5435 17.6326ZM30.273 18.1904L29.5562 17.8351L29.4189 18.1122L30.1356 18.4675L30.8524 18.8229L30.9897 18.5458L30.273 18.1904ZM30.1356 18.4675L29.4189 18.1122L29.2815 18.3893L29.9982 18.7446L30.715 19.1L30.8524 18.8229L30.1356 18.4675ZM29.9982 18.7446L29.2815 18.3893C29.2582 18.4361 29.2277 18.4713 29.174 18.5042L29.5917 19.1865L30.0094 19.8688C30.3145 19.682 30.555 19.4225 30.715 19.1L29.9982 18.7446ZM29.5917 19.1865L29.174 18.5042L28.9048 18.6689L29.3225 19.3512L29.7402 20.0336L30.0094 19.8688L29.5917 19.1865ZM29.3225 19.3512L28.9048 18.6689L28.6357 18.8337L29.0533 19.516L29.471 20.1983L29.7402 20.0336L29.3225 19.3512ZM29.0533 19.516L28.6357 18.8337C28.3922 18.9828 28.1743 19.1629 27.9864 19.3749L28.5852 19.9054L29.184 20.4359C29.2614 20.3485 29.3556 20.269 29.471 20.1983L29.0533 19.516ZM28.5852 19.9054L27.9864 19.3749L27.7874 19.5994L28.3862 20.13L28.985 20.6605L29.184 20.4359L28.5852 19.9054ZM28.3862 20.13L27.7874 19.5994L27.5884 19.824L28.1872 20.3546L28.786 20.8851L28.985 20.6605L28.3862 20.13ZM28.1872 20.3546L27.5884 19.824C27.5167 19.905 27.4483 19.986 27.3941 20.0597C27.3682 20.0949 27.3319 20.1468 27.2989 20.2077C27.2824 20.2382 27.258 20.2869 27.2369 20.3484C27.2193 20.3995 27.182 20.5212 27.1933 20.6784L27.9912 20.6212L28.7892 20.564C28.795 20.6445 28.7872 20.7112 28.779 20.7568C28.7706 20.8034 28.7594 20.841 28.7504 20.8673C28.733 20.9179 28.7144 20.9539 28.7058 20.9698C28.6886 21.0014 28.6766 21.0165 28.6833 21.0073C28.6944 20.9922 28.7251 20.9538 28.786 20.8851L28.1872 20.3546ZM27.9912 20.6212L27.1933 20.6784L27.1963 20.7204L27.9943 20.6632L28.7922 20.606L28.7892 20.564L27.9912 20.6212ZM27.9943 20.6632L27.905 21.4582L27.9759 21.4662L28.0651 20.6712L28.1544 19.8762L28.0835 19.8682L27.9943 20.6632ZM28.0651 20.6712L27.4562 20.1523L27.3914 20.2284L28.0003 20.7473L28.6092 21.2662L28.674 21.19L28.0651 20.6712Z" fill="#BC7436"/>
<path d="M25.6348 15.6562C37.5832 15.6563 47.2693 25.3426 47.2695 37.291C47.2695 48.9817 37.9971 58.5044 26.4053 58.9102C24.1434 61.3156 21.0684 62.8059 17.7666 63.0801L17.0576 63.1387C16.4362 63.1903 15.9638 62.5896 16.1611 61.998L16.6191 60.625C17.0189 59.4261 17.017 58.1496 16.6475 56.9756C9.18528 53.5629 4 46.0329 4 37.291C4.00027 25.3427 13.6864 15.6563 25.6348 15.6562Z" fill="#BC7436"/>
<circle cx="11.8656" cy="36.5067" r="3.27427" fill="#DE9B27"/>
<circle cx="38.8656" cy="37.5077" r="3.27427" fill="#DE9B27"/>
<circle cx="26" cy="33" r="7" fill="white"/>
<circle cx="24.0833" cy="33.0833" r="4.08333" fill="#333333"/>
<path d="M20.7503 47.0818C19.9281 47.2535 20.2545 45.2784 20.5206 44.2694L22.7909 44.8679C22.4533 45.5343 21.5726 46.9101 20.7503 47.0818Z" fill="white"/>
<path d="M20.7503 47.0818C19.9281 47.2535 20.2545 45.2784 20.5206 44.2694L22.7909 44.8679C22.4533 45.5343 21.5726 46.9101 20.7503 47.0818Z" stroke="#333333" stroke-width="0.7" stroke-linecap="round" stroke-linejoin="round"/>
<path d="M20.7503 47.0818C19.9281 47.2535 20.2545 45.2784 20.5206 44.2694L22.7909 44.8679C22.4533 45.5343 21.5726 46.9101 20.7503 47.0818Z" stroke="white" stroke-width="0.7" stroke-linecap="round" stroke-linejoin="round"/>
<path d="M23.714 47.7686C24.3356 48.2726 25.0419 46.3071 25.3174 45.2613L23.0648 44.8628C23.0221 45.6214 23.0923 47.2646 23.714 47.7686Z" fill="white"/>
<path d="M23.714 47.7686C24.3356 48.2726 25.0419 46.3071 25.3174 45.2613L23.0648 44.8628C23.0221 45.6214 23.0923 47.2646 23.714 47.7686Z" stroke="#333333" stroke-width="0.7" stroke-linecap="round" stroke-linejoin="round"/>
<path d="M23.714 47.7686C24.3356 48.2726 25.0419 46.3071 25.3174 45.2613L23.0648 44.8628C23.0221 45.6214 23.0923 47.2646 23.714 47.7686Z" stroke="white" stroke-width="0.7" stroke-linecap="round" stroke-linejoin="round"/>
<path d="M18 42C20.6667 44.5 27.5 48 33.5 42" stroke="#333333" stroke-width="2" stroke-linecap="round" stroke-linejoin="round"/>
<path d="M18 42C20.6667 44.5 27.5 48 33.5 42" stroke="#333333" stroke-width="2" stroke-linecap="round" stroke-linejoin="round"/>
<path d="M22.8123 21.9988C22.9779 23.3723 24.2756 26.019 28.1418 25.618" stroke="#A59259" stroke-width="1.5" stroke-linecap="round" stroke-linejoin="round"/>
<path d="M22.8123 21.9988C22.9779 23.3723 24.2756 26.019 28.1418 25.618" stroke="#333333" stroke-width="1.5" stroke-linecap="round" stroke-linejoin="round"/>
</g>
<defs>
<clipPath id="clip0_988_5495">
<rect width="52" height="52" fill="white"/>
</clipPath>
</defs>
</svg>
